<svg height="512" viewBox="0 0 64 64" width="512" xmlns="http://www.w3.org/2000/svg"><g id="virus-covid19-corona-breath-cough"><path d="m60.82 55.021v6h-58v-6a12 12 0 0 1 12-12h34a12 12 0 0 1 12 12z" fill="#9bc9ff"/><path d="m16.82 11.021v6h11.686a8 8 0 0 0 5.657-2.343l2.657-2.657 2.657 2.657a8 8 0 0 0 5.657 2.343h1.686v-6a8 8 0 0 0 -8-8h-14a8 8 0 0 0 -8 8z" fill="#9bc9ff"/><path d="m42.724 42.026a5 5 0 0 0 -6.352-3.79 1.988 1.988 0 0 1 -2.552-1.916v-8.466a12.06 12.06 0 0 1 -4 0v8.246a2.007 2.007 0 0 1 -2.315 1.968 5.135 5.135 0 0 0 -1.21-.019 5 5 0 0 0 .525 9.973 5 5 0 0 0 10 0 .34.34 0 0 0 -.01-.1 5.669 5.669 0 0 0 1.01.1 5.006 5.006 0 0 0 4.904-5.996z" fill="#9bc9ff"/><g fill="#1e81ce"><path d="m49 42h-5.09a1.25 1.25 0 0 0 -.03-.19 5.957 5.957 0 0 0 -3.56-4.33 15.156 15.156 0 0 0 6.37-9.48h1.31a3.009 3.009 0 0 0 3-3v-3a3.009 3.009 0 0 0 -3-3h-1v-1a1 1 0 0 0 1-1v-6a9.014 9.014 0 0 0 -9-9h-14a9.014 9.014 0 0 0 -9 9v6a1 1 0 0 0 1 1v1h-1a3.009 3.009 0 0 0 -3 3v3a3.009 3.009 0 0 0 3 3h1.31a15.092 15.092 0 0 0 6.82 9.75 5.977 5.977 0 0 0 -3.03 4.25h-6.1a13.012 13.012 0 0 0 -13 13v6a1 1 0 0 0 1 1h58a1 1 0 0 0 1-1v-6a13.012 13.012 0 0 0 -13-13zm-2-17v-4h1a1 1 0 0 1 1 1v3a1 1 0 0 1 -1 1h-1.04c.03-.33.04-.66.04-1zm-31 1a1 1 0 0 1 -1-1v-3a1 1 0 0 1 1-1h1v4c0 .34.01.67.04 1zm2-15a7.008 7.008 0 0 1 7-7h14a7.008 7.008 0 0 1 7 7v5h-.69a6.936 6.936 0 0 1 -4.94-2.05l-2.66-2.66a1.008 1.008 0 0 0 -1.42 0l-2.66 2.66a6.936 6.936 0 0 1 -4.94 2.05h-10.69zm1 14v-7h9.69a8.974 8.974 0 0 0 6.36-2.63l1.95-1.96 1.95 1.96a8.917 8.917 0 0 0 6.05 2.62v7.01a13.087 13.087 0 0 1 -7.43 11.75c-.32.15-.64.29-.98.42-.11.02-.22.05-.33.08a.958.958 0 0 1 -.85-.14 1 1 0 0 1 -.41-.81v-.67c3.02-.74 5-2.53 5-4.63 0-2.8-3.51-5-8-5s-8 2.2-8 5c0 2.1 1.98 3.89 5 4.63v.45a.979.979 0 0 1 -.33.73 1.094 1.094 0 0 1 -.85.25 5.675 5.675 0 0 0 -.79-.05c-.2-.08-.4-.17-.6-.26a13.087 13.087 0 0 1 -7.43-11.75zm16 8.56v-5.14c1.85.57 3 1.61 3 2.58 0 1.03-1.21 2.02-3 2.56zm-6-5.14v5.14c-1.79-.54-3-1.53-3-2.56 0-.97 1.15-2.01 3-2.58zm-5.97 14.07a4.056 4.056 0 0 1 3.57-3.47c.08 0 .15-.01.3-.01a3.009 3.009 0 0 1 .65.03 3.074 3.074 0 0 0 2.44-.73 2.975 2.975 0 0 0 1.01-2.23v-8.03c.32-.03.65-.05 1-.05s.68.02 1 .05v8.25a2.953 2.953 0 0 0 1.22 2.41 2.914 2.914 0 0 0 2.61.46 1.948 1.948 0 0 1 .23-.06c.02 0 .04-.01.06-.01a3.689 3.689 0 0 1 .87-.1 4.666 4.666 0 0 1 .83.08 3.966 3.966 0 0 1 3.1 3.12 4.173 4.173 0 0 1 .08.8 4 4 0 0 1 -4 4 5.256 5.256 0 0 1 -.83-.08 1 1 0 0 0 -1.17 1.12 4 4 0 0 1 -8-.04 1 1 0 0 0 -1-1 3.995 3.995 0 0 1 -4-4 4.773 4.773 0 0 1 .03-.51zm36.97 17.51h-9.98l-.02-4.01a.994.994 0 0 0 -1-.99h-.01a1 1 0 0 0 -.99 1.01l.02 3.99h-32.04l.02-3.99a1 1 0 0 0 -.99-1.01h-.01a.994.994 0 0 0 -1 .99l-.02 4.01h-9.98v-5a11.007 11.007 0 0 1 11-11h6.09a5.879 5.879 0 0 0 1.65 3.23 5.973 5.973 0 0 0 3.33 1.7 6 6 0 0 0 11.85.07 5.986 5.986 0 0 0 5.99-5h5.09a11.007 11.007 0 0 1 11 11z"/><path d="m38 42a1 1 0 0 1 1 1 1 1 0 0 0 2 0 3 3 0 0 0 -3-3 1 1 0 0 0 0 2z"/><path d="m32 51a3 3 0 0 0 3-3 1 1 0 0 0 -2 0 1 1 0 0 1 -1 1 1 1 0 0 0 0 2z"/><path d="m27 45a1 1 0 0 0 0-2 1 1 0 0 0 -2 0 2 2 0 0 0 2 2z"/><path d="m32 45a1 1 0 0 0 1-1v-2a1 1 0 0 0 -2 0v2a1 1 0 0 0 1 1z"/><path d="m26 22h1a1 1 0 0 0 0-2h-1a1 1 0 0 0 0 2z"/><path d="m37 22h1a1 1 0 0 0 0-2h-1a1 1 0 0 0 0 2z"/></g></g></svg>