<svg height="512" viewBox="0 0 64 64" width="512" xmlns="http://www.w3.org/2000/svg"><g id="coronavirus-virus-covid19-corona-bat"><g fill="#9bc9ff"><path d="m46.36 5.09-.36-.09a11.99 11.99 0 0 1 -10 11.83v-6.83l-1.172 1.172a4 4 0 0 1 -5.656 0l-1.172-1.172v6.83a11.99 11.99 0 0 1 -10-11.83l-.36.09a19.992 19.992 0 0 0 -14.549 14.547l-.091.363h3a10 10 0 0 1 10 10 15.613 15.613 0 0 1 14.7 10.36l1.3 3.64 1.3-3.64a15.613 15.613 0 0 1 14.7-10.36 10 10 0 0 1 10-10h3l-.091-.363a19.992 19.992 0 0 0 -14.549-14.547z"/><path d="m49 43a4 4 0 1 0 2.828 1.172 3.984 3.984 0 0 0 -2.828-1.172z"/><circle cx="49" cy="39" r="1"/><path d="m44.05 40.636a1 1 0 1 0 0 1.414 1 1 0 0 0 0-1.414z"/><circle cx="41" cy="47" r="1"/><path d="m42.636 51.95a1 1 0 1 0 1.414 0 1 1 0 0 0 -1.414 0z"/><circle cx="49" cy="55" r="1"/><path d="m53.95 53.364a1 1 0 1 0 0-1.414 1 1 0 0 0 0 1.414z"/><circle cx="57" cy="47" r="1"/><path d="m55.364 42.05a1 1 0 1 0 -1.414 0 1 1 0 0 0 1.414 0z"/><path d="m15 51a4 4 0 1 0 -2.828-1.172 3.984 3.984 0 0 0 2.828 1.172z"/><circle cx="15" cy="39" r="1"/><path d="m10.05 40.636a1 1 0 1 0 0 1.414 1 1 0 0 0 0-1.414z"/><circle cx="7" cy="47" r="1"/><path d="m8.636 51.95a1 1 0 1 0 1.414 0 1 1 0 0 0 -1.414 0z"/><circle cx="15" cy="55" r="1"/><path d="m19.95 53.364a1 1 0 1 0 0-1.414 1 1 0 0 0 0 1.414z"/><circle cx="23" cy="47" r="1"/><path d="m21.364 42.05a1 1 0 1 0 -1.414 0 1 1 0 0 0 1.414 0z"/></g><path d="m3 21h3a9.011 9.011 0 0 1 9 9 1 1 0 0 0 1 1 14.609 14.609 0 0 1 13.758 9.7l1.3 3.64a1 1 0 0 0 1.884 0l1.3-3.639a14.613 14.613 0 0 1 13.758-9.701 1 1 0 0 0 1-1 9.01 9.01 0 0 1 9-9h3a1 1 0 0 0 .97-1.243l-.091-.363a20.953 20.953 0 0 0 -15.279-15.274l-.361-.09a1 1 0 0 0 -1.239.97 10.952 10.952 0 0 1 -8 10.584v-5.584a1 1 0 0 0 -1.707-.707l-1.172 1.171a3.071 3.071 0 0 1 -4.243 0l-1.171-1.171a1 1 0 0 0 -1.707.707v5.584a10.951 10.951 0 0 1 -8-10.584 1 1 0 0 0 -1.242-.97l-.361.09a20.954 20.954 0 0 0 -15.276 15.274l-.091.363a1 1 0 0 0 .97 1.243zm14.062-14.715a12.94 12.94 0 0 0 10.773 11.531 1 1 0 0 0 1.165-.986v-4.486a5.109 5.109 0 0 0 6 0v4.486a1 1 0 0 0 1.165.986 12.939 12.939 0 0 0 10.772-11.532 18.953 18.953 0 0 1 12.763 12.716h-1.7a11.015 11.015 0 0 0 -10.957 10.027 16.619 16.619 0 0 0 -14.685 11l-.358 1-.358-1a16.62 16.62 0 0 0 -14.684-11 11.016 11.016 0 0 0 -10.958-10.027h-1.7a18.951 18.951 0 0 1 12.762-12.715z" fill="#1e81ce"/><path d="m57 45a1.993 1.993 0 0 0 -1.722 1h-1.378a4.961 4.961 0 0 0 -.732-1.753l.978-.978a1.976 1.976 0 0 0 .51.074 2 2 0 0 0 0-4 2 2 0 0 0 -2 2 2.036 2.036 0 0 0 .074.512l-.978.978a4.969 4.969 0 0 0 -1.752-.733v-1.378a2 2 0 1 0 -2 0v1.378a4.969 4.969 0 0 0 -1.753.732l-.978-.978a2.036 2.036 0 0 0 .074-.512 1.985 1.985 0 0 0 -.586-1.414 2.092 2.092 0 0 0 -1.414-.586 2 2 0 0 0 0 4 1.976 1.976 0 0 0 .51-.074l.978.978a4.961 4.961 0 0 0 -.731 1.754h-1.378a2 2 0 1 0 0 2h1.378a4.961 4.961 0 0 0 .732 1.753l-.978.978a1.976 1.976 0 0 0 -.51-.074 2 2 0 0 0 0 4 2 2 0 0 0 2-2 2.036 2.036 0 0 0 -.074-.512l.978-.978a4.969 4.969 0 0 0 1.752.733v1.379a2 2 0 1 0 2 0v-1.379a4.969 4.969 0 0 0 1.753-.732l.978.978a2.036 2.036 0 0 0 -.074.512 2 2 0 0 0 2 2 2 2 0 0 0 0-4 1.976 1.976 0 0 0 -.51.074l-.978-.978a4.961 4.961 0 0 0 .731-1.754h1.379a2 2 0 1 0 1.721-3zm-8 5a3 3 0 1 1 3-3 3 3 0 0 1 -3 3z" fill="#1e81ce"/><path d="m49 34a13 13 0 1 0 13 13 13.015 13.015 0 0 0 -13-13zm0 24a11 11 0 1 1 11-11 11.013 11.013 0 0 1 -11 11z" fill="#1e81ce"/><path d="m23 45a1.993 1.993 0 0 0 -1.722 1h-1.378a4.961 4.961 0 0 0 -.732-1.753l.978-.978a1.95 1.95 0 0 0 1.926-.512 2 2 0 0 0 0-2.827 2.047 2.047 0 0 0 -2.828 0 1.95 1.95 0 0 0 -.512 1.926l-.978.978a4.961 4.961 0 0 0 -1.754-.734v-1.378a2 2 0 1 0 -2 0v1.378a4.961 4.961 0 0 0 -1.753.732l-.978-.978a1.95 1.95 0 0 0 -.512-1.926 2.046 2.046 0 0 0 -2.827 0 1.989 1.989 0 0 0 1.925 3.34l.978.978a4.961 4.961 0 0 0 -.733 1.754h-1.378a2 2 0 1 0 0 2h1.378a4.961 4.961 0 0 0 .732 1.753l-.99.99a2.034 2.034 0 0 0 -1.914.5 2.012 2.012 0 1 0 3.34.9l.978-.978a4.961 4.961 0 0 0 1.754.735v1.379a2 2 0 1 0 2 0v-1.379a4.961 4.961 0 0 0 1.753-.732l.978.978a1.95 1.95 0 0 0 .512 1.926 2 2 0 1 0 2.828-2.828 2.033 2.033 0 0 0 -1.914-.5l-.99-.99a4.961 4.961 0 0 0 .733-1.754h1.379a2 2 0 1 0 1.721-3zm-8 5a3 3 0 1 1 3-3 3 3 0 0 1 -3 3z" fill="#1e81ce"/><path d="m15 34a13 13 0 1 0 13 13 13.015 13.015 0 0 0 -13-13zm0 24a11 11 0 1 1 11-11 11.013 11.013 0 0 1 -11 11z" fill="#1e81ce"/><path d="m58.759 35.755a.872.872 0 0 0 .1.006 1 1 0 0 0 .994-.9 28.285 28.285 0 0 0 .147-2.861 27.994 27.994 0 0 0 -1.3-8.438 1 1 0 1 0 -1.906.6 26.181 26.181 0 0 1 1.066 10.494 1 1 0 0 0 .899 1.099z" fill="#1e81ce"/><path d="m22.283 7.876a26.212 26.212 0 0 1 19.439 0 .984.984 0 0 0 .374.073 1 1 0 0 0 .374-1.928 28.227 28.227 0 0 0 -20.935 0 1 1 0 0 0 .748 1.855z" fill="#1e81ce"/><path d="m6.5 23.051a1 1 0 0 0 -1.251.659 28 28 0 0 0 -1.249 8.29 28.348 28.348 0 0 0 .185 3.237 1 1 0 0 0 .992.885 1.127 1.127 0 0 0 .116-.006 1 1 0 0 0 .879-1.109 26.392 26.392 0 0 1 -.172-3.007 26.015 26.015 0 0 1 1.158-7.7 1 1 0 0 0 -.658-1.249z" fill="#1e81ce"/><path d="m37.854 57.338a26.357 26.357 0 0 1 -11.527.041 1 1 0 1 0 -.435 1.953 28.257 28.257 0 0 0 12.408-.044 1 1 0 0 0 -.449-1.95z" fill="#1e81ce"/></g></svg>