<svg height="512" viewBox="0 0 64 64" width="512" xmlns="http://www.w3.org/2000/svg"><g id="coronavirus-virus-covid19-handsake-hand"><g fill="#9bc9ff"><path d="m41.9 12.2 4.95 4.95 5.657-5.657a29 29 0 1 0 -41.013 41.013l8.419-8.419a3 3 0 1 1 -4.242-4.243l.773-.773-5.657-5.657-5.657-5.657 16.97-16.97 5.656 5.657 2.889 2.768.014-.014 5.584-1.339z"/><path d="m27.757 16.444-5.656-5.657-16.971 16.97 5.657 5.657 16.96-16.97z"/><path d="m27.747 16.444-16.96 16.97 16.97-16.97z"/><path d=""/><path d="m37.546 14.004h8v7h-8z" transform="matrix(.707 -.707 .707 .707 -.209 34.504)"/><path d="m46.738 17.197h8v19h-8z" transform="matrix(.707 -.707 .707 .707 -4.016 43.697)"/><path d="m52.506 11.494-5.657 5.657 13.435 13.435-5.657 5.657-2.827 2.828 2.456 2.451a3 3 0 1 1 -4.24 4.25l-.592-.592-.006.005a3 3 0 0 1 -4.264 4.215l-.224-.223-.486-.487-.084-.09a3.247 3.247 0 0 1 .487.644 2.982 2.982 0 0 1 -4.637 3.69l-.8-.8a3.072 3.072 0 0 1 .446 3.9 2.994 2.994 0 0 1 -4.6.438l-1.139-1.138-.767.767a3.01 3.01 0 0 1 -4.247 0 2.992 2.992 0 0 1 0-4.238l-.7.7a3 3 0 1 1 -4.248-4.238 3 3 0 1 1 -4.242-4.243l-8.419 8.419a29 29 0 1 0 41.012-41.007z"/></g><path d="m32 2a30 30 0 1 0 30 30 30.037 30.037 0 0 0 -30-30zm27.8 26.68-11.54-11.53 4.22-4.22a27.953 27.953 0 0 1 7.32 15.75zm-13.66 14.63 2.54 2.54a.031.031 0 0 0 .01.02 1.949 1.949 0 0 1 .59 1.41 1.992 1.992 0 0 1 -.6 1.42 2.048 2.048 0 0 1 -2.82-.01l-2.55-2.55a1 1 0 0 0 -1.41 0 1.008 1.008 0 0 0 0 1.42l1.75 1.75a2.073 2.073 0 0 1 .33 2.62 1.994 1.994 0 0 1 -3.06.3l-1.57-1.56a3.632 3.632 0 0 0 .12-.92 3.962 3.962 0 0 0 -3.67-3.98 3.975 3.975 0 0 0 .13-.97 3.984 3.984 0 0 0 -3.22-3.93 3.975 3.975 0 0 0 .41-1.74 3.915 3.915 0 0 0 -1.18-2.82 4.031 4.031 0 0 0 -1.81-1.03l8.23-8.23 12.72 12.72c.01 0 .01 0 .01.01s.01 0 .01.01l2.44 2.44a2 2 0 0 1 .02 2.83 2 2 0 0 1 -2.84 0l-3.16-3.16a1.008 1.008 0 0 0 -1.42 0 1 1 0 0 0 0 1.41zm-18.37-25.47 1.45 1.39-3.51 3.5a4 4 0 1 0 5.65 5.66l3.47-3.46a1 1 0 0 1 1.41 0l.71.71-9.64 9.64a4.072 4.072 0 0 0 -1.03-1.81 4 4 0 0 0 -5.65 0l-4.19 4.19-4.24-4.25zm-16.98 14.16-4.25-4.24 15.56-15.56 4.24 4.24zm28.99-9.19-1.42 1.41-.7-.71a3.021 3.021 0 0 0 -4.25 0l-3.46 3.47a2.01 2.01 0 0 1 -3.42-1.42 1.949 1.949 0 0 1 .59-1.41l4.05-4.05 4.76-1.14zm-2.12-4.95 4.24-4.24 3.54 3.53-4.25 4.24zm-21.28 22.69 5.66-5.66a1.992 1.992 0 0 1 2.82-.01 1.992 1.992 0 0 1 .01 2.84l-5.66 5.66a2.013 2.013 0 0 1 -2.83.01 2.041 2.041 0 0 1 -.59-1.42 2.006 2.006 0 0 1 .59-1.42zm4.24 4.24 7.07-7.07a2.016 2.016 0 0 1 2.84.01 1.968 1.968 0 0 1 -.01 2.82l-1.41 1.41-5.66 5.66a2 2 0 0 1 -3.42-1.41 2.024 2.024 0 0 1 .59-1.42zm4.25 4.24 5.66-5.66a2.025 2.025 0 0 1 1.41-.58 1.943 1.943 0 0 1 1.4.58 2.047 2.047 0 0 1 .59 1.43 2.016 2.016 0 0 1 -.58 1.41l-5.65 5.65a1.986 1.986 0 0 1 -2.83 0 1.992 1.992 0 0 1 0-2.83zm4.94 3.54 4.25-4.25a2 2 0 0 1 2.82 0 2.029 2.029 0 0 1 .59 1.43 1.912 1.912 0 0 1 -.23.9 3.918 3.918 0 0 1 -.36.51l-4.23 4.23a2.016 2.016 0 0 1 -2.84 0 1.981 1.981 0 0 1 -.58-1.41 2.016 2.016 0 0 1 .58-1.41zm8.55-.07.35.35a2.086 2.086 0 0 1 .33 2.61 2 2 0 0 1 -1.66.89 1.957 1.957 0 0 1 -1.41-.58l-.43-.44zm13.44-14.84-12.02-12.02 1.41-1.42 12.02 12.02zm-9.19-14.85 4.24-4.25 12.02 12.03-4.24 4.24zm-10.61-18.81a27.918 27.918 0 0 1 19.07 7.52l-4.22 4.22-4.24-4.25a1.008 1.008 0 0 0 -1.42 0l-5.45 5.46-4.81 1.15-2.48-2.38-5.64-5.64a1.027 1.027 0 0 0 -1.42 0l-16.94 16.94a28.045 28.045 0 0 1 27.55-23.02zm-28 28a27.8 27.8 0 0 1 .26-3.78 1 1 0 0 0 .16.24l10.61 10.61-.07.07a4 4 0 0 0 0 5.65 3.92 3.92 0 0 0 1.81 1.02l-5.25 5.26a27.918 27.918 0 0 1 -7.52-19.07zm28 28a27.918 27.918 0 0 1 -19.07-7.52l5.25-5.25a4.072 4.072 0 0 0 1.03 1.81 3.976 3.976 0 0 0 2.82 1.17 2.66 2.66 0 0 0 .28-.03 2.6 2.6 0 0 0 -.03.26 3.995 3.995 0 0 0 4 4 4.056 4.056 0 0 0 .98-.13 3.99 3.99 0 0 0 6.8 2.5l.06-.06.43.43a3.992 3.992 0 0 0 6.12-.57 3.71 3.71 0 0 0 .67-1.93 4.072 4.072 0 0 0 .99.13 3.961 3.961 0 0 0 3.29-1.74 3.65 3.65 0 0 0 .67-1.93 4.068 4.068 0 0 0 .98.14 3.972 3.972 0 0 0 3.98-3.74 3.721 3.721 0 0 0 .88.11h.01a4 4 0 0 0 2.82-6.84l-1.74-1.74 6.77-6.78a28.027 28.027 0 0 1 -27.99 27.71z" fill="#1e81ce"/></g></svg>