<svg height="512" viewBox="0 0 64 64" width="512" xmlns="http://www.w3.org/2000/svg"><g id="doctor-virus-covid19-corona-mask"><path d="m39 3h-14a8 8 0 0 0 -8 8v6h30v-6a8 8 0 0 0 -8-8z" fill="#9bc9ff"/><path d="m32 24-9 2v9.71a13.927 13.927 0 0 0 18 0v-9.71z" fill="#9bc9ff"/><path d="m49 43h-11a6 6 0 0 1 -12 0h-11a12 12 0 0 0 -12 12v6h58v-6a12 12 0 0 0 -12-12zm-30 13a2 2 0 1 1 2-2 2 2 0 0 1 -2 2z" fill="#9bc9ff"/><g fill="#1e81ce"><path d="m33 6h-2v3h-3v2h3v3h2v-3h3v-2h-3z"/><path d="m49 42h-10v-3.74a15.126 15.126 0 0 0 7.69-10.26h1.31a3.009 3.009 0 0 0 3-3v-3a3.009 3.009 0 0 0 -3-3h-1v-1a1 1 0 0 0 1-1v-6a9.014 9.014 0 0 0 -9-9h-14a9.014 9.014 0 0 0 -9 9v6a1 1 0 0 0 1 1v1h-1a3.009 3.009 0 0 0 -3 3v3a3.009 3.009 0 0 0 3 3h1.31a15.126 15.126 0 0 0 7.69 10.26v3.74h-10a13.012 13.012 0 0 0 -13 13v6a1 1 0 0 0 1 1h58a1 1 0 0 0 1-1v-6a13.012 13.012 0 0 0 -13-13zm-2-17v-4h1a1 1 0 0 1 1 1v3a1 1 0 0 1 -1 1h-1.04c.03-.33.04-.66.04-1zm-31 1a1 1 0 0 1 -1-1v-3a1 1 0 0 1 1-1h1v4c0 .34.01.67.04 1zm29-1a13 13 0 0 1 -3 8.28v-6.92l3-3.6zm-27-14a7.008 7.008 0 0 1 7-7h14a7.008 7.008 0 0 1 7 7v5h-28zm4 22.28a12.983 12.983 0 0 1 -3-8.28v-2.24l3 3.6zm-3-13.64v-1.64h26v1.64l-4.38 5.25-8.4-1.87a1.087 1.087 0 0 0 -.44 0l-8.4 1.87zm5 15.6v-8.44l8-1.78 8 1.78v8.44a13.378 13.378 0 0 1 -2.43 1.51 13.082 13.082 0 0 1 -11.14 0 13.378 13.378 0 0 1 -2.43-1.51zm13 3.9v3.86a5 5 0 0 1 -10 0v-3.86a14.965 14.965 0 0 0 10 0zm-18 13.86a1 1 0 1 1 -1 1 1 1 0 0 1 1-1zm41 7h-56v-5a11.007 11.007 0 0 1 11-11h3v7.18a3 3 0 1 0 2 0v-7.18h5.07a7 7 0 0 0 13.86 0h5.07v5.08a7 7 0 0 0 -6 6.92 1 1 0 0 0 1 1h2v-2h-.9a5 5 0 0 1 9.8 0h-.9v2h2a1 1 0 0 0 1-1 7 7 0 0 0 -6-6.92v-5.08h3a11.007 11.007 0 0 1 11 11z"/><path d="m26 22h1a1 1 0 0 0 0-2h-1a1 1 0 0 0 0 2z"/><path d="m37 22h1a1 1 0 0 0 0-2h-1a1 1 0 0 0 0 2z"/></g></g></svg>