<svg height="512" viewBox="0 0 64 64" width="512" xmlns="http://www.w3.org/2000/svg"><g id="drug-virus-covid19-corona-health"><path d="m42 13h7.92l-9.92-10v8a2 2 0 0 0 2 2z" fill="#9bc9ff"/><path d="m42 32v4h16v-4a2 2 0 0 0 -2-2h-12a2 2 0 0 0 -2 2z" fill="#9bc9ff"/><path d="m55 39a1 1 0 0 1 -1-1v-2h-8v2a1 1 0 0 1 -1 1 6 6 0 0 0 -6 6v16h22v-16a6 6 0 0 0 -6-6zm0 15h-4a2 2 0 0 1 -2-2 2 2 0 0 1 -4 0v-4a2 2 0 0 1 4 0v4a2 2 0 0 1 2-2h4a2 2 0 0 1 0 4z" fill="#9bc9ff"/><path d="m31 9h-4v5h-5v4h5v5h4v-5h5v-4h-5z" fill="#9bc9ff"/><g fill="#1e81ce"><path d="m16 30h2a1 1 0 0 0 0-2h-2a1 1 0 0 0 0 2z"/><path d="m16 34h2a1 1 0 0 0 0-2h-2a1 1 0 0 0 0 2z"/><path d="m16 38h2a1 1 0 0 0 0-2h-2a1 1 0 0 0 0 2z"/><path d="m36 28h-14a1 1 0 0 0 0 2h14a1 1 0 0 0 0-2z"/><path d="m36 32h-14a1 1 0 0 0 0 2h14a1 1 0 0 0 0-2z"/><path d="m34 40h-18a1 1 0 0 0 0 2h18a1 1 0 0 0 0-2z"/><path d="m36 36h-14a1 1 0 0 0 0 2h14a1 1 0 0 0 0-2z"/><path d="m34 44h-18a1 1 0 0 0 0 2h18a1 1 0 0 0 0-2z"/><path d="m34 48h-18a1 1 0 0 0 0 2h18a1 1 0 0 0 0-2z"/><path d="m58 52a3 3 0 0 0 -3-3h-4a2.966 2.966 0 0 0 -1 .184v-1.184a3 3 0 0 0 -6 0v4a2.987 2.987 0 0 0 5 2.22 2.981 2.981 0 0 0 2 .78h4a3 3 0 0 0 3-3zm-11-5a1 1 0 0 1 1 1v1h-2v-1a1 1 0 0 1 1-1zm0 6a1 1 0 0 1 -1-1v-1h2v1a1 1 0 0 1 -1 1zm3-1a1 1 0 0 1 1-1h1v2h-1a1 1 0 0 1 -1-1zm5 1h-1v-2h1a1 1 0 0 1 0 2z"/><path d="m55 38v-1h3a1 1 0 0 0 1-1v-4a3.009 3.009 0 0 0 -3-3h-5v-15.92a.967.967 0 0 0 -.29-.7l-10-10.08a1 1 0 0 0 -.71-.3h-32a1 1 0 0 0 -1 1v52a1 1 0 0 0 1 1h30v5a1 1 0 0 0 1 1h22a1 1 0 0 0 1-1v-16a7.008 7.008 0 0 0 -7-7zm1-7a1 1 0 0 1 1 1v3h-14v-3a1 1 0 0 1 1-1zm-15-25.57 6.52 6.57h-5.52a1 1 0 0 1 -1-1zm-3 39.57v9h-29v-50h30v7a3.009 3.009 0 0 0 3 3h7v15h-5a3.009 3.009 0 0 0 -3 3v4a1 1 0 0 0 1 1h3v1a7.008 7.008 0 0 0 -7 7zm22 11h-2a1 1 0 0 0 0 2h2v2h-20v-2h14a1 1 0 0 0 0-2h-14v-10h3a1 1 0 0 0 0-2h-2.9a5.017 5.017 0 0 1 4.9-4 2.006 2.006 0 0 0 2-2v-1h6v1a2.006 2.006 0 0 0 2 2 5.017 5.017 0 0 1 4.9 4h-8.9a1 1 0 0 0 0 2h9z"/><path d="m32 8h-6v5h-5v6h5v5h6v-5h5v-6h-5zm3 7v2h-5v5h-2v-5h-5v-2h5v-5h2v5z"/></g></g></svg>