<?xml version="1.0"?>
<svg xmlns="http://www.w3.org/2000/svg" viewBox="0 0 64 64" width="512" height="512"><g id="facemask-virus-mask-protect-covid19"><path d="M5.373,38.264a8,8,0,0,0,.339,11.143l1.241,1.2A35.858,35.858,0,0,0,29,60.619V58a2.006,2.006,0,0,1,2-2h2a2.006,2.006,0,0,1,2,2v2.619a35.858,35.858,0,0,0,22.047-10.01l1.241-1.2a8,8,0,0,0,.339-11.143L46.763,25.283A19.858,19.858,0,0,0,35,19.026V21a2.006,2.006,0,0,1-2,2h-.991v0H31a2.006,2.006,0,0,1-2-2V19.026a19.858,19.858,0,0,0-11.763,6.257ZM28,46a5,5,0,0,1-5,5H16a2,2,0,0,1-2-2V43a2,2,0,0,1,2-2h7A5,5,0,0,1,28,46Z" style="fill:#9bc9ff"/><circle cx="23" cy="46" r="2" style="fill:#9bc9ff"/><path d="M60,38.37V14a6,6,0,0,0-12,0V25.154l-.5-.546a21,21,0,0,0-31,0l-.5.546V14A6,6,0,1,0,4,14V38.37A8.948,8.948,0,0,0,5.016,50.125l1.241,1.2a36.839,36.839,0,0,0,51.485,0l1.241-1.2A8.947,8.947,0,0,0,60,38.37ZM50,14a4,4,0,1,1,8,0V36.1l-8-8.753ZM34,19.883V21a1,1,0,0,1-1,1H31a1,1,0,0,1-1-1V19.883a18.573,18.573,0,0,1,4,0ZM7.163,11.171A4.006,4.006,0,0,1,14,14V27.342L6,36.1V14A4.009,4.009,0,0,1,7.163,11.171ZM6.408,48.688a6.965,6.965,0,0,1-.3-9.75l11.865-12.98A19.037,19.037,0,0,1,28,20.207V21a3,3,0,0,0,3,3h.009V55H31a3,3,0,0,0-3,3v1.57A34.926,34.926,0,0,1,7.649,49.891ZM30,59.746V58a1,1,0,0,1,1-1h2a1,1,0,0,1,1,1v1.746A34.661,34.661,0,0,1,30,59.746ZM57.593,48.688l-1.241,1.2A34.929,34.929,0,0,1,36,59.57V58a3,3,0,0,0-2.99-3V24A3,3,0,0,0,36,21v-.793a19.044,19.044,0,0,1,10.024,5.751l11.865,12.98A6.965,6.965,0,0,1,57.593,48.688Z" style="fill:#1e81ce"/><path d="M29,46a6.006,6.006,0,0,0-6-6H16a3,3,0,0,0-3,3v6a3,3,0,0,0,3,3h7A6.006,6.006,0,0,0,29,46Zm-6,4H16a1,1,0,0,1-1-1V43a1,1,0,0,1,1-1h7a4,4,0,0,1,0,8Z" style="fill:#1e81ce"/><path d="M23,43a3,3,0,1,0,3,3A3,3,0,0,0,23,43Zm0,4a1,1,0,1,1,1-1A1,1,0,0,1,23,47Z" style="fill:#1e81ce"/></g></svg>
