<svg height="512" viewBox="0 0 64 64" width="512" xmlns="http://www.w3.org/2000/svg"><g id="hygiene-covid19-hand-coronavirus-handwash"><g fill="#9bc9ff"><path d="m52.938 23h-5.876a8 8 0 0 0 -7.938 8.992l2.876 23.008h16l2.876-23.008a8 8 0 0 0 -7.938-8.992zm-8.938 11h4v-4h4v4h4v4h-4v4h-4v-4h-4z"/><path d="m48 13v6h2 2v-6z"/><path d="m54 11a2 2 0 0 0 -2-2h-20a4 4 0 0 0 4 4h16a2 2 0 0 0 2-2z"/><path d="m31 23a3 3 0 0 0 6 0c0-1.657-3-5-3-5s-3 3.343-3 5z"/></g><path d="m56 33h-3v-3a1 1 0 0 0 -1-1h-4a1 1 0 0 0 -1 1v3h-3a1 1 0 0 0 -1 1v4a1 1 0 0 0 1 1h3v3a1 1 0 0 0 1 1h4a1 1 0 0 0 1-1v-3h3a1 1 0 0 0 1-1v-4a1 1 0 0 0 -1-1zm-1 4h-3a1 1 0 0 0 -1 1v3h-2v-3a1 1 0 0 0 -1-1h-3v-2h3a1 1 0 0 0 1-1v-3h2v3a1 1 0 0 0 1 1h3z" fill="#1e81ce"/><path d="m37.99 50.74a3.037 3.037 0 0 0 -2.21-2.61 2.97 2.97 0 0 0 .21-1.39 2.287 2.287 0 0 0 -.07-.36 3.162 3.162 0 0 0 1.02-1.18 3.044 3.044 0 0 0 -.61-3.36 3.151 3.151 0 0 0 .87-1.1 3.068 3.068 0 0 0 -1.32-3.92l-6.43-3.71a3.961 3.961 0 0 0 1.46-1.47l.5-.86a1.01 1.01 0 0 0 .11-.76 1.056 1.056 0 0 0 -.47-.61l-8.95-5.17a5.057 5.057 0 0 0 -3.8-.5l-.9.24a2.956 2.956 0 0 1 -2.27-.3l-4.63-2.67a1.01 1.01 0 0 0 -1.37.37l-7 12.12a1.055 1.055 0 0 0 -.1.76 1.026 1.026 0 0 0 .47.61l4.63 2.67a2.971 2.971 0 0 1 1.39 1.82l.25.91a5.164 5.164 0 0 0 1.28 2.19 2.944 2.944 0 0 1 -1.71.54h-5.34a1 1 0 0 0 -1 1v14a1 1 0 0 0 1 1h5.34a2.956 2.956 0 0 1 2.12.88l.66.66a4.994 4.994 0 0 0 3.54 1.46h14.34a3 3 0 0 0 3-3 3 3 0 0 0 -.17-1h1.17a3 3 0 0 0 3-3 2.873 2.873 0 0 0 -.21-1.1 2.942 2.942 0 0 0 1.32-.77 2.977 2.977 0 0 0 .88-2.39zm-29.86-14.94-3.76-2.17 6-10.38 3.76 2.17a5.014 5.014 0 0 0 3.79.5l.9-.25a3.035 3.035 0 0 1 2.28.31l8.08 4.66a2.009 2.009 0 0 1 -2.73.74v-.01l-2.59-1.49a1 1 0 0 0 -1.36.35 2.994 2.994 0 0 1 -2.62 1.51 3.1 3.1 0 0 1 -1.49-.39l-.86-.5a.995.995 0 1 0 -1 1.72l.86.51a5.013 5.013 0 0 0 6.24-1.03l11.26 6.51a1.067 1.067 0 0 1 .49 1.34.96.96 0 0 1 -.65.54.993.993 0 0 1 -.75-.1l-8.66-5a1 1 0 1 0 -1 1.73l8.65 5a.01.01 0 0 1 .01.01l1.64.93a1.086 1.086 0 0 1 .51 1.33.966.966 0 0 1 -.28.35 3.137 3.137 0 0 0 -1.96-.69h-.69a1.072 1.072 0 0 0 -.22-.2l-6.35-3.66a1.954 1.954 0 0 0 -.63-.14h-10.34a4.945 4.945 0 0 0 -3.13 1.13 3.051 3.051 0 0 1 -.83-1.39l-.24-.9a5.049 5.049 0 0 0 -2.33-3.04zm20.19 8.2h-2.86a4.083 4.083 0 0 0 .49-1.37zm7.37 7.71a.928.928 0 0 1 -.69.29h-12a1 1 0 0 0 0 2h10a1 1 0 0 1 1 1 .949.949 0 0 1 -.31.71.928.928 0 0 1 -.69.29h-10a1 1 0 0 0 0 2h6a1 1 0 0 1 1 1 .949.949 0 0 1 -.31.71.928.928 0 0 1 -.69.29h-14.34a2.956 2.956 0 0 1 -2.12-.88l-.66-.66a4.994 4.994 0 0 0 -3.54-1.46h-4.34v-12h4.34a4.994 4.994 0 0 0 3.54-1.46l.66-.66a2.956 2.956 0 0 1 2.12-.88h9.34a2.006 2.006 0 0 1 -2 2h-3a1 1 0 0 0 0 2h13.89a1.092 1.092 0 0 1 1.11.91.985.985 0 0 1 -.31.8.928.928 0 0 1 -.69.29h-10a1 1 0 0 0 0 2h11.89a1.092 1.092 0 0 1 1.11.91.985.985 0 0 1 -.31.8z" fill="#1e81ce"/><path d="m59.68 25.04a8.98 8.98 0 0 0 -4.68-2.79v-1.25a3.01 3.01 0 0 0 -2-2.82v-4.36a3 3 0 0 0 -1-5.82h-20a1 1 0 0 0 -1 1 5 5 0 0 0 5 5h11v4.18a3.01 3.01 0 0 0 -2 2.82v1.25a8.984 8.984 0 0 0 -6.87 9.87l2.88 23a1 1 0 0 0 .99.88h16a1 1 0 0 0 .99-.88l2.88-23a9.023 9.023 0 0 0 -2.19-7.08zm-23.68-13.04a3.014 3.014 0 0 1 -2.83-2h18.83a1 1 0 0 1 0 2zm15 8h1a1 1 0 0 1 1 1v1h-2zm-2-2v-4h2v4zm-2 3a1 1 0 0 1 1-1h1v2h-2zm12.88 10.87-2.26 18.13h-11.62a1 1 0 0 0 0 2h11.37l-.25 2h-14.24l-2.76-22.13a6.992 6.992 0 0 1 6.94-7.87h5.88a6.992 6.992 0 0 1 6.94 7.87z" fill="#1e81ce"/><path d="m33.256 17.332c-.544.606-3.256 3.727-3.256 5.668a4 4 0 0 0 8 0c0-1.941-2.712-5.062-3.256-5.668a1.031 1.031 0 0 0 -1.488 0zm.744 7.668a2 2 0 0 1 -2-2c0-.637.939-2.125 2-3.451 1.062 1.332 2 2.831 2 3.451a2 2 0 0 1 -2 2z" fill="#1e81ce"/></g></svg>