<svg height="512" viewBox="0 0 64 64" width="512" xmlns="http://www.w3.org/2000/svg"><g id="medical-virus-covid19-drug-hand"><g fill="#9bc9ff"><path d="m10.86 38.86-7.66 7.65 14.14 14.15 7.66-7.66-1.5-1.5-11-11z"/><path d="m40 30a5 5 0 0 0 10 0v-13.059l-10 .059z"/><path d="m45 3h4v6h-4z"/><path d="m41 3h-4v6h3 1z"/><path d="m49 9h1 3v-6h-4z"/><path d="m41 3h4v6h-4z"/></g><path d="m58.416 35.9a3.921 3.921 0 0 0 -1.665-1.563 4 4 0 0 0 -3.8.1l-10.037 5.79a3.967 3.967 0 0 0 -1.258-2.227 4.056 4.056 0 0 0 -2.666-1h-8.161a1 1 0 0 1 -.708-.293l-.244-.244a4.964 4.964 0 0 0 -3.532-1.463h-7.685c-.151 0-.3.01-.5.025a5 5 0 0 0 -3.039 1.438l-2.621 2.623-.933-.933a1 1 0 0 0 -1.414 0l-7.659 7.647a1 1 0 0 0 0 1.415l14.139 14.15a1 1 0 0 0 1.415 0l7.66-7.66a1 1 0 0 0 0-1.414l-.793-.793.207-.207a1 1 0 0 1 .707-.291h13.1a4.93 4.93 0 0 0 2.5-.674l15.52-8.96a3.962 3.962 0 0 0 2-3.466 4.012 4.012 0 0 0 -.533-2zm-41.076 23.346-12.725-12.736 6.244-6.237 12.727 12.727zm38.61-19.612-15.529 8.966a2.935 2.935 0 0 1 -1.491.4h-13.1a2.978 2.978 0 0 0 -2.122.879l-.207.207-9.587-9.586 2.623-2.623a2.988 2.988 0 0 1 1.807-.86c.11-.009.213-.017.316-.017h7.685a2.979 2.979 0 0 1 2.118.877l.244.244a2.978 2.978 0 0 0 2.122.879h8.161a2.053 2.053 0 0 1 1.345.5 1.965 1.965 0 0 1 .659 1.288 1.871 1.871 0 0 1 -.134.92 1.81 1.81 0 0 1 -.447.708 1.986 1.986 0 0 1 -1.413.584h-6.58a1 1 0 0 0 0 2h6.58a3.979 3.979 0 0 0 2.828-1.173 3.846 3.846 0 0 0 .78-1.113l11.338-6.546a2.006 2.006 0 0 1 1.913-.04 1.926 1.926 0 0 1 .824.77 2.025 2.025 0 0 1 .267 1 1.983 1.983 0 0 1 -1 1.736z" fill="#1e81ce"/><path d="m53 2h-16a1 1 0 0 0 -1 1v6a1 1 0 0 0 1 1h2v20a6 6 0 0 0 12 0v-20h2a1 1 0 0 0 1-1v-6a1 1 0 0 0 -1-1zm-13 6h-2v-4h2zm6-4h2v4h-2zm-4 0h2v4h-2zm7 26a4 4 0 0 1 -8 0v-12.01l8-.04zm0-14.05-8 .04v-5.99h8zm3-7.95h-2v-4h2z" fill="#1e81ce"/></g></svg>