<svg height="512" viewBox="0 0 64 64" width="512" xmlns="http://www.w3.org/2000/svg"><g id="people-virus-corona-spreading-covid19"><g fill="#9bc9ff"><path d="m17 41h-12a2.006 2.006 0 0 0 -2 2v7h4v11h8v-11h4v-7a2.006 2.006 0 0 0 -2-2z"/><path d="m38 41h-12a2.006 2.006 0 0 0 -2 2v7h4v11h8v-11h4v-7a2.006 2.006 0 0 0 -2-2z"/><path d="m59 41h-12a2.006 2.006 0 0 0 -2 2v7h4v11h8v-11h4v-7a2.006 2.006 0 0 0 -2-2z"/><path d="m14.414 12.586a2 2 0 1 0 .586 1.414 1.994 1.994 0 0 0 -.586-1.414z"/><path d="m52.414 12.586a2 2 0 1 0 .586 1.414 1.994 1.994 0 0 0 -.586-1.414z"/><path d="m32 12a2 2 0 1 0 1.414.586 1.994 1.994 0 0 0 -1.414-.586z"/><circle cx="32" cy="8" r="1"/><path d="m36.95 10.464a1 1 0 1 0 -1.414 0 1 1 0 0 0 1.414 0z"/><circle cx="38" cy="14" r="1"/><path d="m35.536 18.95a1 1 0 1 0 0-1.414 1 1 0 0 0 0 1.414z"/><circle cx="32" cy="20" r="1"/><path d="m27.05 17.536a1 1 0 1 0 1.414 0 1 1 0 0 0 -1.414 0z"/><circle cx="26" cy="14" r="1"/><path d="m28.464 9.05a1 1 0 1 0 0 1.414 1 1 0 0 0 0-1.414z"/></g><path d="m17 13h-1.184a2.746 2.746 0 0 0 -.117-.285l.836-.837a1 1 0 0 0 -1.414-1.414l-.836.837a2.746 2.746 0 0 0 -.285-.117v-1.184a1 1 0 0 0 -2 0v1.184a2.746 2.746 0 0 0 -.285.117l-.836-.837a1 1 0 0 0 -1.414 1.414l.836.837a2.746 2.746 0 0 0 -.117.285h-1.184a1 1 0 0 0 0 2h1.184a2.746 2.746 0 0 0 .117.285l-.836.837a1 1 0 1 0 1.414 1.414l.836-.837a2.746 2.746 0 0 0 .285.117v1.184a1 1 0 0 0 2 0v-1.184a2.746 2.746 0 0 0 .285-.117l.836.837a1 1 0 0 0 1.414-1.414l-.836-.837a2.746 2.746 0 0 0 .117-.285h1.184a1 1 0 0 0 0-2zm-5 1a1 1 0 1 1 1 1 1 1 0 0 1 -1-1z" fill="#1e81ce"/><path d="m55 13h-1.184a2.746 2.746 0 0 0 -.117-.285l.836-.837a1 1 0 1 0 -1.414-1.414l-.836.837a2.746 2.746 0 0 0 -.285-.117v-1.184a1 1 0 0 0 -2 0v1.184a2.746 2.746 0 0 0 -.285.117l-.836-.837a1 1 0 1 0 -1.414 1.414l.836.837a2.746 2.746 0 0 0 -.117.285h-1.184a1 1 0 0 0 0 2h1.184a2.746 2.746 0 0 0 .117.285l-.836.837a1 1 0 1 0 1.414 1.414l.836-.837a2.746 2.746 0 0 0 .285.117v1.184a1 1 0 0 0 2 0v-1.184a2.746 2.746 0 0 0 .285-.117l.836.837a1 1 0 1 0 1.414-1.414l-.836-.837a2.746 2.746 0 0 0 .117-.285h1.184a1 1 0 0 0 0-2zm-5 1a1 1 0 1 1 1 1 1 1 0 0 1 -1-1z" fill="#1e81ce"/><path d="m38 40h-3.38a4 4 0 1 0 -5.24 0h-3.38a3.009 3.009 0 0 0 -3 3v7a1 1 0 0 0 1 1h3v10a1 1 0 0 0 1 1h8a1 1 0 0 0 1-1v-10h3a1 1 0 0 0 1-1v-7a3.009 3.009 0 0 0 -3-3zm-6-5a2 2 0 1 1 -2 2 2.006 2.006 0 0 1 2-2zm7 14h-2v-4a1 1 0 0 0 -2 0v15h-2v-8a1 1 0 0 0 -2 0v8h-2v-15a1 1 0 0 0 -2 0v4h-2v-6a1 1 0 0 1 1-1h12a1 1 0 0 1 1 1z" fill="#1e81ce"/><path d="m59 40h-3.38a4 4 0 1 0 -5.24 0h-3.38a3.009 3.009 0 0 0 -3 3v7a1 1 0 0 0 1 1h3v10a1 1 0 0 0 1 1h8a1 1 0 0 0 1-1v-10h3a1 1 0 0 0 1-1v-7a3.009 3.009 0 0 0 -3-3zm-6-5a2 2 0 1 1 -2 2 2.006 2.006 0 0 1 2-2zm7 14h-2v-4a1 1 0 0 0 -2 0v15h-2v-8a1 1 0 0 0 -2 0v8h-2v-15a1 1 0 0 0 -2 0v4h-2v-6a1 1 0 0 1 1-1h12a1 1 0 0 1 1 1z" fill="#1e81ce"/><path d="m17 40h-3.38a4 4 0 1 0 -5.24 0h-3.38a3.009 3.009 0 0 0 -3 3v7a1 1 0 0 0 1 1h3v10a1 1 0 0 0 1 1h8a1 1 0 0 0 1-1v-10h3a1 1 0 0 0 1-1v-7a3.009 3.009 0 0 0 -3-3zm-6-5a2 2 0 1 1 -2 2 2.006 2.006 0 0 1 2-2zm7 14h-2v-4a1 1 0 0 0 -2 0v15h-2v-8a1 1 0 0 0 -2 0v8h-2v-15a1 1 0 0 0 -2 0v4h-2v-6a1 1 0 0 1 1-1h12a1 1 0 0 1 1 1z" fill="#1e81ce"/><path d="m59 2h-54a3 3 0 0 0 -3 3v18a3 3 0 0 0 3 3h2.421l2.68 4.511a1 1 0 0 0 .854.489h.005a1 1 0 0 0 .855-.482l2.739-4.518h13.867l2.68 4.511a1 1 0 0 0 .854.489h.005a1 1 0 0 0 .855-.482l2.739-4.518h13.867l2.68 4.511a1 1 0 0 0 .854.489h.005a1 1 0 0 0 .855-.482l2.739-4.518h2.446a3 3 0 0 0 3-3v-18a3 3 0 0 0 -3-3zm1 21a1 1 0 0 1 -1 1h-3.01a1 1 0 0 0 -.855.482l-2.166 3.574-2.119-3.567a1 1 0 0 0 -.86-.489h-15a1 1 0 0 0 -.855.482l-2.166 3.574-2.119-3.567a1 1 0 0 0 -.86-.489h-15a1 1 0 0 0 -.855.482l-2.166 3.574-2.119-3.567a1 1 0 0 0 -.86-.489h-2.99a1 1 0 0 1 -1-1v-18a1 1 0 0 1 1-1h54a1 1 0 0 1 1 1z" fill="#1e81ce"/><path d="m38 12a1.993 1.993 0 0 0 -1.722 1h-1.462a2.746 2.746 0 0 0 -.117-.285l1.033-1.033a2.022 2.022 0 0 0 .511.074 1.988 1.988 0 0 0 1.414-.585 2 2 0 1 0 -3.34-.9l-1.032 1.029a2.746 2.746 0 0 0 -.285-.116v-1.462a2 2 0 1 0 -2 0v1.462a2.746 2.746 0 0 0 -.285.117l-1.033-1.033a1.993 1.993 0 1 0 -1.925 1.488 2.022 2.022 0 0 0 .511-.074l1.032 1.033a2.746 2.746 0 0 0 -.117.285h-1.461a2 2 0 1 0 0 2h1.462a2.746 2.746 0 0 0 .117.285l-1.033 1.033a1.993 1.993 0 0 0 -1.925.511 2 2 0 1 0 3.34.9l1.032-1.029a2.746 2.746 0 0 0 .285.117v1.462a2 2 0 1 0 2 0v-1.463a2.746 2.746 0 0 0 .285-.117l1.033 1.033a2 2 0 1 0 1.413-1.414l-1.031-1.033a2.746 2.746 0 0 0 .116-.285h1.462a2 2 0 1 0 1.722-3zm-5 2a1 1 0 1 1 -1-1 1 1 0 0 1 1 1z" fill="#1e81ce"/></g></svg>