<svg height="512" viewBox="0 0 64 64" width="512" xmlns="http://www.w3.org/2000/svg"><g id="people-virus-covid19-tempurature-scan"><path d="m5 51h24a10 10 0 0 1 10 10 0 0 0 0 1 0 0h-36a0 0 0 0 1 0 0v-8a2 2 0 0 1 2-2z" fill="#9bc9ff"/><path d="m8.157 22.223a1.975 1.975 0 0 0 -.157.777 1.989 1.989 0 0 1 .157-.777z" fill="#9bc9ff"/><path d="m10 21a1.975 1.975 0 0 0 -.777.157 1.989 1.989 0 0 1 .777-.157z" fill="#9bc9ff"/><path d="m10 30a2.006 2.006 0 0 1 -2-2 2 2 0 0 0 2 2z" fill="#9bc9ff"/><path d="m8.157 22.223a2.08 2.08 0 0 1 1.066-1.066 2 2 0 0 0 -1.066 1.066z" fill="#9bc9ff"/><path d="m8 28v-5a1.975 1.975 0 0 1 .157-.777 2 2 0 0 1 1.066-1.066 1.975 1.975 0 0 1 .777-.157v-7a3 3 0 0 1 3-3h18a6 6 0 0 0 6-6v-2h-24a10 10 0 0 0 -10 10v16.2a14.007 14.007 0 0 0 2.95 8.59l4.05 5.21v-13a2 2 0 0 1 -2-2z" fill="#9bc9ff"/><path d="m47 9v6h4 4v5 11h6v-18l-6-4z" fill="#9bc9ff"/><g fill="#1e81ce"><path d="m21.465 18.878a5 5 0 0 0 7.069 0l.172-.171a1 1 0 1 0 -1.412-1.416l-.173.172a3.069 3.069 0 0 1 -4.243 0l-.172-.171a1 1 0 1 0 -1.412 1.416z"/><path d="m29 50h-2v-6h5a1 1 0 0 0 1-1v-12h3a.983.983 0 0 0 .81-.42 1 1 0 0 0 .14-.9l-2.95-8.84v-5.84a4.975 4.975 0 0 0 -1.22-3.24 7.006 7.006 0 0 0 5.22-6.76v-2a1 1 0 0 0 -1-1h-24a11.007 11.007 0 0 0 -11 11v16.2a15.051 15.051 0 0 0 3.16 9.2l3.84 4.94v6.66h-4a3.009 3.009 0 0 0 -3 3v8a1 1 0 0 0 2 0v-8a1 1 0 0 1 1-1h24a9.014 9.014 0 0 1 9 9 1 1 0 0 0 2 0 11.007 11.007 0 0 0 -11-11zm-20-9.92-2.26-2.9a13.069 13.069 0 0 1 -2.74-7.98v-16.2a9.014 9.014 0 0 1 9-9h23v1a5 5 0 0 1 -5 5h-18a4 4 0 0 0 -4 4v6.17a3.014 3.014 0 0 0 -2 2.83v5a3.014 3.014 0 0 0 2 2.83zm9 1.92a1 1 0 0 0 0 2h7v6h-14v-19h1a1 1 0 0 0 0-2h-2a1 1 0 0 1 -1-1v-5a.949.949 0 0 1 .31-.71.928.928 0 0 1 .69-.29h2a1 1 0 0 0 0-2h-1v-6a2.006 2.006 0 0 1 2-2h16a3.009 3.009 0 0 1 3 3v6a1.185 1.185 0 0 0 .05.32l2.56 7.68h-2.61a1 1 0 0 0 -1 1v5.97l-4 .02h-.01a1.98 1.98 0 0 1 -1.99-1.99 1 1 0 0 0 -2 0 3.978 3.978 0 0 0 3.99 3.99h.01l4-.02v4.03z"/><path d="m54.95 47.636-4.95 4.95-2.121-2.122a1 1 0 1 0 -1.414 1.414l2.828 2.829a1 1 0 0 0 1.414 0l5.657-5.657a1 1 0 0 0 -1.414-1.414z"/><path d="m57 34h2v2h-2z"/><path d="m57 38h2v2h-2z"/><path d="m37 46h2v2h-2z"/><path d="m33 46h2v2h-2z"/><path d="m29 46h2v2h-2z"/><path d="m38 11h2v2h-2z"/><path d="m42 11h2v2h-2z"/><path d="m51 40a11 11 0 1 0 11 11 11.013 11.013 0 0 0 -11-11zm0 20a9 9 0 1 1 9-9 9.01 9.01 0 0 1 -9 9z"/><path d="m61.55 12.17-6-4a.967.967 0 0 0 -.55-.17h-8a1 1 0 0 0 -1 1v6a1 1 0 0 0 1 1h3.32l1.75 4.37a1 1 0 0 0 .93.63h1v10a1 1 0 0 0 1 1h6a1 1 0 0 0 1-1v-18a1 1 0 0 0 -.45-.83zm-7.55 6.83h-.32l-1.2-3h1.52zm6 11h-4v-15a1 1 0 0 0 -1-1h-7v-4h6.7l5.3 3.54z"/></g></g></svg>