<svg height="512" viewBox="0 0 64 64" width="512" xmlns="http://www.w3.org/2000/svg"><g id="people-virus-mask-protect-covid19"><g fill="#9bc9ff"><path d="m27 11a3 3 0 0 0 -3 3 3 3 0 0 1 3-3z"/><path d="m24 33h-.594a3 3 0 0 1 -2.928-2.349l-.937-4.217a2 2 0 0 1 1.952-2.434h2.507v-10a3 3 0 0 1 3-3h18a6 6 0 0 0 6-6v-2h-26a10 10 0 0 0 -10 10v18.2a14.007 14.007 0 0 0 2.95 8.59l6.05 5.21z"/><path d="m48 24h-11a2 2 0 0 0 -2 2v13a4 4 0 0 0 4 4h1.288a8 8 0 0 0 7.878-6.61l1.834-10.39a2 2 0 0 0 -2-2z"/><path d="m49 51h-9a12.148 12.148 0 0 1 -16 0h-9a10 10 0 0 0 -10 10h54a10 10 0 0 0 -10-10z"/></g><path d="m42.536 18.878.171-.171a1 1 0 0 0 -1.414-1.414l-.171.171a3 3 0 0 1 -4.244 0l-.171-.171a1 1 0 0 0 -1.414 1.414l.171.171a5 5 0 0 0 7.072 0z" fill="#1e81ce"/><path d="m49 50h-8v-3h1a3.009 3.009 0 0 0 3-3v-1.34a8.964 8.964 0 0 0 4.15-6.1l1.83-10.39a.468.468 0 0 0 .02-.17 3 3 0 0 0 -2.24-2.89l-.76-2.27v-5.84a4.975 4.975 0 0 0 -1.22-3.24 7.006 7.006 0 0 0 5.22-6.76v-2a1 1 0 0 0 -1-1h-26a11.007 11.007 0 0 0 -11 11v18.2a15.051 15.051 0 0 0 3.16 9.2 1 1 0 0 0 .14.15l5.7 4.91v4.54h-8a11.007 11.007 0 0 0 -11 11 1 1 0 0 0 2 0 9.014 9.014 0 0 1 9-9h8.25c.99 1.97 4.89 3 8.75 3s7.76-1.03 8.75-3h8.25a9.014 9.014 0 0 1 9 9 1 1 0 0 0 2 0 11.007 11.007 0 0 0 -11-11zm-1-25a1 1 0 0 1 1 .93l-1.82 10.29a6.986 6.986 0 0 1 -6.89 5.78h-1.29a3.009 3.009 0 0 1 -3-3v-13a1 1 0 0 1 1-1zm-1.95-3.68.56 1.68h-9.61a3.017 3.017 0 0 0 -2.73 1.77l-9.27-2.53v-8.24a2.006 2.006 0 0 1 2-2h16a3.009 3.009 0 0 1 3 3v6a1.185 1.185 0 0 0 .05.32zm-23.05 21.5-4.32-3.72a13.056 13.056 0 0 1 -2.68-7.9v-18.2a9.014 9.014 0 0 1 9-9h25v1a5 5 0 0 1 -5 5h-18a4 4 0 0 0 -4 4v9h-1.51a3 3 0 0 0 -2.93 3.65l.94 4.22a3.975 3.975 0 0 0 3.5 3.1zm.41-10.82a1.992 1.992 0 0 1 -1.96-1.57l-.93-4.21a1 1 0 0 1 .19-.85 1.022 1.022 0 0 1 .78-.37h2.51a.987.987 0 0 0 .94-.71l9.06 2.47v10.87l-9-3.3v-.33a1 1 0 0 0 0-2zm10.59 13a1 1 0 0 0 0 2h5v4c0 .58-2.45 2-7 2s-7-1.42-7-2v-14.54l9.08 3.33a4.991 4.991 0 0 0 4.92 4.21h1.29a9.034 9.034 0 0 0 2.71-.42v.42a1 1 0 0 1 -1 1z" fill="#1e81ce"/></g></svg>