<svg height="512" viewBox="0 0 64 64" width="512" xmlns="http://www.w3.org/2000/svg"><g id="people-virus-tempurature-scan-covid19"><g fill="#9bc9ff"><path d="m8.157 22.223a1.975 1.975 0 0 0 -.157.777 1.989 1.989 0 0 1 .157-.777z"/><path d="m10 21a1.975 1.975 0 0 0 -.777.157 1.989 1.989 0 0 1 .777-.157z"/><path d="m5 51h24a10 10 0 0 1 10 10 0 0 0 0 1 0 0h-36a0 0 0 0 1 0 0v-8a2 2 0 0 1 2-2z"/><path d="m8 28v-5a1.975 1.975 0 0 1 .157-.777 2 2 0 0 1 1.066-1.066 1.975 1.975 0 0 1 .777-.157v-7a3 3 0 0 1 3-3h18a6 6 0 0 0 6-6v-2h-24a10 10 0 0 0 -10 10v16.2a14.007 14.007 0 0 0 2.95 8.59l4.05 5.21v-13a2 2 0 0 1 -2-2z"/><path d="m10 30a2.006 2.006 0 0 1 -2-2 2 2 0 0 0 2 2z"/><path d="m8.157 22.223a2.08 2.08 0 0 1 1.066-1.066 2 2 0 0 0 -1.066 1.066z"/><path d="m47 9v6h4 4v5 11h6v-18l-6-4z"/><path d="m51 49a2 2 0 1 0 1.414.586 1.994 1.994 0 0 0 -1.414-.586z"/><circle cx="51" cy="45" r="1"/><path d="m55.95 47.464a1 1 0 1 0 -1.414 0 1 1 0 0 0 1.414 0z"/><circle cx="57" cy="51" r="1"/><path d="m54.536 55.95a1 1 0 1 0 0-1.414 1 1 0 0 0 0 1.414z"/><circle cx="51" cy="57" r="1"/><path d="m46.05 54.536a1 1 0 1 0 1.414 0 1 1 0 0 0 -1.414 0z"/><circle cx="45" cy="51" r="1"/><path d="m47.464 46.05a1 1 0 1 0 0 1.414 1 1 0 0 0 0-1.414z"/></g><path d="m29 50h-2v-6h5a1 1 0 0 0 1-1v-12h3a.983.983 0 0 0 .81-.42 1 1 0 0 0 .14-.9l-2.95-8.84v-5.84a4.975 4.975 0 0 0 -1.22-3.24 7.006 7.006 0 0 0 5.22-6.76v-2a1 1 0 0 0 -1-1h-24a11.007 11.007 0 0 0 -11 11v16.2a15.051 15.051 0 0 0 3.16 9.2l3.84 4.94v6.66h-4a3.009 3.009 0 0 0 -3 3v8a1 1 0 0 0 2 0v-8a1 1 0 0 1 1-1h24a9.014 9.014 0 0 1 9 9 1 1 0 0 0 2 0 11.007 11.007 0 0 0 -11-11zm-20-9.92-2.26-2.9a13.069 13.069 0 0 1 -2.74-7.98v-16.2a9.014 9.014 0 0 1 9-9h23v1a5 5 0 0 1 -5 5h-18a4 4 0 0 0 -4 4v6.17a3.014 3.014 0 0 0 -2 2.83v5a3.014 3.014 0 0 0 2 2.83zm9 1.92a1 1 0 0 0 0 2h7v6h-14v-19h1a1 1 0 0 0 0-2h-2a1 1 0 0 1 -1-1v-5a.949.949 0 0 1 .31-.71.928.928 0 0 1 .69-.29h2a1 1 0 0 0 0-2h-1v-6a2.006 2.006 0 0 1 2-2h16a3.009 3.009 0 0 1 3 3v6a1.185 1.185 0 0 0 .05.32l2.56 7.68h-2.61a1 1 0 0 0 -1 1v4.03l-4-.02h-.01a3.978 3.978 0 0 0 -3.99 3.99 1 1 0 0 0 2 0 1.98 1.98 0 0 1 1.99-1.99h.01l4 .02v5.97z" fill="#1e81ce"/><path d="m51 40a11 11 0 1 0 11 11 11.013 11.013 0 0 0 -11-11zm0 20a9 9 0 1 1 9-9 9.01 9.01 0 0 1 -9 9z" fill="#1e81ce"/><path d="m61.55 12.17-6-4a.967.967 0 0 0 -.55-.17h-8a1 1 0 0 0 -1 1v6a1 1 0 0 0 1 1h3.32l1.75 4.37a1 1 0 0 0 .93.63h1v10a1 1 0 0 0 1 1h6a1 1 0 0 0 1-1v-18a1 1 0 0 0 -.45-.83zm-7.55 6.83h-.32l-1.2-3h1.52zm6 11h-4v-15a1 1 0 0 0 -1-1h-7v-4h6.7l5.3 3.54z" fill="#1e81ce"/><path d="m57 34h2v2h-2z" fill="#1e81ce"/><path d="m57 38h2v2h-2z" fill="#1e81ce"/><path d="m37 46h2v2h-2z" fill="#1e81ce"/><path d="m33 46h2v2h-2z" fill="#1e81ce"/><path d="m29 46h2v2h-2z" fill="#1e81ce"/><path d="m22 19h5.132l-.964 1.445a1 1 0 0 0 1.664 1.11l2-3a1 1 0 0 0 -.832-1.555h-7a1 1 0 0 0 0 2z" fill="#1e81ce"/><path d="m55.278 50h-1.462a2.746 2.746 0 0 0 -.117-.285l1.033-1.033a2.022 2.022 0 0 0 .511.074 1.988 1.988 0 0 0 1.414-.585 2 2 0 1 0 -3.34-.9l-1.032 1.029a2.746 2.746 0 0 0 -.285-.116v-1.462a2 2 0 1 0 -2 0v1.462a2.746 2.746 0 0 0 -.285.117l-1.033-1.033a1.993 1.993 0 1 0 -1.925 1.488 2.022 2.022 0 0 0 .511-.074l1.032 1.033a2.746 2.746 0 0 0 -.117.285h-1.461a2 2 0 1 0 0 2h1.462a2.746 2.746 0 0 0 .117.285l-1.033 1.033a1.993 1.993 0 0 0 -1.925.511 2 2 0 1 0 3.34.9l1.032-1.029a2.746 2.746 0 0 0 .285.117v1.462a2 2 0 1 0 2 0v-1.463a2.746 2.746 0 0 0 .285-.117l1.033 1.033a2 2 0 1 0 1.413-1.414l-1.031-1.033a2.746 2.746 0 0 0 .116-.285h1.462a2 2 0 1 0 0-2zm-3.278 1a1 1 0 1 1 -1-1 1 1 0 0 1 1 1z" fill="#1e81ce"/><path d="m38 11h2v2h-2z" fill="#1e81ce"/><path d="m42 11h2v2h-2z" fill="#1e81ce"/><path d="m55 6a1 1 0 0 0 1-1v-2a1 1 0 0 0 -2 0v2a1 1 0 0 0 1 1z" fill="#1e81ce"/><path d="m57.828 7.171a.993.993 0 0 0 .707-.293l1.414-1.414a1 1 0 1 0 -1.414-1.414l-1.414 1.414a1 1 0 0 0 .707 1.707z" fill="#1e81ce"/><path d="m51.465 6.878a1 1 0 0 0 1.414-1.414l-1.414-1.414a1 1 0 1 0 -1.414 1.414z" fill="#1e81ce"/></g></svg>