<svg height="512" viewBox="0 0 64 64" width="512" xmlns="http://www.w3.org/2000/svg"><g id="safee-virus-covid19-protect-hand"><g fill="#9bc9ff"><path d="m16 8v13.859a18 18 0 0 0 9.971 16.11l6.082 3.031 6.018-3.019a18 18 0 0 0 9.929-16.089v-13.892l-16-5zm28 14a12 12 0 1 1 -12-12 12 12 0 0 1 12 12z"/><path d="m28 22a4 4 0 1 0 1.172-2.828 3.984 3.984 0 0 0 -1.172 2.828z"/><circle cx="32" cy="14" r="1"/><path d="m27.05 15.636a1 1 0 1 0 0 1.414 1 1 0 0 0 0-1.414z"/><circle cx="24" cy="22" r="1"/><path d="m25.636 26.95a1 1 0 1 0 1.414 0 1 1 0 0 0 -1.414 0z"/><circle cx="32" cy="30" r="1"/><path d="m36.95 28.364a1 1 0 1 0 0-1.414 1 1 0 0 0 0 1.414z"/><circle cx="40" cy="22" r="1"/><path d="m38.364 17.05a1 1 0 1 0 -1.414 0 1 1 0 0 0 1.414 0z"/></g><path d="m40 20a1.993 1.993 0 0 0 -1.722 1h-1.378a4.961 4.961 0 0 0 -.732-1.753l.978-.978a1.95 1.95 0 0 0 1.926-.512 2 2 0 0 0 0-2.827 2.046 2.046 0 0 0 -2.828 0 1.95 1.95 0 0 0 -.512 1.926l-.978.978a4.961 4.961 0 0 0 -1.754-.734v-1.378a2 2 0 1 0 -2 0v1.378a4.961 4.961 0 0 0 -1.753.732l-.978-.978a1.95 1.95 0 0 0 -.512-1.926 2.046 2.046 0 0 0 -2.827 0 1.989 1.989 0 0 0 1.925 3.34l.978.978a4.961 4.961 0 0 0 -.733 1.754h-1.378a2 2 0 1 0 0 2h1.378a4.961 4.961 0 0 0 .732 1.753l-.991.99a2.032 2.032 0 0 0 -1.913.5 2.012 2.012 0 1 0 3.34.9l.978-.978a4.961 4.961 0 0 0 1.754.735v1.379a2 2 0 1 0 2 0v-1.379a4.961 4.961 0 0 0 1.753-.732l.978.978a1.95 1.95 0 0 0 .512 1.926 2 2 0 1 0 2.828-2.828 2.029 2.029 0 0 0 -1.913-.5l-.991-.99a4.961 4.961 0 0 0 .733-1.754h1.379a2 2 0 1 0 1.721-3zm-8 5a3 3 0 1 1 3-3 3 3 0 0 1 -3 3z" fill="#1e81ce"/><path d="m58.582 25.922a4.1 4.1 0 0 0 -4.732 3.043l-2.364 8.806a3.911 3.911 0 0 0 -4.2-.134l-7.852 4.6a11.039 11.039 0 0 0 -5.434 9.492v9.271a1 1 0 0 0 2 0v-9.271a9.034 9.034 0 0 1 4.449-7.764l7.845-4.6a2 2 0 1 1 2 3.464l-5.731 3.309a1 1 0 1 0 1 1.732l5.731-3.309a4 4 0 0 0 1.742-4.848l2.746-10.231a2.119 2.119 0 0 1 2.387-1.6 2.007 2.007 0 0 1 1.591 1.948 1.983 1.983 0 0 1 -.066.521l-4.35 16.233a2.992 2.992 0 0 1 -.905 1.465l-6.761 6.01a5.009 5.009 0 0 0 -1.678 3.741v3.2a1 1 0 0 0 2 0v-3.2a3 3 0 0 1 1.007-2.242l6.762-6.01a4.992 4.992 0 0 0 1.507-2.448l4.35-16.231a4.007 4.007 0 0 0 -3.044-4.948z" fill="#1e81ce"/><path d="m24.563 42.24-7.857-4.606a3.911 3.911 0 0 0 -4.192.137l-2.364-8.806a4.1 4.1 0 0 0 -4.732-3.043 4.006 4.006 0 0 0 -3.044 4.947l4.35 16.231a4.992 4.992 0 0 0 1.507 2.443l6.762 6.01a3 3 0 0 1 1.007 2.247v3.2a1 1 0 0 0 2 0v-3.2a5.009 5.009 0 0 0 -1.678-3.737l-6.761-6.01a2.99 2.99 0 0 1 -.9-1.466l-4.355-16.237a1.97 1.97 0 0 1 -.066-.52 2.007 2.007 0 0 1 1.591-1.951 2.126 2.126 0 0 1 2.387 1.6l2.746 10.232a4 4 0 0 0 1.742 4.847l5.731 3.309a1 1 0 1 0 1-1.732l-5.731-3.308a2 2 0 0 1 1.994-3.464l7.851 4.6a9.034 9.034 0 0 1 4.449 7.766v9.271a1 1 0 0 0 2 0v-9.271a11.039 11.039 0 0 0 -5.437-9.489z" fill="#1e81ce"/><path d="m32 9a13 13 0 1 0 13 13 13.015 13.015 0 0 0 -13-13zm0 24a11 11 0 1 1 11-11 11.013 11.013 0 0 1 -11 11z" fill="#1e81ce"/><path d="m32.053 42a1 1 0 0 1 -.446-.1l-6.081-3.031a18.892 18.892 0 0 1 -10.526-17.01v-13.859a1 1 0 0 1 .7-.955l16-5a1.009 1.009 0 0 1 .6 0l16 5a1 1 0 0 1 .7.955v13.892a18.9 18.9 0 0 1 -10.48 16.983l-6.02 3.019a1.007 1.007 0 0 1 -.447.106zm-15.053-33.265v13.124a16.905 16.905 0 0 0 9.417 15.215l5.635 2.808 5.571-2.795a16.91 16.91 0 0 0 9.377-15.195v-13.157l-15-4.687z" fill="#1e81ce"/></g></svg>