<svg height="512" viewBox="0 0 64 64" width="512" xmlns="http://www.w3.org/2000/svg"><g id="virus-cell-covid19-corona-lab"><g fill="#9bc9ff"><path d="m51.54 45.56a9.961 9.961 0 0 0 3.46-7.56v-4a10 10 0 0 0 -8.85-9.93l.07-6.02a15.99 15.99 0 0 1 14.78 15.95v6a13.982 13.982 0 0 1 -6.02 11.5z"/><path d="m59 53h-4.349a5.992 5.992 0 0 1 -11.3 0h-28.351a2 2 0 0 0 -2 2v6h48v-6a2 2 0 0 0 -2-2z"/><path d="m35 21a6 6 0 0 1 6-6v-4h-14v20h14v-4a6 6 0 0 1 -6-6z"/><path d="m13 15a2 2 0 1 0 -1.414-.586 1.994 1.994 0 0 0 1.414.586z"/><circle cx="13" cy="7" r="1"/><path d="m17.95 9.464a1 1 0 1 0 -1.414 0 1 1 0 0 0 1.414 0z"/><circle cx="19" cy="13" r="1"/><path d="m16.536 17.95a1 1 0 1 0 0-1.414 1 1 0 0 0 0 1.414z"/><circle cx="13" cy="19" r="1"/><path d="m8.05 16.536a1 1 0 1 0 1.414 0 1 1 0 0 0 -1.414 0z"/><circle cx="7" cy="13" r="1"/><path d="m9.464 8.05a1 1 0 1 0 0 1.414 1 1 0 0 0 0-1.414z"/><path d="m39 5v-2h-10v2a2 2 0 0 0 2 2h6a2 2 0 0 0 2-2z"/><path d="m30 41h2 4 2v-6h-8z"/><circle cx="41" cy="21" r="2"/><circle cx="49" cy="51" r="2"/></g><path d="m24 13a11 11 0 1 0 -11 11 11.013 11.013 0 0 0 11-11zm-20 0a9 9 0 1 1 9 9 9.01 9.01 0 0 1 -9-9z" fill="#1e81ce"/><path d="m15 19a1.993 1.993 0 0 0 -1-1.722v-1.462a2.746 2.746 0 0 0 .285-.117l1.033 1.033a2 2 0 1 0 1.413-1.414l-1.031-1.033a2.746 2.746 0 0 0 .116-.285h1.462a2 2 0 1 0 0-2h-1.462a2.746 2.746 0 0 0 -.117-.285l1.033-1.033a2.022 2.022 0 0 0 .511.074 1.988 1.988 0 0 0 1.414-.585 2 2 0 1 0 -3.34-.9l-1.032 1.029a2.746 2.746 0 0 0 -.285-.116v-1.462a2 2 0 1 0 -2 0v1.462a2.746 2.746 0 0 0 -.285.117l-1.033-1.033a1.993 1.993 0 1 0 -1.925 1.488 2.022 2.022 0 0 0 .511-.074l1.032 1.033a2.746 2.746 0 0 0 -.117.285h-1.461a2 2 0 1 0 0 2h1.462a2.746 2.746 0 0 0 .117.285l-1.033 1.033a1.993 1.993 0 0 0 -1.925.511 2 2 0 1 0 3.34.9l1.032-1.029a2.746 2.746 0 0 0 .285.117v1.462a2 2 0 1 0 3 1.721zm-1-6a1 1 0 1 1 -1-1 1 1 0 0 1 1 1z" fill="#1e81ce"/><path d="m62 40v-6a17.051 17.051 0 0 0 -15.18-16.88 6.981 6.981 0 0 0 -4.82-3.04v-3.08a1 1 0 0 0 -1-1h-3v-2.18a3.01 3.01 0 0 0 2-2.82v-2a1 1 0 0 0 -1-1h-10a1 1 0 0 0 -1 1v2a3.01 3.01 0 0 0 2 2.82v2.18h-3a1 1 0 0 0 -1 1v20a1 1 0 0 0 1 1v3a1 1 0 0 0 1 1h1v5a1 1 0 0 0 1 1h1v3a1 1 0 0 0 1 1h4a1 1 0 0 0 1-1v-3h1a1 1 0 0 0 1-1v-5h1a1 1 0 0 0 1-1v-3a1 1 0 0 0 1-1v-3.08a7.01 7.01 0 0 0 4.62-2.76 8.982 8.982 0 0 1 7.38 8.84v4a8.972 8.972 0 0 1 -2.69 6.4 7.1 7.1 0 0 0 -2.31-.4 7.008 7.008 0 0 0 -7 7 6.634 6.634 0 0 0 .08 1h-27.08a3.009 3.009 0 0 0 -3 3v6a1 1 0 0 0 1 1h48a1 1 0 0 0 1-1v-6a3.009 3.009 0 0 0 -3-3h-3.04a15.013 15.013 0 0 0 6.04-12zm-32-36h8v1a1 1 0 0 1 -1 1h-6a1 1 0 0 1 -1-1zm6 4v2h-4v-2zm-1 36h-2v-2h2zm2-4h-6v-4h6zm2-6h-10v-2h10zm1-4h-12v-18h12v2.08a6.991 6.991 0 0 0 0 13.84zm1-4a5 5 0 1 1 5-5 5 5 0 0 1 -5 5zm8 20a5 5 0 1 1 -5 5 5 5 0 0 1 5-5zm10 8a1 1 0 0 1 1 1v5h-46v-5a1 1 0 0 1 1-1h27.69a6.977 6.977 0 0 0 12.62 0zm-3.16-4.49a7.031 7.031 0 0 0 -2.69-4.13 10.988 10.988 0 0 0 2.85-7.38v-4a10.991 10.991 0 0 0 -8.4-10.68 7.155 7.155 0 0 0 .4-2.32 6.566 6.566 0 0 0 -.23-1.73 15.05 15.05 0 0 1 12.23 14.73v6a13.022 13.022 0 0 1 -4.16 9.51z" fill="#1e81ce"/><path d="m41 18a3 3 0 1 0 3 3 3 3 0 0 0 -3-3zm0 4a1 1 0 1 1 1-1 1 1 0 0 1 -1 1z" fill="#1e81ce"/><path d="m49 54a3 3 0 1 0 -3-3 3 3 0 0 0 3 3zm0-4a1 1 0 1 1 -1 1 1 1 0 0 1 1-1z" fill="#1e81ce"/><path d="m35 50a1 1 0 0 0 0-2h-2a1 1 0 0 0 0 2z" fill="#1e81ce"/><path d="m29 50a1 1 0 0 0 0-2h-2a1 1 0 0 0 0 2z" fill="#1e81ce"/><path d="m21 48a1 1 0 0 0 0 2h2a1 1 0 0 0 0-2z" fill="#1e81ce"/><path d="m15 50h2a1 1 0 0 0 0-2h-2a1 1 0 0 0 0 2z" fill="#1e81ce"/><path d="m13 30a1 1 0 0 0 1-1v-2a1 1 0 0 0 -2 0v2a1 1 0 0 0 1 1z" fill="#1e81ce"/><path d="m12 35a1 1 0 0 0 2 0v-2a1 1 0 0 0 -2 0z" fill="#1e81ce"/><path d="m12 41a1 1 0 0 0 2 0v-2a1 1 0 0 0 -2 0z" fill="#1e81ce"/><path d="m12 47a1 1 0 0 0 2 0v-2a1 1 0 0 0 -2 0z" fill="#1e81ce"/></g></svg>