<svg height="512" viewBox="0 0 64 64" width="512" xmlns="http://www.w3.org/2000/svg"><g id="virus-covid19-corona-ambulance-mobilephone"><path d="m47 24a2 2 0 0 0 -2 2v2h4v-2a2 2 0 0 0 -2-2z" fill="#9bc9ff"/><path d="m15.464 13.05a1 1 0 1 0 0 1.414 1 1 0 0 0 0-1.414z" fill="none"/><circle cx="19" cy="12" fill="none" r="1"/><path d="m19 16a2 2 0 1 0 1.414.586 1.994 1.994 0 0 0 -1.414-.586z" fill="none"/><path d="m14.05 21.536a1 1 0 1 0 1.414 0 1 1 0 0 0 -1.414 0z" fill="none"/><circle cx="19" cy="24" fill="none" r="1"/><path d="m22.536 22.95a1 1 0 1 0 0-1.414 1 1 0 0 0 0 1.414z" fill="none"/><circle cx="13" cy="18" fill="none" r="1"/><path d="m23.95 14.464a1 1 0 1 0 -1.414 0 1 1 0 0 0 1.414 0z" fill="none"/><circle cx="25" cy="18" fill="none" r="1"/><path d="m19 16a2 2 0 1 0 1.414.586 1.994 1.994 0 0 0 -1.414-.586z" fill="#9bc9ff"/><circle cx="19" cy="12" fill="#9bc9ff" r="1"/><path d="m23.95 14.464a1 1 0 1 0 -1.414 0 1 1 0 0 0 1.414 0z" fill="#9bc9ff"/><circle cx="25" cy="18" fill="#9bc9ff" r="1"/><path d="m22.536 22.95a1 1 0 1 0 0-1.414 1 1 0 0 0 0 1.414z" fill="#9bc9ff"/><circle cx="19" cy="24" fill="#9bc9ff" r="1"/><path d="m14.05 21.536a1 1 0 1 0 1.414 0 1 1 0 0 0 -1.414 0z" fill="#9bc9ff"/><circle cx="13" cy="18" fill="#9bc9ff" r="1"/><path d="m15.464 13.05a1 1 0 1 0 0 1.414 1 1 0 0 0 0-1.414z" fill="#9bc9ff"/><path d="m55.923 31 3.077 10z" fill="#9bc9ff"/><path d="m14 37h-4v3h-3v4h3v3h4v-3h3v-4h-3z" fill="none"/><path d="m23 38h5v6h-5z" fill="none"/><path d="m32 38h5v6h-5z" fill="none"/><path d="m55 56a4.979 4.979 0 0 1 -.422 2h4.422a2 2 0 0 0 2-2v-2h-6.422a4.979 4.979 0 0 1 .422 2z" fill="#9bc9ff"/><path d="m13.422 54h-10.422v2a2 2 0 0 0 2 2h8.422a4.95 4.95 0 0 1 0-4z" fill="#9bc9ff"/><path d="m45.422 54h-22.844a4.95 4.95 0 0 1 0 4h22.844a4.95 4.95 0 0 1 0-4z" fill="#9bc9ff"/><path d="m59 41h-12a2.006 2.006 0 0 1 -2-2v-6a2.006 2.006 0 0 1 2-2h8.923l-.054-.176a4 4 0 0 0 -3.823-2.824h-23.046v3a2 2 0 0 1 -2 2h-16a2 2 0 0 1 -2-2v-3h-6v26h10.422a4.993 4.993 0 0 1 9.156 0h22.844a4.993 4.993 0 0 1 9.156 0h6.422v-3h-2a2 2 0 0 1 0-4h2v-4a2 2 0 0 0 -2-2zm-42 3h-3v3h-4v-3h-3v-4h3v-3h4v3h3zm11 0h-5v-6h5zm9 0h-5v-6h5z" fill="#9bc9ff"/><circle cx="50" cy="56" fill="#9bc9ff" r="1"/><circle cx="18" cy="56" fill="#9bc9ff" r="1"/><g fill="#1e81ce"><path d="m59.79 40.11-2.77-10a.578.578 0 0 0 -.05-.14 5.015 5.015 0 0 0 -4.57-2.97h-2.4v-1a3 3 0 0 0 -6 0v1h-14v-22a3.009 3.009 0 0 0 -3-3h-16a3.009 3.009 0 0 0 -3 3v22h-3a3.009 3.009 0 0 0 -3 3v26a3.009 3.009 0 0 0 3 3h7.81a5.989 5.989 0 0 0 10.38 0h21.62a5.989 5.989 0 0 0 10.38 0h3.81a3.009 3.009 0 0 0 3-3v-13a3 3 0 0 0 -2.21-2.89zm-2.11-.11h-10.68a1 1 0 0 1 -1-1v-6a1 1 0 0 1 1-1h8.47zm-11.68-14a1 1 0 0 1 2 0v1h-2zm-36-21a1 1 0 0 1 1-1h16a1 1 0 0 1 1 1v26a1 1 0 0 1 -1 1h-16a1 1 0 0 1 -1-1zm2.09 52h-7.09a1 1 0 0 1 -1-1v-1h8.09a5.6 5.6 0 0 0 0 2zm5.91 3a4 4 0 1 1 4-4 4 4 0 0 1 -4 4zm26.09-3h-20.18a5.6 5.6 0 0 0 0-2h20.18a5.6 5.6 0 0 0 0 2zm5.91 3a4 4 0 1 1 4-4 4 4 0 0 1 -4 4zm10-4a1 1 0 0 1 -1 1h-3.09a5.6 5.6 0 0 0 0-2h4.09zm0-6h-1a1 1 0 0 1 0-2h1zm0-4h-1a3 3 0 0 0 0 6h1v1h-4.81a5.989 5.989 0 0 0 -10.38 0h-21.62a5.989 5.989 0 0 0 -10.38 0h-8.81v-23a1 1 0 0 1 1-1h3v2a3.009 3.009 0 0 0 3 3h16a3.009 3.009 0 0 0 3-3v-2h22.4a3.026 3.026 0 0 1 2.24 1h-7.64a3.009 3.009 0 0 0 -3 3v6a3.009 3.009 0 0 0 3 3h12a1 1 0 0 1 1 1z"/><path d="m47 45h2a1 1 0 0 0 0-2h-2a1 1 0 0 0 0 2z"/><path d="m7 45h2v2a1 1 0 0 0 1 1h4a1 1 0 0 0 1-1v-2h2a1 1 0 0 0 1-1v-4a1 1 0 0 0 -1-1h-2v-2a1 1 0 0 0 -1-1h-4a1 1 0 0 0 -1 1v2h-2a1 1 0 0 0 -1 1v4a1 1 0 0 0 1 1zm1-4h2a1 1 0 0 0 1-1v-2h2v2a1 1 0 0 0 1 1h2v2h-2a1 1 0 0 0 -1 1v2h-2v-2a1 1 0 0 0 -1-1h-2z"/><path d="m48 21v-2a1 1 0 0 0 -2 0v2a1 1 0 0 0 2 0z"/><path d="m42.757 23.757a1 1 0 0 0 .707-1.707l-1.414-1.414a1 1 0 0 0 -1.414 1.414l1.414 1.414a1 1 0 0 0 .707.293z"/><path d="m51.95 23.464 1.414-1.414a1 1 0 0 0 -1.414-1.414l-1.414 1.414a1 1 0 1 0 1.414 1.414z"/><path d="m18 7h2a1 1 0 0 0 0-2h-2a1 1 0 0 0 0 2z"/><path d="m21 29h-4a1 1 0 0 0 0 2h4a1 1 0 0 0 0-2z"/><path d="m13 20a1.993 1.993 0 0 0 1.722-1h1.462a2.746 2.746 0 0 0 .117.285l-1.033 1.033a2 2 0 1 0 1.414 1.414l1.033-1.032a2.746 2.746 0 0 0 .285.117v1.462a2 2 0 1 0 2 0v-1.463a2.746 2.746 0 0 0 .285-.117l1.033 1.033a2 2 0 1 0 1.414-1.414l-1.032-1.033a2.746 2.746 0 0 0 .116-.285h1.462a2 2 0 1 0 0-2h-1.462a2.746 2.746 0 0 0 -.117-.285l1.033-1.033a2.016 2.016 0 0 0 .511.074 2 2 0 1 0 -1.925-1.488l-1.033 1.032a2.746 2.746 0 0 0 -.285-.116v-1.462a2 2 0 1 0 -2 0v1.462a2.746 2.746 0 0 0 -.285.117l-1.033-1.033a1.993 1.993 0 1 0 -1.925 1.488 2.016 2.016 0 0 0 .511-.074l1.032 1.033a2.746 2.746 0 0 0 -.117.285h-1.461a2 2 0 1 0 -1.722 3zm5-2a1 1 0 1 1 1 1 1 1 0 0 1 -1-1z"/><path d="m59 2h-19a3.009 3.009 0 0 0 -3 3v.43l-4.51 2.71a1 1 0 0 0 0 1.72l4.51 2.71v.43a3.009 3.009 0 0 0 3 3h19a3.009 3.009 0 0 0 3-3v-8a3.009 3.009 0 0 0 -3-3zm1 11a1 1 0 0 1 -1 1h-19a1 1 0 0 1 -1-1v-1a.99.99 0 0 0 -.49-.86l-3.57-2.14 3.57-2.14a.99.99 0 0 0 .49-.86v-1a1 1 0 0 1 1-1h19a1 1 0 0 1 1 1z"/><path d="m43 6h-1a1 1 0 0 0 0 2h1a1 1 0 0 0 0-2z"/><path d="m57 6h-10a1 1 0 0 0 0 2h10a1 1 0 0 0 0-2z"/><path d="m43 10h-1a1 1 0 0 0 0 2h1a1 1 0 0 0 0-2z"/><path d="m57 10h-10a1 1 0 0 0 0 2h10a1 1 0 0 0 0-2z"/><path d="m23 45h5a1 1 0 0 0 1-1v-6a1 1 0 0 0 -1-1h-5a1 1 0 0 0 -1 1v6a1 1 0 0 0 1 1zm1-6h3v4h-3z"/><path d="m32 45h5a1 1 0 0 0 1-1v-6a1 1 0 0 0 -1-1h-5a1 1 0 0 0 -1 1v6a1 1 0 0 0 1 1zm1-6h3v4h-3z"/><path d="m41 51a1 1 0 0 0 1-1v-18a1 1 0 0 0 -2 0v18a1 1 0 0 0 1 1z"/><circle cx="50" cy="56" r="2"/><circle cx="18" cy="56" r="2"/></g></g></svg>