<svg height="512" viewBox="0 0 64 64" width="512" xmlns="http://www.w3.org/2000/svg"><g id="virus-covid19-corona-breath-tempurature"><path d="m10 21a1.975 1.975 0 0 0 -.777.157 1.989 1.989 0 0 1 .777-.157z" fill="#9bc9ff"/><path d="m8.157 22.223a1.975 1.975 0 0 0 -.157.777 1.989 1.989 0 0 1 .157-.777z" fill="#9bc9ff"/><path d="m5 51h24a10 10 0 0 1 10 10 0 0 0 0 1 0 0h-36a0 0 0 0 1 0 0v-8a2 2 0 0 1 2-2z" fill="#9bc9ff"/><circle cx="55" cy="48" fill="#9bc9ff" r="1"/><path d="m50.3 50.134a1 1 0 1 0 .37 1.366 1 1 0 0 0 -.37-1.366z" fill="#9bc9ff"/><path d="m49.3 56.134a1 1 0 1 0 1.366.366 1 1 0 0 0 -1.366-.366z" fill="#9bc9ff"/><circle cx="55" cy="60" fill="#9bc9ff" r="1"/><path d="m60.7 56.134a1 1 0 1 0 .366 1.366 1 1 0 0 0 -.366-1.366z" fill="#9bc9ff"/><path d="m59.7 50.134a1 1 0 1 0 1.366.366 1 1 0 0 0 -1.366-.366z" fill="#9bc9ff"/><circle cx="55" cy="34" fill="none" r="1"/><path d="m58 30v-10.99l-6-.01v11a5 5 0 1 0 6 0zm-3 5a1 1 0 1 1 1-1 1 1 0 0 1 -1 1zm0-7 2.905.011zm0-3 2.905.011zm0-3 2.905.011z" fill="#9bc9ff"/><circle cx="55" cy="34" fill="#9bc9ff" r="1"/><path d="m10 30a2.006 2.006 0 0 1 -2-2 2 2 0 0 0 2 2z" fill="#9bc9ff"/><path d="m8.157 22.223a2.08 2.08 0 0 1 1.066-1.066 2 2 0 0 0 -1.066 1.066z" fill="#9bc9ff"/><path d="m8 28v-5a1.975 1.975 0 0 1 .157-.777 2 2 0 0 1 1.066-1.066 1.975 1.975 0 0 1 .777-.157v-7a3 3 0 0 1 3-3h18a6 6 0 0 0 6-6v-2h-24a10 10 0 0 0 -10 10v16.2a14.007 14.007 0 0 0 2.95 8.59l4.05 5.21v-13a2 2 0 0 1 -2-2z" fill="#9bc9ff"/><circle cx="55" cy="54" fill="#9bc9ff" r="2"/><g fill="#1e81ce"><path d="m61.2 52.732a2 2 0 1 0 -2.995-1.732l-1.269.732a3 3 0 0 0 -.936-.548v-1.462a2 2 0 1 0 -2 0v1.462a3 3 0 0 0 -.936.543l-1.264-.727a2 2 0 1 0 -1 1.732l1.26.728a2.728 2.728 0 0 0 0 1.09l-1.26.728a2 2 0 1 0 1 1.732l1.269-.732a3 3 0 0 0 .936.543v1.462a2 2 0 1 0 2 0v-1.467a3 3 0 0 0 .936-.543l1.269.732a2 2 0 1 0 1-1.732l-1.26-.728a2.728 2.728 0 0 0 0-1.09l1.26-.728a1.991 1.991 0 0 0 1.99.005zm-6.2 2.268a1 1 0 1 1 1-1 1 1 0 0 1 -1 1z"/><path d="m59 29.53v-17.53a4 4 0 0 0 -8 0v17.53a6 6 0 1 0 8 0zm-6-17.53a2.006 2.006 0 0 1 2-2 2.015 2.015 0 0 1 2 2v.01l-2-.01v2l2 .01v1l-2-.01v2l2 .01v1l-4-.01zm2 26a4 4 0 0 1 -2.4-7.2 1.014 1.014 0 0 0 .4-.8v-10l4 .01v1l-2-.01v2l2 .01v1l-2-.01v2l2 .01v1l-2-.01v2l2 .01v.99a1.014 1.014 0 0 0 .4.8 4 4 0 0 1 -2.4 7.2z"/><circle cx="55" cy="34" r="2"/><path d="m55 6a1 1 0 0 0 1-1v-2a1 1 0 0 0 -2 0v2a1 1 0 0 0 1 1z"/><path d="m49.343 7.757a1 1 0 0 0 1.414-1.414l-1.414-1.414a1 1 0 0 0 -1.414 1.414z"/><path d="m59.95 8.05a1 1 0 0 0 .707-.293l1.414-1.414a1 1 0 1 0 -1.414-1.414l-1.414 1.414a1 1 0 0 0 .707 1.707z"/><path d="m24.105 21.447a1 1 0 0 0 1.342.448l4-2a1 1 0 0 0 0-1.79l-4-2a1 1 0 1 0 -.894 1.79l2.211 1.105-2.211 1.105a1 1 0 0 0 -.448 1.342z"/><path d="m29 50h-2v-6h5a1 1 0 0 0 1-1v-4a1 1 0 0 0 -1-1h-4a2.006 2.006 0 0 1 -1.99-2.15 2.121 2.121 0 0 1 2.16-1.85h3.83a1 1 0 0 0 1-1v-2h3a.983.983 0 0 0 .81-.42 1 1 0 0 0 .14-.9l-2.95-8.84v-5.84a4.975 4.975 0 0 0 -1.22-3.24 7.006 7.006 0 0 0 5.22-6.76v-2a1 1 0 0 0 -1-1h-24a11.007 11.007 0 0 0 -11 11v16.2a15.051 15.051 0 0 0 3.16 9.2l3.84 4.94v6.66h-4a3.009 3.009 0 0 0 -3 3v8a1 1 0 0 0 2 0v-8a1 1 0 0 1 1-1h24a9.014 9.014 0 0 1 9 9 1 1 0 0 0 2 0 11.007 11.007 0 0 0 -11-11zm-20-9.92-2.26-2.9a13.069 13.069 0 0 1 -2.74-7.98v-16.2a9.014 9.014 0 0 1 9-9h23v1a5 5 0 0 1 -5 5h-18a4 4 0 0 0 -4 4v6.17a3.014 3.014 0 0 0 -2 2.83v5a3.014 3.014 0 0 0 2 2.83zm9 1.92a1 1 0 0 0 0 2h7v6h-14v-19h1a1 1 0 0 0 0-2h-2a1 1 0 0 1 -1-1v-5a.949.949 0 0 1 .31-.71.928.928 0 0 1 .69-.29h2a1 1 0 0 0 0-2h-1v-6a2.006 2.006 0 0 1 2-2h16a3.009 3.009 0 0 1 3 3v6a1.185 1.185 0 0 0 .05.32l2.56 7.68h-2.61a1 1 0 0 0 -1 1v2h-2.83a4.111 4.111 0 0 0 -4.16 3.71 4 4 0 0 0 3.99 4.29h3v2z"/><path d="m32 35a1 1 0 0 0 0 2h10a1 1 0 0 0 0-2z"/><path d="m40 39h-4a1 1 0 0 0 0 2h4a3 3 0 0 1 3 3v4a1 1 0 0 0 2 0v-4a5.006 5.006 0 0 0 -5-5z"/><path d="m39 33h3a5.006 5.006 0 0 0 5-5v-1a1 1 0 0 0 -2 0v1a3 3 0 0 1 -3 3h-3a1 1 0 0 0 0 2z"/><path d="m44 51a1 1 0 0 0 -1 1v1a1 1 0 0 0 2 0v-1a1 1 0 0 0 -1-1z"/><path d="m44 56a1 1 0 0 0 -1 1v1a1 1 0 0 0 2 0v-1a1 1 0 0 0 -1-1z"/><path d="m47 35h-1a1 1 0 0 0 0 2h1a1 1 0 0 0 0-2z"/></g></g></svg>