<svg height="512" viewBox="0 0 64 64" width="512" xmlns="http://www.w3.org/2000/svg"><g id="virus-covid19-corona-bus-car"><g fill="#9bc9ff"><path d="m47 43v-6a2 2 0 0 1 2-2h8.481a15.957 15.957 0 0 0 -12.481-6h-40a2.006 2.006 0 0 0 -2 2v4h12a2 2 0 0 1 2 2v6a2 2 0 0 1 -2 2h-12v8a2.006 2.006 0 0 0 2 2h5a5 5 0 0 1 10 0h24a5 5 0 0 1 10 0h5a2.006 2.006 0 0 0 2-2v-8h-12a2 2 0 0 1 -2-2zm-18 0a2 2 0 0 1 -2 2h-4a2 2 0 0 1 -2-2v-6a2 2 0 0 1 2-2h4a2 2 0 0 1 2 2zm12 0a2 2 0 0 1 -2 2h-4a2 2 0 0 1 -2-2v-6a2 2 0 0 1 2-2h4a2 2 0 0 1 2 2z"/><path d="m32 11a3 3 0 0 0 -2.121 5.121 3 3 0 0 0 4.242 0 3 3 0 0 0 -2.121-5.121z"/><circle cx="32" cy="7" r="1"/><path d="m27.757 8.343a1 1 0 1 0 0 1.414 1 1 0 0 0 0-1.414z"/><circle cx="25" cy="14" r="1"/><path d="m26.343 18.243a1 1 0 1 0 1.414 0 1 1 0 0 0 -1.414 0z"/><circle cx="32" cy="21" r="1"/><path d="m36.243 19.657a1 1 0 1 0 0-1.414 1 1 0 0 0 0 1.414z"/><circle cx="39" cy="14" r="1"/><path d="m37.657 9.757a1 1 0 1 0 -1.414 0 1 1 0 0 0 1.414 0z"/></g><path d="m58.28 34.42a.71.71 0 0 0 -.1-.14 16.97 16.97 0 0 0 -13.18-6.28h-12v-2.05a12 12 0 1 0 -2 0v2.05h-26a3.009 3.009 0 0 0 -3 3v22a3.009 3.009 0 0 0 3 3h4.09a5.993 5.993 0 0 0 11.82 0h22.18a5.993 5.993 0 0 0 11.82 0h4.09a3.009 3.009 0 0 0 3-3v-8a16.892 16.892 0 0 0 -3.72-10.58zm-1.31 1.58a14.939 14.939 0 0 1 2.98 8h-10.95a1 1 0 0 1 -1-1v-6a1 1 0 0 1 1-1zm-34.97-22a10 10 0 1 1 10 10 10.016 10.016 0 0 1 -10-10zm-18 22h11a1 1 0 0 1 1 1v6a1 1 0 0 1 -1 1h-11zm11 23a4 4 0 1 1 4-4 4 4 0 0 1 -4 4zm34 0a4 4 0 1 1 4-4 4 4 0 0 1 -4 4zm11-6a1 1 0 0 1 -1 1h-4.09a5.993 5.993 0 0 0 -11.82 0h-22.18a5.993 5.993 0 0 0 -11.82 0h-4.09a1 1 0 0 1 -1-1v-7h11a3.009 3.009 0 0 0 3-3v-6a3.009 3.009 0 0 0 -3-3h-11v-3a1 1 0 0 1 1-1h40a14.932 14.932 0 0 1 10.16 4h-6.16a3.009 3.009 0 0 0 -3 3v6a3.009 3.009 0 0 0 3 3h11z" fill="#1e81ce"/><path d="m27 34h-4a3 3 0 0 0 -3 3v6a3 3 0 0 0 3 3h4a3 3 0 0 0 3-3v-6a3 3 0 0 0 -3-3zm1 9a1 1 0 0 1 -1 1h-4a1 1 0 0 1 -1-1v-6a1 1 0 0 1 1-1h4a1 1 0 0 1 1 1z" fill="#1e81ce"/><path d="m39 34h-4a3 3 0 0 0 -3 3v6a3 3 0 0 0 3 3h4a3 3 0 0 0 3-3v-6a3 3 0 0 0 -3-3zm1 9a1 1 0 0 1 -1 1h-4a1 1 0 0 1 -1-1v-6a1 1 0 0 1 1-1h4a1 1 0 0 1 1 1z" fill="#1e81ce"/><path d="m34 21a1.993 1.993 0 0 0 -1-1.722v-1.42a3.915 3.915 0 0 0 1.019-.425l1.006 1.007a2 2 0 0 0 .509 1.923 2 2 0 1 0 .9-3.339l-1.006-1.006a3.915 3.915 0 0 0 .43-1.018h1.42a2 2 0 1 0 0-2h-1.42a3.915 3.915 0 0 0 -.425-1.019l1.006-1.006a2.015 2.015 0 0 0 .51.074 2.006 2.006 0 1 0 -1.923-1.489l-1.007 1.007a3.915 3.915 0 0 0 -1.019-.425v-1.42a2 2 0 1 0 -2 0v1.42a3.915 3.915 0 0 0 -1.019.425l-1.006-1.007a2 2 0 0 0 -.509-1.923 2 2 0 1 0 -1.415 3.413 2.022 2.022 0 0 0 .511-.074l1.006 1.006a3.915 3.915 0 0 0 -.426 1.018h-1.42a2 2 0 1 0 0 2h1.42a3.915 3.915 0 0 0 .425 1.019l-1.006 1.006a2 2 0 1 0 1.413 1.415l1.007-1.007a3.915 3.915 0 0 0 1.019.425v1.42a2 2 0 1 0 3 1.722zm-4-7a2 2 0 1 1 2 2 2 2 0 0 1 -2-2z" fill="#1e81ce"/></g></svg>