<svg height="512" viewBox="0 0 64 64" width="512" xmlns="http://www.w3.org/2000/svg"><g id="virus-covid19-corona-clean-handwash"><path d="m27 21v3h10v-3h-2-6z" fill="#9bc9ff"/><path d="m47 7a5.01 5.01 0 0 0 -4 2h-6a8 8 0 0 0 -8 8v4h6v-4a2 2 0 0 1 2-2h6a5 5 0 0 0 8 0h10v-6h-10a5.01 5.01 0 0 0 -4-2z" fill="#9bc9ff"/><g fill="#1e81ce"><path d="m57 40h-1a3.989 3.989 0 0 0 -2 .54v-7.43a3.073 3.073 0 0 0 -2.74-3.1 2.97 2.97 0 0 0 -1.39.21 3.048 3.048 0 0 0 -2.61-2.21 3 3 0 0 0 -2.37.86 3.063 3.063 0 0 0 -.79 1.34 3.067 3.067 0 0 0 -3.21.66 2.971 2.971 0 0 0 -.89 2.13v1.17a3.072 3.072 0 0 0 -3.11.7 2.971 2.971 0 0 0 -.89 2.13v14.34a4.994 4.994 0 0 0 1.46 3.54l.66.66a3 3 0 0 1 .88 2.12v3.34a1 1 0 0 0 1 1h14a1 1 0 0 0 1-1v-3.34a3 3 0 0 1 .88-2.12l.66-.66a4.994 4.994 0 0 0 1.46-3.54v-10.34a1 1 0 0 0 -1-1zm-1 11.34a3 3 0 0 1 -.88 2.12l-.66.66a4.994 4.994 0 0 0 -1.46 3.54v2.34h-12v-2.34a4.994 4.994 0 0 0 -1.46-3.54l-.66-.66a3 3 0 0 1 -.88-2.12v-14.34a.949.949 0 0 1 .31-.71.928.928 0 0 1 .69-.29 1 1 0 0 1 1 1v6a1 1 0 0 0 2 0v-10a.949.949 0 0 1 .31-.71.928.928 0 0 1 .69-.29 1 1 0 0 1 1 1v10a1 1 0 0 0 2 0v-12a.949.949 0 0 1 .31-.71.926.926 0 0 1 .78-.29 1.092 1.092 0 0 1 .91 1.11v11.89a1 1 0 0 0 2 0v-10a1.028 1.028 0 0 1 1.09-1 1.092 1.092 0 0 1 .91 1.11v12.99a5.009 5.009 0 0 0 -4 4.9v1a1 1 0 0 0 2 0v-1a3.009 3.009 0 0 1 3-3 1 1 0 0 0 1-1v-3a2.006 2.006 0 0 1 2-2z"/><path d="m27.13 34.89a3.066 3.066 0 0 0 -3.13-.72v-1.17a2.954 2.954 0 0 0 -.87-2.11 3.061 3.061 0 0 0 -3.23-.68 2.942 2.942 0 0 0 -.77-1.32 2.989 2.989 0 0 0 -2.39-.88 3.037 3.037 0 0 0 -2.61 2.21 2.97 2.97 0 0 0 -1.39-.21 3.073 3.073 0 0 0 -2.74 3.1v7.43a3.989 3.989 0 0 0 -2-.54h-1a1 1 0 0 0 -1 1v10.34a4.994 4.994 0 0 0 1.46 3.54l.66.66a3 3 0 0 1 .88 2.12v3.34a1 1 0 0 0 1 1h14a1 1 0 0 0 1-1v-3.34a3 3 0 0 1 .88-2.12l.66-.66a4.994 4.994 0 0 0 1.46-3.54v-14.34a2.954 2.954 0 0 0 -.87-2.11zm-1.13 16.45a3 3 0 0 1 -.88 2.12l-.66.66a4.994 4.994 0 0 0 -1.46 3.54v2.34h-12v-2.34a4.994 4.994 0 0 0 -1.46-3.54l-.66-.66a3 3 0 0 1 -.88-2.12v-9.34a2.006 2.006 0 0 1 2 2v3a1 1 0 0 0 1 1 3.009 3.009 0 0 1 3 3v1a1 1 0 0 0 2 0v-1a5.009 5.009 0 0 0 -4-4.9v-12.99a1.092 1.092 0 0 1 .91-1.11.985.985 0 0 1 .8.31.928.928 0 0 1 .29.69v10a1 1 0 0 0 2 0v-11.89a1.092 1.092 0 0 1 .91-1.11.985.985 0 0 1 .8.31.928.928 0 0 1 .29.69v12a1 1 0 0 0 2 0v-10a1 1 0 0 1 1-1 .949.949 0 0 1 .71.31.928.928 0 0 1 .29.69v10a1 1 0 0 0 2 0v-6a1 1 0 0 1 1-1 .949.949 0 0 1 .71.31.928.928 0 0 1 .29.69z"/><path d="m61 3a1 1 0 0 0 -1 1v4h-8.53a6.07 6.07 0 0 0 -3.47-1.91v-2.09h3a1 1 0 0 0 0-2h-8a1 1 0 0 0 0 2h3v2.09a6.07 6.07 0 0 0 -3.47 1.91h-5.53a9.014 9.014 0 0 0 -9 9v3h-1a1 1 0 0 0 -1 1v3a1 1 0 0 0 1 1h10a1 1 0 0 0 1-1v-3a1 1 0 0 0 -1-1h-1v-3a1 1 0 0 1 1-1h5.53a6 6 0 0 0 8.94 0h8.53v4a1 1 0 0 0 2 0v-16a1 1 0 0 0 -1-1zm-25 20h-8v-1h8zm24-9h-9a1.014 1.014 0 0 0 -.8.4 4 4 0 0 1 -6.4 0 1.014 1.014 0 0 0 -.8-.4h-6a3.009 3.009 0 0 0 -3 3v3h-4v-3a7.008 7.008 0 0 1 7-7h6a1.014 1.014 0 0 0 .8-.4 4 4 0 0 1 6.4 0 1.014 1.014 0 0 0 .8.4h9z"/><path d="m32.744 26.332a1.031 1.031 0 0 0 -1.488 0c-.544.606-3.256 3.727-3.256 5.668a4 4 0 0 0 8 0c0-1.941-2.712-5.062-3.256-5.668zm-.744 7.668a2 2 0 0 1 -2-2c0-.637.939-2.125 2-3.451 1.062 1.332 2 2.831 2 3.451a2 2 0 0 1 -2 2z"/></g></g></svg>