<svg height="512" viewBox="0 0 64 64" width="512" xmlns="http://www.w3.org/2000/svg"><g id="virus-covid19-corona-coronavirus-cell"><path d="m19.979 44.021-.707.707a17.944 17.944 0 0 0 12.728 5.272 17.944 17.944 0 0 0 12.728-5.272l-.707-.707.707.707a17.944 17.944 0 0 0 5.272-12.728 17.944 17.944 0 0 0 -5.272-12.728l-.707.707.707-.707a17.944 17.944 0 0 0 -12.728-5.272 17.944 17.944 0 0 0 -12.728 5.272l.707.707-.707-.707a17.944 17.944 0 0 0 -5.272 12.728 17.944 17.944 0 0 0 5.272 12.728zm19.681-18.753a2 2 0 1 1 -.732 2.732 2 2 0 0 1 .732-2.732zm-.732 10.732a2 2 0 1 1 .732 2.732 2 2 0 0 1 -.732-2.732zm-6.928-16a2 2 0 1 1 -2 2 2 2 0 0 1 2-2zm0 10a2 2 0 1 1 -2 2 2 2 0 0 1 2-2zm0 10a2 2 0 1 1 -2 2 2 2 0 0 1 2-2zm-10.392-14a2 2 0 1 1 .732 2.732 2 2 0 0 1 -.732-2.732zm.732 9.268a2 2 0 1 1 -.732 2.732 2 2 0 0 1 .732-2.732z" fill="#9bc9ff"/><g fill="#1e81ce"><path d="m58 28a4 4 0 0 0 -3.858 3h-3.193a18.892 18.892 0 0 0 -4.849-11.688l2.262-2.262a4 4 0 1 0 -1.414-1.414l-2.26 2.264a18.892 18.892 0 0 0 -11.688-4.849v-3.193a4 4 0 1 0 -2 0v3.193a18.892 18.892 0 0 0 -11.688 4.849l-2.262-2.264a4 4 0 1 0 -1.414 1.414l2.264 2.262a18.892 18.892 0 0 0 -4.849 11.688h-3.193a4 4 0 1 0 0 2h3.193a18.892 18.892 0 0 0 4.849 11.688l-2.264 2.262a4 4 0 1 0 1.414 1.414l2.262-2.264a18.892 18.892 0 0 0 11.688 4.849v3.193a4 4 0 1 0 2 0v-3.193a18.892 18.892 0 0 0 11.688-4.849l2.262 2.262a4 4 0 1 0 1.414-1.414l-2.264-2.26a18.892 18.892 0 0 0 4.849-11.688h3.193a3.993 3.993 0 1 0 3.858-5zm-52 6a2 2 0 1 1 2-2 2 2 0 0 1 -2 2zm42.971-21.8a2 2 0 1 1 0 2.828 2 2 0 0 1 0-2.828zm-18.971-6.2a2 2 0 1 1 2 2 2 2 0 0 1 -2-2zm-17.8 9.029a2 2 0 1 1 2.828 0 2 2 0 0 1 -2.828 0zm19.8-.029a17 17 0 1 1 -17 17 17.019 17.019 0 0 1 17-17zm-16.971 36.8a2 2 0 1 1 0-2.828 2 2 0 0 1 0 2.828zm18.971 6.2a2 2 0 1 1 -2-2 2 2 0 0 1 2 2zm17.8-9.029a2 2 0 1 1 -2.828 0 2 2 0 0 1 2.828 0zm6.2-14.971a2 2 0 1 1 2-2 2 2 0 0 1 -2 2z"/><path d="m32 25a3 3 0 1 0 -3-3 3 3 0 0 0 3 3zm0-4a1 1 0 1 1 -1 1 1 1 0 0 1 1-1z"/><path d="m25.938 28.5a3 3 0 1 0 -4.1 1.1 3 3 0 0 0 4.1-1.1zm-3.464-2a1 1 0 1 1 .366 1.366 1 1 0 0 1 -.366-1.366z"/><path d="m25.938 35.5a3 3 0 1 0 -1.1 4.1 3 3 0 0 0 1.1-4.1zm-3.464 2a1 1 0 1 1 1.366.366 1 1 0 0 1 -1.366-.366z"/><path d="m32 39a3 3 0 1 0 3 3 3 3 0 0 0 -3-3zm0 4a1 1 0 1 1 1-1 1 1 0 0 1 -1 1z"/><path d="m38.062 35.5a3 3 0 1 0 4.1-1.1 3 3 0 0 0 -4.1 1.1zm3.464 2a1 1 0 1 1 -.366-1.366 1 1 0 0 1 .366 1.366z"/><path d="m38.062 28.5a3 3 0 1 0 1.1-4.1 3 3 0 0 0 -1.1 4.1zm3.464-2a1 1 0 1 1 -1.366-.366 1 1 0 0 1 1.366.366z"/><path d="m32 35a3 3 0 1 0 -3-3 3 3 0 0 0 3 3zm0-4a1 1 0 1 1 -1 1 1 1 0 0 1 1-1z"/></g></g></svg>