<svg height="512" viewBox="0 0 64 64" width="512" xmlns="http://www.w3.org/2000/svg"><g id="virus-covid19-corona-coronavirus-handwash"><g fill="#9bc9ff"><path d="m27 21v3h3 4 3v-3h-2-6z"/><path d="m47 7a5.01 5.01 0 0 0 -4 2h-6a8 8 0 0 0 -8 8v4h6v-4a2 2 0 0 1 2-2h6a5 5 0 0 0 8 0h10v-6h-10a5.01 5.01 0 0 0 -4-2z"/><path d="m15 34h-4v18h4v-2-14z"/><path d="m11 32h-8v22h8v-2-18z"/></g><path d="m61 3a1 1 0 0 0 -1 1v4h-8.53a6.07 6.07 0 0 0 -3.47-1.91v-2.09h3a1 1 0 0 0 0-2h-8a1 1 0 0 0 0 2h3v2.09a6.07 6.07 0 0 0 -3.47 1.91h-5.53a9.014 9.014 0 0 0 -9 9v3h-1a1 1 0 0 0 -1 1v3a1 1 0 0 0 1 1h2v7h-4.34a4.994 4.994 0 0 0 -3.54 1.46l-.66.66a3 3 0 0 1 -2.12.88h-2.34v-1a1 1 0 0 0 -1-1h-3v-1a1 1 0 0 0 -1-1h-8a1 1 0 0 0 -1 1v22a1 1 0 0 0 1 1h8a1 1 0 0 0 1-1v-1h3a1 1 0 0 0 1-1v-1h2.34a3 3 0 0 1 2.12.88l.66.66a4.994 4.994 0 0 0 3.54 1.46h4.34a8 8 0 0 0 15.94.96 11 11 0 0 0 -.52-21.95 8.029 8.029 0 0 0 -7.42-5.01 7.836 7.836 0 0 0 -2 .26v-3.26h2a1 1 0 0 0 1-1v-3a1 1 0 0 0 -1-1h-1v-3a1 1 0 0 1 1-1h5.53a6 6 0 0 0 8.94 0h8.53v4a1 1 0 0 0 2 0v-16a1 1 0 0 0 -1-1zm-51 50h-6v-20h6zm4-2h-2v-16h2zm10.66 1a3 3 0 0 1 -2.12-.88l-.66-.66a4.994 4.994 0 0 0 -3.54-1.46h-2.34v-12h2.34a4.994 4.994 0 0 0 3.54-1.46l.66-.66a3 3 0 0 1 2.12-.88h9.34a2.006 2.006 0 0 1 -2 2h-3a1 1 0 0 0 -1 1 3.009 3.009 0 0 1 -3 3h-1a1 1 0 0 0 0 2h1a5.009 5.009 0 0 0 4.9-4h12.99a1.092 1.092 0 0 1 1.11.91.985.985 0 0 1 -.31.8.928.928 0 0 1 -.69.29h-10a1 1 0 0 0 0 2h11.89a1.092 1.092 0 0 1 1.11.91.985.985 0 0 1 -.31.8.928.928 0 0 1 -.69.29h-12a1 1 0 0 0 0 2h10a1 1 0 0 1 1 1 .949.949 0 0 1 -.31.71.928.928 0 0 1 -.69.29h-10a1 1 0 0 0 0 2h6a1 1 0 0 1 1 1 .949.949 0 0 1 -.31.71.928.928 0 0 1 -.69.29zm6.34-20v-7h2v7zm6-2a6.006 6.006 0 0 1 5.75 4.29.985.985 0 0 0 1.07.71h.18a9 9 0 0 1 0 18 1 1 0 0 0 -1 1 6 6 0 0 1 -12 0h8a3 3 0 0 0 3-3 3 3 0 0 0 -.17-1h1.17a3 3 0 0 0 3-3 2.873 2.873 0 0 0 -.21-1.1 2.942 2.942 0 0 0 1.32-.77 2.977 2.977 0 0 0 .88-2.39 3.037 3.037 0 0 0 -2.21-2.61 2.97 2.97 0 0 0 .21-1.39 3.073 3.073 0 0 0 -3.1-2.74h-7.43a3.989 3.989 0 0 0 .54-2v-1a1 1 0 0 0 -1-1v-1.65a5.8 5.8 0 0 1 2-.35zm-1-7h-8v-1h8zm24-9h-9a1.014 1.014 0 0 0 -.8.4 4 4 0 0 1 -6.4 0 1.014 1.014 0 0 0 -.8-.4h-6a3.009 3.009 0 0 0 -3 3v3h-4v-3a7.008 7.008 0 0 1 7-7h6a1.014 1.014 0 0 0 .8-.4 4 4 0 0 1 6.4 0 1.014 1.014 0 0 0 .8.4h9z" fill="#1e81ce"/><path d="m54 26a4 4 0 1 0 4 4 4 4 0 0 0 -4-4zm0 6a2 2 0 1 1 2-2 2 2 0 0 1 -2 2z" fill="#1e81ce"/><path d="m57 52a5 5 0 1 0 5 5 5.006 5.006 0 0 0 -5-5zm0 8a3 3 0 1 1 3-3 3 3 0 0 1 -3 3z" fill="#1e81ce"/><path d="m59 36a3 3 0 1 0 3 3 3 3 0 0 0 -3-3zm0 4a1 1 0 1 1 1-1 1 1 0 0 1 -1 1z" fill="#1e81ce"/></g></svg>