<svg height="512" viewBox="0 0 64 64" width="512" xmlns="http://www.w3.org/2000/svg"><g id="virus-covid19-corona-coronavirus-location"><g fill="#9bc9ff"><path d="m11 24c0 11.6 21 37 21 37s21-25.4 21-37a21 21 0 0 0 -42 0zm36-1a15 15 0 1 1 -15-15 15 15 0 0 1 15 15z"/><path d="m38 23a6.009 6.009 0 1 1 -1.76-4.24 5.944 5.944 0 0 1 1.76 4.24z"/><circle cx="32" cy="13" r="1"/><path d="m25.636 15.222a1 1 0 1 0 0 1.414 1 1 0 0 0 0-1.414z"/><circle cx="22" cy="23" r="1"/><path d="m24.222 29.364a1 1 0 1 0 1.414 0 1 1 0 0 0 -1.414 0z"/><circle cx="32" cy="33" r="1"/><path d="m38.364 30.778a1 1 0 1 0 0-1.414 1 1 0 0 0 0 1.414z"/><circle cx="42" cy="23" r="1"/><path d="m39.778 16.636a1 1 0 1 0 -1.414 0 1 1 0 0 0 1.414 0z"/><circle cx="30" cy="22" r="1"/><circle cx="34" cy="24" r="1"/></g><path d="m32 2a22.025 22.025 0 0 0 -22 22c0 11.822 20.362 36.589 21.229 37.637a1 1 0 0 0 1.542 0c.867-1.048 21.229-25.815 21.229-37.637a22.025 22.025 0 0 0 -22-22zm0 57.411c-3.763-4.697-20-25.539-20-35.411a20 20 0 0 1 40 0c0 9.87-16.237 30.713-20 35.411z" fill="#1e81ce"/><path d="m32 7a16 16 0 1 0 16 16 16.019 16.019 0 0 0 -16-16zm0 30a14 14 0 1 1 14-14 14.015 14.015 0 0 1 -14 14z" fill="#1e81ce"/><path d="m42 21a1.993 1.993 0 0 0 -1.722 1h-1.358a6.947 6.947 0 0 0 -1.32-3.184l.963-.963a1.943 1.943 0 0 0 1.924-.509 2 2 0 1 0 -3.339-.9l-.963.963a6.947 6.947 0 0 0 -3.185-1.327v-1.358a2 2 0 1 0 -2 0v1.358a6.947 6.947 0 0 0 -3.184 1.32l-.963-.963a1.993 1.993 0 0 0 -.509-1.924 2.015 2.015 0 1 0 -.9 3.339l.963.963a6.947 6.947 0 0 0 -1.327 3.185h-1.358a2 2 0 1 0 0 2h1.358a6.947 6.947 0 0 0 1.32 3.184l-.963.963a2 2 0 0 0 -1.924.509 2 2 0 1 0 3.339.9l.963-.963a6.947 6.947 0 0 0 3.185 1.327v1.358a2 2 0 1 0 2 0v-1.358a6.947 6.947 0 0 0 3.184-1.32l.963.963a1.993 1.993 0 0 0 .509 1.924 2 2 0 1 0 .9-3.339l-.963-.963a6.947 6.947 0 0 0 1.327-3.185h1.358a2 2 0 1 0 1.722-3zm-10 7a5 5 0 1 1 5-5 5.006 5.006 0 0 1 -5 5z" fill="#1e81ce"/><circle cx="30" cy="22" fill="#1e81ce" r="2"/><circle cx="34" cy="24" fill="#1e81ce" r="2"/></g></svg>