<svg height="512" viewBox="0 0 64 64" width="512" xmlns="http://www.w3.org/2000/svg"><g id="virus-covid19-corona-coronavirus-search"><g fill="#9bc9ff"><path d="m54.506 40.607a22 22 0 1 0 -31.113 0 22 22 0 0 0 31.113 0zm-28.284-28.285a18 18 0 1 1 0 25.456 18 18 0 0 1 0-25.456z"/><path d="m45.95 25.05a7 7 0 1 1 -2.05-4.95 6.973 6.973 0 0 1 2.05 4.95z"/><path d="m39.657 22.929a1 1 0 1 0 -1.414 0 1 1 0 0 0 1.414 0z"/><path d="m36.828 27.172a1 1 0 1 0 -1.414 0 1 1 0 0 0 1.414 0z"/><path d="m42.485 27.172a1 1 0 1 0 -1.414 0 1 1 0 0 0 1.414 0z"/><path d="m12.2 58.87 10.486-10.485-5.657-5.657-1.414-1.414-10.485 10.486a5 5 0 0 0 7.07 7.07z"/></g><path d="m55.213 8.787a22.991 22.991 0 0 0 -35.1 29.44l-3.083 3.087-.708-.708a1 1 0 0 0 -1.414 0l-10.485 10.486a6 6 0 0 0 8.485 8.485l10.486-10.485a1 1 0 0 0 0-1.414l-.708-.708 3.087-3.086a22.989 22.989 0 0 0 36.177-18.834 22.85 22.85 0 0 0 -6.737-16.263zm-33.941 39.6-9.778 9.778a4 4 0 0 1 -5.657-5.657l9.778-9.778zm0-2.829-2.828-2.828 2.9-2.9c.428.509.87 1.008 1.346 1.483s.974.918 1.483 1.346zm32.528-5.658a21 21 0 1 1 -29.7-29.7 21 21 0 1 1 29.7 29.7z" fill="#1e81ce"/><path d="m52.385 11.615a18.992 18.992 0 1 0 0 26.87 19.022 19.022 0 0 0 0-26.87zm-1.414 25.456a16.992 16.992 0 1 1 0-24.042 17.02 17.02 0 0 1 0 24.042z" fill="#1e81ce"/><path d="m50.95 21.95a3 3 0 0 0 -2.832 2.05h-1.245a7.908 7.908 0 0 0 -1.608-3.851l.912-.912a3.006 3.006 0 1 0 -1.436-1.392l-.89.89a7.908 7.908 0 0 0 -3.851-1.608v-1.277a3 3 0 1 0 -2 .032v1.23a7.9 7.9 0 0 0 -3.893 1.58l-.87-.869a3.006 3.006 0 1 0 -1.392 1.436l.832.833a7.91 7.91 0 0 0 -1.651 3.908h-1.176a3 3 0 1 0 .032 2h1.129a7.912 7.912 0 0 0 1.624 3.951l-.812.812a3.006 3.006 0 1 0 1.436 1.392l.79-.79a7.912 7.912 0 0 0 3.951 1.624v1.161a3 3 0 1 0 2-.032v-1.144a7.91 7.91 0 0 0 3.908-1.651l.855.854a3.006 3.006 0 1 0 1.392-1.436l-.847-.848a7.9 7.9 0 0 0 1.58-3.893h1.262a3 3 0 1 0 2.8-4.05zm-4.243-6.142a1 1 0 1 1 0 1.414 1 1 0 0 1 0-1.414zm-7.757-3.758a1 1 0 1 1 -1 1 1 1 0 0 1 1-1zm-9.142 5.243a1 1 0 1 1 1.414 0 1 1 0 0 1 -1.414 0zm-2.758 8.757a1 1 0 1 1 1-1 1 1 0 0 1 -1 1zm4.243 8.142a1 1 0 1 1 0-1.414 1 1 0 0 1 0 1.414zm7.757 3.758a1 1 0 1 1 1-1 1 1 0 0 1 -1 1zm-.1-6.9a6 6 0 1 1 4.242-1.757 5.961 5.961 0 0 1 -4.242 1.757zm9.242 1.657a1 1 0 1 1 -1.414 0 1 1 0 0 1 1.414 0zm2.758-6.757a1 1 0 1 1 1-1 1 1 0 0 1 -1 1z" fill="#1e81ce"/><circle cx="39" cy="22" fill="#1e81ce" r="2"/><circle cx="36" cy="26" fill="#1e81ce" r="2"/><circle cx="42" cy="26" fill="#1e81ce" r="2"/></g></svg>