<svg height="512" viewBox="0 0 64 64" width="512" xmlns="http://www.w3.org/2000/svg"><g id="virus-covid19-corona-cough-breath"><path d="m8.157 22.223a1.975 1.975 0 0 0 -.157.777 1.989 1.989 0 0 1 .157-.777z" fill="#9bc9ff"/><path d="m10 21a1.975 1.975 0 0 0 -.777.157 1.989 1.989 0 0 1 .777-.157z" fill="#9bc9ff"/><path d="m48 55v6h12v-6h-1-9z" fill="#9bc9ff"/><path d="m8.157 22.223a2.08 2.08 0 0 1 1.066-1.066 2 2 0 0 0 -1.066 1.066z" fill="#9bc9ff"/><path d="m10 30a2.006 2.006 0 0 1 -2-2 2 2 0 0 0 2 2z" fill="#9bc9ff"/><path d="m8 28v-5a1.975 1.975 0 0 1 .157-.777 2 2 0 0 1 1.066-1.066 1.975 1.975 0 0 1 .777-.157v-7a3 3 0 0 1 3-3h18a6 6 0 0 0 6-6v-2h-24a10 10 0 0 0 -10 10v16.2a14.007 14.007 0 0 0 2.95 8.59l4.05 5.21v-13a2 2 0 0 1 -2-2z" fill="#9bc9ff"/><path d="m5 51h24a10 10 0 0 1 10 10 0 0 0 0 1 0 0h-36a0 0 0 0 1 0 0v-8a2 2 0 0 1 2-2z" fill="#9bc9ff"/><g fill="#1e81ce"><path d="m24.105 21.447a1 1 0 0 0 1.342.448l4-2a1 1 0 0 0 0-1.79l-4-2a1 1 0 1 0 -.894 1.79l2.211 1.105-2.211 1.105a1 1 0 0 0 -.448 1.342z"/><path d="m44 27h2v2h-2z"/><path d="m44 31h2v2h-2z"/><path d="m44 35h2v2h-2z"/><path d="m44 39h2v2h-2z"/><path d="m41 29h2v2h-2z"/><path d="m41 33h2v2h-2z"/><path d="m41 37h2v2h-2z"/><path d="m38 31h2v2h-2z"/><path d="m38 35h2v2h-2z"/><path d="m35 33h2v2h-2z"/><path d="m32 35h2v2h-2z"/><path d="m35 37h2v2h-2z"/><path d="m38 39h2v2h-2z"/><path d="m41 41h2v2h-2z"/><path d="m44 43h2v2h-2z"/><path d="m60.47 52.29a4.945 4.945 0 0 0 .53-2.23v-13.52a2.952 2.952 0 0 0 -.4-1.5l-7.73-13.4a3.006 3.006 0 0 0 -4.1-1.1 3 3 0 0 0 -1.1 4.1l3.71 6.43a2.993 2.993 0 0 0 -2.38 2.93v5.7l-.13.2a10.969 10.969 0 0 0 0 12.2l.13.2v1.7h-1a1 1 0 0 0 -1 1v6a1 1 0 0 0 1 1h12a1 1 0 0 0 1-1v-6a1 1 0 0 0 -1-1v-.76zm-1.47 7.71h-10v-4h10zm0-9.94a3 3 0 0 1 -.32 1.34l-.57 1.15a1 1 0 0 0 -.11.45v1h-7v-2a.967.967 0 0 0 -.17-.55l-.3-.46a8.975 8.975 0 0 1 0-9.98l.3-.46a.967.967 0 0 0 .17-.55v-6a1 1 0 0 1 1-1 .959.959 0 0 1 .68.28h.01c0 .01.03.03.03.04a.977.977 0 0 1 .28.68v6a1 1 0 0 0 2 0v-6a2.974 2.974 0 0 0 -.76-1.98l-4.84-8.39a.957.957 0 0 1 -.1-.74 1.009 1.009 0 0 1 .47-.62 1.021 1.021 0 0 1 1.36.37l7.74 13.41a.9.9 0 0 1 .13.49z"/><path d="m29 50h-2v-6h5a1 1 0 0 0 1-1v-4a1 1 0 0 0 -1-1h-4a1.983 1.983 0 0 1 -1.41-.59 2.018 2.018 0 0 1 -.59-1.56 2.139 2.139 0 0 1 2.17-1.85h3.83a1 1 0 0 0 1-1v-2h3a.983.983 0 0 0 .81-.42 1 1 0 0 0 .14-.9l-2.95-8.84v-5.84a4.975 4.975 0 0 0 -1.22-3.24 7.006 7.006 0 0 0 5.22-6.76v-2a1 1 0 0 0 -1-1h-24a11.007 11.007 0 0 0 -11 11v16.2a15.051 15.051 0 0 0 3.16 9.2l3.84 4.94v6.66h-4a3.009 3.009 0 0 0 -3 3v8a1 1 0 0 0 2 0v-8a1 1 0 0 1 1-1h24a9.014 9.014 0 0 1 9 9 1 1 0 0 0 2 0 11.007 11.007 0 0 0 -11-11zm-20-9.92-2.26-2.9a13.069 13.069 0 0 1 -2.74-7.98v-16.2a9.014 9.014 0 0 1 9-9h23v1a5 5 0 0 1 -5 5h-18a4 4 0 0 0 -4 4v6.17a3.014 3.014 0 0 0 -2 2.83v5a3.014 3.014 0 0 0 2 2.83zm9 1.92a1 1 0 0 0 0 2h7v6h-14v-19h1a1 1 0 0 0 0-2h-2a1 1 0 0 1 -1-1v-5a.949.949 0 0 1 .31-.71.928.928 0 0 1 .69-.29h2a1 1 0 0 0 0-2h-1v-6a2.006 2.006 0 0 1 2-2h16a3.009 3.009 0 0 1 3 3v6a1.185 1.185 0 0 0 .05.32l2.56 7.68h-2.61a1 1 0 0 0 -1 1v2h-2.83a4.111 4.111 0 0 0 -4.16 3.71 4 4 0 0 0 3.99 4.29h3v2z"/></g></g></svg>