<svg height="512" viewBox="0 0 64 64" width="512" xmlns="http://www.w3.org/2000/svg"><g id="virus-covid19-corona-eye-coronavirus"><g fill="#9bc9ff"><path d="m30.586 55.414a2 2 0 1 0 -.586-1.414 1.994 1.994 0 0 0 .586 1.414z"/><circle cx="32" cy="48" r="1"/><path d="m36.95 50.464a1 1 0 1 0 -1.414 0 1 1 0 0 0 1.414 0z"/><circle cx="38" cy="54" r="1"/><path d="m35.536 58.95a1 1 0 1 0 0-1.414 1 1 0 0 0 0 1.414z"/><circle cx="32" cy="60" r="1"/><path d="m27.05 57.536a1 1 0 1 0 1.414 0 1 1 0 0 0 -1.414 0z"/><circle cx="26" cy="54" r="1"/><path d="m28.464 49.05a1 1 0 1 0 0 1.414 1 1 0 0 0 0-1.414z"/><path d="m22 23a10 10 0 1 0 10-10 10 10 0 0 0 -10 10zm14 0a4 4 0 1 1 -4-4 4 4 0 0 1 4 4z"/><circle cx="32" cy="23" r="4"/></g><path d="m34.816 55h1.462a2 2 0 1 0 0-2h-1.462a2.746 2.746 0 0 0 -.117-.285l1.033-1.033a2.022 2.022 0 0 0 .511.074 1.988 1.988 0 0 0 1.414-.585 2 2 0 1 0 -3.34-.9l-1.032 1.029a2.746 2.746 0 0 0 -.285-.116v-1.462a2 2 0 1 0 -2 0v1.462a2.746 2.746 0 0 0 -.285.117l-1.033-1.033a1.993 1.993 0 1 0 -1.925 1.488 2.016 2.016 0 0 0 .511-.074l1.032 1.033a2.746 2.746 0 0 0 -.117.285h-1.461a2 2 0 1 0 0 2h1.462a2.746 2.746 0 0 0 .117.285l-1.033 1.033a2 2 0 1 0 1.414 1.414l1.033-1.032a2.746 2.746 0 0 0 .285.117v1.462a2 2 0 1 0 2 0v-1.463a2.746 2.746 0 0 0 .285-.117l1.033 1.033a2 2 0 1 0 1.413-1.414l-1.031-1.033a2.746 2.746 0 0 0 .116-.285zm-1.816-1a1 1 0 1 1 -1-1 1 1 0 0 1 1 1z" fill="#1e81ce"/><path d="m32 34a11 11 0 1 1 11-11 11.013 11.013 0 0 1 -11 11zm0-20a9 9 0 1 0 9 9 9.011 9.011 0 0 0 -9-9z" fill="#1e81ce"/><path d="m32 38c-8.493 0-28.7-13.593-29.56-14.171a1 1 0 0 1 0-1.658c.86-.578 21.067-14.171 29.56-14.171s28.7 13.593 29.56 14.171a1 1 0 0 1 0 1.658c-.86.578-21.067 14.171-29.56 14.171zm-27.185-15c4.577 2.984 20.441 13 27.185 13s22.607-10.015 27.185-13c-4.577-2.984-20.441-13-27.185-13s-22.607 10.015-27.185 13z" fill="#1e81ce"/><path d="m61 16a.987.987 0 0 1 -.5-.135c-.206-.118-20.579-11.865-28.5-11.865s-28.294 11.747-28.5 11.865a1 1 0 1 1 -1-1.73c.854-.496 21.044-12.135 29.5-12.135s28.646 11.639 29.5 12.135a1 1 0 0 1 -.5 1.865z" fill="#1e81ce"/><path d="m32 28a5 5 0 1 1 5-5 5.006 5.006 0 0 1 -5 5zm0-8a3 3 0 1 0 3 3 3 3 0 0 0 -3-3z" fill="#1e81ce"/><path d="m55.886 32.874a1 1 0 0 1 -.914-.594c-.125-.28-.263-.558-.41-.832a1 1 0 0 1 1.764-.944q.255.476.472.963a1 1 0 0 1 -.912 1.407z" fill="#1e81ce"/><path d="m47.325 51.676a1 1 0 0 1 -.473-1.881c.542-.292 1.073-.6 1.578-.926a1 1 0 1 1 1.078 1.683c-.547.351-1.123.689-1.711 1.005a1 1 0 0 1 -.472.119zm4.668-3.283a1 1 0 0 1 -.678-1.735c.452-.417.877-.85 1.266-1.288a1 1 0 0 1 1.5 1.326 19.5 19.5 0 0 1 -1.406 1.432 1 1 0 0 1 -.682.265zm3.51-4.482a1 1 0 0 1 -.885-1.464 12.442 12.442 0 0 0 .71-1.616 1 1 0 0 1 1.885.672 14.67 14.67 0 0 1 -.823 1.872 1 1 0 0 1 -.89.536zm1.49-5.473h-.034a1 1 0 0 1 -.966-1.033c0-.135.007-.27.007-.405a11.346 11.346 0 0 0 -.081-1.347 1 1 0 0 1 1.986-.237 13.422 13.422 0 0 1 .095 1.584c0 .158 0 .315-.009.472a1 1 0 0 1 -.998.966z" fill="#1e81ce"/><path d="m42.889 53.584a1 1 0 0 1 -.319-1.948c.308-.1.614-.211.913-.323a1 1 0 1 1 .7 1.874c-.322.12-.647.234-.976.345a1.008 1.008 0 0 1 -.318.052z" fill="#1e81ce"/><path d="m3.21 61.79a1 1 0 0 1 -.71-1.707l1.414-1.415a1 1 0 0 1 1.415 1.415l-1.412 1.417a1 1 0 0 1 -.707.29zm4.36-4.115a1 1 0 0 1 -.589-1.809 15.1 15.1 0 0 1 1.819-1.132 1 1 0 0 1 .932 1.766 13.077 13.077 0 0 0 -1.575.981 1 1 0 0 1 -.587.194zm5.448-2.4a1 1 0 0 1 -.2-1.98 15.124 15.124 0 0 1 2.124-.275 1 1 0 1 1 .113 2 13.2 13.2 0 0 0 -1.839.238.976.976 0 0 1 -.198.021zm7.982-.275h-2a1 1 0 0 1 0-2h2a1 1 0 0 1 0 2z" fill="#1e81ce"/></g></svg>