<svg height="512" viewBox="0 0 64 64" width="512" xmlns="http://www.w3.org/2000/svg"><g id="virus-covid19-corona-hand-coronavirus"><g fill="#9bc9ff"><path d="m32 29a3 3 0 0 0 -2.121 5.121 3 3 0 0 0 4.242 0 3 3 0 0 0 -2.121-5.121z"/><circle cx="32" cy="25" r="1"/><path d="m27.757 26.343a1 1 0 1 0 0 1.414 1 1 0 0 0 0-1.414z"/><circle cx="25" cy="32" r="1"/><path d="m26.343 36.243a1 1 0 1 0 1.414 0 1 1 0 0 0 -1.414 0z"/><circle cx="32" cy="39" r="1"/><path d="m36.243 37.657a1 1 0 1 0 0-1.414 1 1 0 0 0 0 1.414z"/><circle cx="39" cy="32" r="1"/><path d="m37.657 27.757a1 1 0 1 0 -1.414 0 1 1 0 0 0 1.414 0z"/><path d="m43 18h1 14 1v-4h-16z"/><path d="m21 48h-1-14-1v4h16z"/><path d="m38.121 49.879a3 3 0 1 0 -4.242 4.242 3 3 0 0 0 4.242 0 3 3 0 0 0 0-4.242z"/><path d="m25.879 12.121a3 3 0 0 0 4.242 0 3 3 0 1 0 -4.242 0z"/><path d="m3 52h20v9h-20z"/><path d="m41 3h20v11h-20z"/></g><path d="m39 30a1.993 1.993 0 0 0 -1.722 1h-1.42a3.915 3.915 0 0 0 -.425-1.019l1.006-1.006a2.015 2.015 0 0 0 .51.074 2.006 2.006 0 1 0 -1.923-1.489l-1.007 1.007a3.915 3.915 0 0 0 -1.019-.425v-1.42a2 2 0 1 0 -2 0v1.42a3.915 3.915 0 0 0 -1.019.425l-1.006-1.007a2 2 0 0 0 -.509-1.923 2 2 0 1 0 -1.415 3.413 2.022 2.022 0 0 0 .511-.074l1.006 1.006a3.915 3.915 0 0 0 -.426 1.018h-1.42a2 2 0 1 0 0 2h1.42a3.915 3.915 0 0 0 .425 1.019l-1 1.006a2 2 0 1 0 1.412 1.415l1.007-1.007a3.915 3.915 0 0 0 1.014.425v1.42a2 2 0 1 0 2 0v-1.42a3.915 3.915 0 0 0 1.019-.425l1.006 1.007a2 2 0 0 0 .509 1.923 2 2 0 1 0 .9-3.339l-1.006-1.006a3.915 3.915 0 0 0 .43-1.018h1.42a2 2 0 1 0 1.722-3zm-7 4a2 2 0 1 1 2-2 2 2 0 0 1 -2 2z" fill="#1e81ce"/><path d="m60 18v-3h1a1 1 0 0 0 1-1v-11a1 1 0 0 0 -2 0v10h-18v-10a1 1 0 0 0 -2 0v11a1 1 0 0 0 1 1h1v3a1 1 0 0 0 1 1v3.34a3 3 0 0 1 -.88 2.12l-.45.46a11.949 11.949 0 0 0 -17.67-1.84v-2.08a2.954 2.954 0 0 0 -.87-2.11 3.066 3.066 0 0 0 -3.13-.72v-.17a2.954 2.954 0 0 0 -.87-2.11 3.066 3.066 0 0 0 -3.13-.72v-1.17a3.022 3.022 0 0 0 -3.27-2.99 3.087 3.087 0 0 0 -2.73 3.1v.06a3.009 3.009 0 0 0 -1.27-.16 3.087 3.087 0 0 0 -2.73 3.1v6.06a3 3 0 0 0 -1-.17h-1a2.006 2.006 0 0 0 -2 2v12.34a5.036 5.036 0 0 0 1.46 3.54l.66.66a3 3 0 0 1 .88 2.12v3.34a1 1 0 0 0 -1 1v3h-1a1 1 0 0 0 -1 1v9a1 1 0 0 0 2 0v-8h18v8a1 1 0 0 0 2 0v-9a1 1 0 0 0 -1-1h-1v-3a1 1 0 0 0 -1-1v-3.34a3 3 0 0 1 .88-2.12l.66-.66a4.689 4.689 0 0 0 .62-.79 11.939 11.939 0 0 0 16.84.83v.08a2.006 2.006 0 0 0 2 2h1a3 3 0 0 0 1-.17v6.06a3.087 3.087 0 0 0 2.72 3.1 3.035 3.035 0 0 0 1.28-.16v.06a3.087 3.087 0 0 0 2.72 3.1c.1.01.2.01.29.01a2.924 2.924 0 0 0 2.1-.87 2.971 2.971 0 0 0 .89-2.13v-1.17a3.1 3.1 0 0 0 3.11-.7 2.971 2.971 0 0 0 .89-2.13v-.17a3.1 3.1 0 0 0 3.11-.7 2.971 2.971 0 0 0 .89-2.13v-16.34a5.036 5.036 0 0 0 -1.46-3.54l-.66-.66a3 3 0 0 1 -.88-2.12v-3.34a1 1 0 0 0 1-1zm-16-3h14v2h-14zm-24 36h-14v-2h14zm1.83-12.67a2.926 2.926 0 0 1 -.71 1.13l-.66.66a5.036 5.036 0 0 0 -1.46 3.54v3.34h-12v-3.34a5.036 5.036 0 0 0 -1.46-3.54l-.66-.66a3 3 0 0 1 -.88-2.12v-12.34h1a1 1 0 0 1 1 1v3a1 1 0 0 0 1 1 3.009 3.009 0 0 1 3 3 1 1 0 0 0 2 0 5.009 5.009 0 0 0 -4-4.9v-10.99a1.073 1.073 0 0 1 .92-1.1.938.938 0 0 1 .79.3.928.928 0 0 1 .29.69v9a1 1 0 0 0 2 0v-11.89a1.073 1.073 0 0 1 .92-1.1.91.91 0 0 1 .79.3.928.928 0 0 1 .29.69v12a1 1 0 0 0 2 0v-8a1 1 0 0 1 1-1 .949.949 0 0 1 .71.31.928.928 0 0 1 .29.69v8a1 1 0 0 0 2 0v-5a1 1 0 0 1 1-1 .949.949 0 0 1 .71.31.928.928 0 0 1 .29.69v4.38a11.91 11.91 0 0 0 -.17 12.95zm10.17 3.67a10 10 0 1 1 10-10 10.016 10.016 0 0 1 -10 10zm27.12-15.46a3 3 0 0 1 .88 2.12v16.34a.949.949 0 0 1 -.31.71.928.928 0 0 1 -.69.29 1 1 0 0 1 -1-1v-5a1 1 0 0 0 -2 0v8a.949.949 0 0 1 -.31.71.928.928 0 0 1 -.69.29 1 1 0 0 1 -1-1v-8a1 1 0 0 0 -2 0v12a.976.976 0 0 1 -.3.71.962.962 0 0 1 -.79.28 1.074 1.074 0 0 1 -.91-1.1v-11.89a1 1 0 0 0 -2 0v9a.976.976 0 0 1 -.3.71.962.962 0 0 1 -.79.28 1.074 1.074 0 0 1 -.91-1.1v-10.99a5.009 5.009 0 0 0 4-4.9 1 1 0 0 0 -2 0 3.009 3.009 0 0 1 -3 3 1 1 0 0 0 -1 1v3a1 1 0 0 1 -1 1h-1v-2.38a11.9 11.9 0 0 0 .74-11.93c.05-.05.09-.1.14-.15l.66-.66a5.036 5.036 0 0 0 1.46-3.54v-3.34h12v3.34a5.036 5.036 0 0 0 1.46 3.54z" fill="#1e81ce"/><path d="m41 51h-1.142a3.915 3.915 0 0 0 -.425-1.019l.809-.81a1 1 0 0 0 -1.414-1.414l-.809.81a3.915 3.915 0 0 0 -1.019-.425v-1.142a1 1 0 0 0 -2 0v1.142a3.915 3.915 0 0 0 -1.019.425l-.809-.81a1 1 0 1 0 -1.414 1.414l.809.81a3.915 3.915 0 0 0 -.425 1.019h-1.142a1 1 0 0 0 0 2h1.142a3.915 3.915 0 0 0 .425 1.019l-.809.81a1 1 0 1 0 1.414 1.414l.809-.81a3.915 3.915 0 0 0 1.019.425v1.142a1 1 0 0 0 2 0v-1.142a3.915 3.915 0 0 0 1.019-.425l.809.81a1 1 0 0 0 1.414-1.414l-.809-.81a3.915 3.915 0 0 0 .425-1.019h1.142a1 1 0 0 0 0-2zm-5 3a2 2 0 1 1 2-2 2 2 0 0 1 -2 2z" fill="#1e81ce"/><path d="m23 11h1.142a3.915 3.915 0 0 0 .425 1.019l-.809.81a1 1 0 1 0 1.414 1.414l.809-.81a3.915 3.915 0 0 0 1.019.425v1.142a1 1 0 0 0 2 0v-1.142a3.915 3.915 0 0 0 1.019-.425l.809.81a1 1 0 0 0 1.414-1.414l-.809-.81a3.915 3.915 0 0 0 .425-1.019h1.142a1 1 0 0 0 0-2h-1.142a3.915 3.915 0 0 0 -.425-1.019l.809-.81a1 1 0 0 0 -1.414-1.414l-.809.81a3.915 3.915 0 0 0 -1.019-.425v-1.142a1 1 0 0 0 -2 0v1.142a3.915 3.915 0 0 0 -1.019.425l-.809-.81a1 1 0 0 0 -1.414 1.414l.809.81a3.915 3.915 0 0 0 -.425 1.019h-1.142a1 1 0 0 0 0 2zm5-3a2 2 0 1 1 -2 2 2 2 0 0 1 2-2z" fill="#1e81ce"/></g></svg>