<svg height="512" viewBox="0 0 64 64" width="512" xmlns="http://www.w3.org/2000/svg"><g id="virus-covid19-corona-hand-drug"><g fill="#9bc9ff"><path d="m25 53-1.5-1.5-11-11-1.64-1.64-7.66 7.65 14.14 14.15z"/><path d="m39 31a4 4 0 0 0 8 0v-4h-8z"/><path d="m25.172 20.828 2.828 2.829a4 4 0 0 0 5.657-5.657l-2.829-2.828z"/><path d="m48.343 10a4 4 0 0 0 5.657 5.657l2.828-2.829-5.656-5.656z"/></g><path d="m58.42 35.9a4.047 4.047 0 0 0 -5.47-1.47l-10.04 5.8a3.916 3.916 0 0 0 -1.25-2.23 4.041 4.041 0 0 0 -2.67-1h-8.16a.99.99 0 0 1 -.71-.29l-.24-.25a4.988 4.988 0 0 0 -3.53-1.46s-7.99.01-8.19.02a5.1 5.1 0 0 0 -3.04 1.44l-2.62 2.63-.93-.94a1.008 1.008 0 0 0 -1.42 0l-7.66 7.65a1.033 1.033 0 0 0 -.29.71 1.052 1.052 0 0 0 .29.71l14.14 14.15a1.033 1.033 0 0 0 .71.29 1.052 1.052 0 0 0 .71-.29l7.66-7.66a1.008 1.008 0 0 0 0-1.42l-.8-.79.21-.21a.99.99 0 0 1 .71-.29h13.1a4.9 4.9 0 0 0 2.5-.67l15.52-8.96a4.019 4.019 0 0 0 1.47-5.47zm-41.08 23.35-12.73-12.74 6.25-6.24 12.73 12.73zm38.61-19.62-15.53 8.97a2.942 2.942 0 0 1 -1.49.4h-13.1a2.956 2.956 0 0 0 -2.12.88l-.21.21-9.59-9.59 2.63-2.62a2.936 2.936 0 0 1 1.8-.86c.11-.01 8.01-.02 8.01-.02a2.933 2.933 0 0 1 2.11.88l.25.24a2.956 2.956 0 0 0 2.12.88h8.16a2.02 2.02 0 0 1 1.34.5 1.912 1.912 0 0 1 .66 1.28 1.785 1.785 0 0 1 -.13.92 1.862 1.862 0 0 1 -.45.71 1.983 1.983 0 0 1 -1.41.59h-6.58a1 1 0 0 0 0 2h6.58a4 4 0 0 0 2.83-1.17 3.911 3.911 0 0 0 .78-1.12l11.34-6.54a1.991 1.991 0 0 1 1.91-.04 1.85 1.85 0 0 1 .82.77 1.949 1.949 0 0 1 .27 1 1.97 1.97 0 0 1 -1 1.73z" fill="#1e81ce"/><path d="m43 18a5 5 0 0 0 -5 5v8a5 5 0 0 0 10 0v-8a5 5 0 0 0 -5-5zm3 13a3 3 0 0 1 -6 0v-3h6zm0-5h-6v-3a3 3 0 0 1 6 0z" fill="#1e81ce"/><path d="m34.36 17.29-5.65-5.65a5 5 0 0 0 -7.07 7.07l5.65 5.65a5 5 0 0 0 7.07-7.07zm-11.31 0a3 3 0 1 1 4.24-4.24l2.12 2.12-4.24 4.24zm9.9 5.66a3 3 0 0 1 -4.24 0l-2.12-2.12 4.24-4.24 2.12 2.12a3 3 0 0 1 0 4.24z" fill="#1e81ce"/><path d="m60.36 3.64a5 5 0 0 0 -7.07 0l-5.65 5.65a5 5 0 0 0 0 7.07 4.985 4.985 0 0 0 7.07 0l5.65-5.65a5 5 0 0 0 0-7.07zm-7.07 11.31a3 3 0 0 1 -4.24-4.24l2.12-2.12 4.24 4.24zm5.66-5.66-2.12 2.12-4.24-4.24 2.12-2.12a3 3 0 0 1 4.24 4.24z" fill="#1e81ce"/></g></svg>