<svg height="512" viewBox="0 0 64 64" width="512" xmlns="http://www.w3.org/2000/svg"><g id="virus-covid19-corona-insurance-protect"><path d="m32 61 2.309-1.108a40 40 0 0 0 22.691-36.061v-12.831l-25-8-25 8v12.831a40 40 0 0 0 22.691 36.061zm-21-37.169v-9.911l21-6.72 21 6.72v9.911a36.189 36.189 0 0 1 -20.421 32.455l-.579.277-.579-.278a36.186 36.186 0 0 1 -20.421-32.454z" fill="#9bc9ff"/><circle cx="28.804" cy="32" fill="none" r="2"/><circle cx="32" cy="26" fill="none" r="2"/><path d="m38.364 23.636a9 9 0 1 0 2.636 6.364 8.972 8.972 0 0 0 -2.636-6.364zm-8.56 10.1a2 2 0 1 1 .732-2.736 2 2 0 0 1 -.736 2.732zm2.196-5.736a2 2 0 1 1 2-2 2 2 0 0 1 -2 2zm4 6a2 2 0 1 1 2-2 2 2 0 0 1 -2 2z" fill="#9bc9ff"/><g fill="#1e81ce"><path d="m29 16a3 3 0 0 0 2 2.816v1.235a9.942 9.942 0 0 0 -5.324 2.211l-.877-.877a3 3 0 1 0 -1.415 1.415l.878.877a9.945 9.945 0 0 0 -2.211 5.323h-1.235a3 3 0 1 0 0 2h1.235a9.945 9.945 0 0 0 2.211 5.324l-.878.877a3 3 0 1 0 1.416 1.414l.877-.877a9.942 9.942 0 0 0 5.323 2.211v1.235a3 3 0 1 0 2 0v-1.235a9.942 9.942 0 0 0 5.324-2.211l.877.877a3 3 0 1 0 1.415-1.415l-.878-.877a9.945 9.945 0 0 0 2.211-5.323h1.235a3 3 0 1 0 0-2h-1.235a9.945 9.945 0 0 0 -2.211-5.324l.878-.877a3 3 0 1 0 -1.416-1.414l-.877.877a9.942 9.942 0 0 0 -5.323-2.211v-1.235a2.995 2.995 0 1 0 -4-2.816zm-7.607 4.808a1 1 0 1 1 1.415 0 1 1 0 0 1 -1.415 0zm-3.393 10.192a1 1 0 1 1 1-1 1 1 0 0 1 -1 1zm4.808 9.607a1 1 0 1 1 0-1.415 1 1 0 0 1 0 1.415zm9.192 4.393a1 1 0 1 1 1-1 1 1 0 0 1 -1 1zm10.607-5.808a1 1 0 1 1 -1.415 0 1 1 0 0 1 1.415 0zm3.393-10.192a1 1 0 1 1 -1 1 1 1 0 0 1 1-1zm-14 9a8 8 0 1 1 8-8 8.009 8.009 0 0 1 -8 8zm9.192-18.607a1 1 0 1 1 0 1.415 1 1 0 0 1 0-1.415zm-8.192-3.393a1 1 0 1 1 -1-1 1 1 0 0 1 1 1z"/><path d="m35 26a3 3 0 1 0 -3 3 3 3 0 0 0 3-3zm-3 1a1 1 0 1 1 1-1 1 1 0 0 1 -1 1z"/><path d="m29 29a3 3 0 1 0 3 3 3 3 0 0 0 -3-3zm0 4a1 1 0 1 1 1-1 1 1 0 0 1 -1 1z"/><path d="m34.3 29.4a3 3 0 1 0 4.1 1.1 2.977 2.977 0 0 0 -4.1-1.1zm2.366 2.1a1 1 0 1 1 -1.832.241 1 1 0 0 1 1.836-.241z"/><path d="m57.305 10.047-25-8a1.008 1.008 0 0 0 -.61 0l-25 8a1 1 0 0 0 -.695.953v12.831a41.212 41.212 0 0 0 23.258 36.962l2.309 1.107a1 1 0 0 0 .866 0l2.309-1.108a41.212 41.212 0 0 0 23.258-36.961v-12.831a1 1 0 0 0 -.695-.953zm-1.305 13.784a39.2 39.2 0 0 1 -22.123 35.159l-1.877.9-1.877-.9a39.2 39.2 0 0 1 -22.123-35.159v-12.101l24-7.68 24 7.68z"/><path d="m31.7 6.247-21 6.72a1 1 0 0 0 -.7.953v9.911a37.191 37.191 0 0 0 20.988 33.356l.579.277a1 1 0 0 0 .865 0l.58-.278a37.191 37.191 0 0 0 20.988-33.355v-9.911a1 1 0 0 0 -.7-.953l-21-6.72a1.008 1.008 0 0 0 -.6 0zm20.3 8.403v9.181a35.182 35.182 0 0 1 -19.853 31.553l-.147.07-.146-.07a35.181 35.181 0 0 1 -19.854-31.553v-9.181l20-6.4z"/></g></g></svg>