<svg height="512" viewBox="0 0 64 64" width="512" xmlns="http://www.w3.org/2000/svg"><g id="virus-covid19-corona-lab-search"><g fill="#9bc9ff"><path d="m15 13h-4-4-4v8h2 12 2v-8z"/><path d="m5 55a6 6 0 0 0 12 0v-14h-12z"/><path d="m5 21h12v8h-12z"/><path d="m44 3a17 17 0 1 0 17 17 17 17 0 0 0 -17-17zm0 30a13 13 0 1 1 13-13 13.015 13.015 0 0 1 -13 13z"/><path d="m44 17a3 3 0 0 0 -2.121 5.121 3 3 0 0 0 4.242 0 3 3 0 0 0 -2.121-5.121z"/><circle cx="44" cy="13" r="1"/><path d="m39.757 14.343a1 1 0 1 0 0 1.414 1 1 0 0 0 0-1.414z"/><circle cx="37" cy="20" r="1"/><path d="m38.343 24.243a1 1 0 1 0 1.414 0 1 1 0 0 0 -1.414 0z"/><circle cx="44" cy="27" r="1"/><path d="m48.243 25.657a1 1 0 1 0 0-1.414 1 1 0 0 0 0 1.414z"/><circle cx="51" cy="20" r="1"/><path d="m49.657 15.757a1 1 0 1 0 -1.414 0 1 1 0 0 0 1.414 0z"/><path d="m39 56a5 5 0 0 0 10 0v-13h-10z"/><path d="m36 41-6-5v3h-9v4h9v3z"/></g><path d="m19 12h-16a1 1 0 0 0 -1 1v8a1 1 0 0 0 1 1h1v33a7 7 0 0 0 14 0v-33h1a1 1 0 0 0 1-1v-8a1 1 0 0 0 -1-1zm-3 43a5 5 0 0 1 -10 0v-13h10zm0-15h-10v-10h10zm0-12h-10v-6h10zm2-8h-14v-6h2v4a1 1 0 0 0 2 0v-4h2v4a1 1 0 0 0 2 0v-4h2v4a1 1 0 0 0 2 0v-4h2z" fill="#1e81ce"/><path d="m8 34h6a1 1 0 0 0 0-2h-6a1 1 0 0 0 0 2z" fill="#1e81ce"/><path d="m8 38h6a1 1 0 0 0 0-2h-6a1 1 0 0 0 0 2z" fill="#1e81ce"/><path d="m51 18a1.993 1.993 0 0 0 -1.722 1h-1.42a3.915 3.915 0 0 0 -.425-1.019l1.006-1.006a2 2 0 1 0 -1.414-1.414l-1.006 1.006a3.915 3.915 0 0 0 -1.019-.425v-1.42a2 2 0 1 0 -2 0v1.42a3.915 3.915 0 0 0 -1.019.425l-1.006-1.006a2 2 0 1 0 -1.414 1.414l1.006 1.006a3.915 3.915 0 0 0 -.425 1.019h-1.42a2 2 0 1 0 0 2h1.42a3.915 3.915 0 0 0 .425 1.019l-1.006 1.006a2 2 0 1 0 1.414 1.414l1.006-1.006a3.915 3.915 0 0 0 1.019.425v1.42a2 2 0 1 0 2 0v-1.42a3.915 3.915 0 0 0 1.019-.425l1.006 1.006a2 2 0 1 0 1.414-1.414l-1.006-1.006a3.915 3.915 0 0 0 .425-1.019h1.42a2 2 0 1 0 1.722-3zm-7 4a2 2 0 1 1 2-2 2 2 0 0 1 -2 2z" fill="#1e81ce"/><path d="m62 20a18 18 0 1 0 -22 17.536v4.464h-1a1 1 0 0 0 -1 1v13a6 6 0 0 0 12 0v-13a1 1 0 0 0 -1-1h-1v-4.464a18.019 18.019 0 0 0 14-17.536zm-34 0a16 16 0 1 1 16 16 16.019 16.019 0 0 1 -16-16zm20 36a4 4 0 0 1 -8 0v-12h8zm-2-14h-4v-4.118a17.008 17.008 0 0 0 4 0z" fill="#1e81ce"/><path d="m58 20a14 14 0 1 0 -14 14 14.015 14.015 0 0 0 14-14zm-26 0a12 12 0 1 1 12 12 12.013 12.013 0 0 1 -12-12z" fill="#1e81ce"/><path d="m30 47a1 1 0 0 1 -1-1v-2h-8a1 1 0 0 1 -1-1v-4a1 1 0 0 1 1-1h8v-2a1 1 0 0 1 1.64-.768l6 5a1 1 0 0 1 0 1.536l-6 5a1 1 0 0 1 -.64.232zm-8-5h8a1 1 0 0 1 1 1v.865l3.438-2.865-3.438-2.865v.865a1 1 0 0 1 -1 1h-8z" fill="#1e81ce"/></g></svg>