<svg height="512" viewBox="0 0 64 64" width="512" xmlns="http://www.w3.org/2000/svg"><g id="virus-covid19-corona-lung-breath"><path d="m39.272 35.754a4 4 0 0 0 -5.272 3.796v1.45l2.606.652a1.839 1.839 0 0 1 1.394 1.785v.01a1.84 1.84 0 0 1 -2.422 1.746l-1.578-.526v4.251a6 6 0 0 0 5.023 5.92l2.317.382a4 4 0 0 0 4.66-3.94v-6.191a9.84 9.84 0 0 0 -6.728-9.335zm1.728 12.246a1 1 0 1 1 1-1 1 1 0 0 1 -1 1z" fill="#9bc9ff"/><path d="m27.394 41.652 2.606-.652v-1.45a4 4 0 0 0 -5.268-3.8 9.84 9.84 0 0 0 -6.732 9.339v6.191a4 4 0 0 0 4.66 3.94l2.317-.382a6 6 0 0 0 5.023-5.92v-4.251l-1.578.526a1.84 1.84 0 0 1 -2.422-1.746v-.01a1.839 1.839 0 0 1 1.394-1.785zm-2.394 9.348a1 1 0 1 1 1-1 1 1 0 0 1 -1 1z" fill="#9bc9ff"/><path d="m36.606 41.652a1.839 1.839 0 0 1 1.394 1.785v.01a1.84 1.84 0 0 1 -2.422 1.746l-1.578-.526v4.251a6 6 0 0 0 5.023 5.92l2.317.382a4 4 0 0 0 4.66-3.94v-6.191a9.84 9.84 0 0 0 -6.728-9.335 4 4 0 0 0 -5.272 3.796v1.45z" fill="none"/><path d="m26 43.447v-.01a1.839 1.839 0 0 1 1.394-1.785l2.606-.652v-1.45a4 4 0 0 0 -5.268-3.8 9.84 9.84 0 0 0 -6.732 9.339v6.191a4 4 0 0 0 4.66 3.94l2.317-.382a6 6 0 0 0 5.023-5.92v-4.251l-1.578.526a1.84 1.84 0 0 1 -2.422-1.746z" fill="none"/><path d="m30 24v17l-2.606.652a1.839 1.839 0 0 0 -1.394 1.785v.01a1.84 1.84 0 0 0 2.422 1.746l1.578-.526 2-.667 2 .667 1.578.526a1.84 1.84 0 0 0 2.422-1.746v-.01a1.839 1.839 0 0 0 -1.394-1.785l-2.606-.652v-20a4 4 0 0 0 -4-4h-6v6h5a1 1 0 0 1 1 1z" fill="#9bc9ff"/><path d="m24 23h3z" fill="#9bc9ff"/><circle cx="41" cy="47" fill="#9bc9ff" r="1"/><circle cx="25" cy="50" fill="#9bc9ff" r="1"/><g fill="#1e81ce"><path d="m39.585 34.8a4.946 4.946 0 0 0 -4.507.688c-.027.02-.051.043-.078.063v-5.551a1 1 0 0 0 -2 0v11a1 1 0 0 0 .758.97l2.6.652a.841.841 0 0 1 .637.825.841.841 0 0 1 -1.1.8l-3.579-1.193a1 1 0 0 0 -.632 0l-3.579 1.193a.845.845 0 1 1 -.469-1.622l2.606-.652a1 1 0 0 0 .758-.973v-6.99a1 1 0 1 0 -2 0v1.545c-.027-.02-.051-.043-.078-.063a4.947 4.947 0 0 0 -4.51-.687 10.827 10.827 0 0 0 -7.412 10.284v6.191a5 5 0 0 0 4.993 5 5.043 5.043 0 0 0 .83-.069l2.317-.382a6.977 6.977 0 0 0 5.86-6.911v-3.53l1-.334 1 .334v3.53a6.977 6.977 0 0 0 5.86 6.907l2.314.382a5.076 5.076 0 0 0 .832.069 5 5 0 0 0 4.994-5v-6.187a10.828 10.828 0 0 0 -7.415-10.289zm-10.585 14.118a4.983 4.983 0 0 1 -4.187 4.933l-2.319.383a3 3 0 0 1 -3.494-2.954v-6.191a8.829 8.829 0 0 1 6.048-8.389 3 3 0 0 1 3.952 2.85v.669l-1.85.462a2.84 2.84 0 0 0 -2.15 2.766 2.841 2.841 0 0 0 3.738 2.7l.262-.093zm16 2.362a3 3 0 0 1 -3.5 2.953l-2.316-.382a4.983 4.983 0 0 1 -4.184-4.933v-2.864l.262.088a2.852 2.852 0 0 0 .907.148 2.848 2.848 0 0 0 .68-5.609l-1.849-.462v-.669a3 3 0 0 1 3.955-2.85 8.828 8.828 0 0 1 6.045 8.389z"/><path d="m30 32a1 1 0 0 0 1-1v-1a1 1 0 0 0 -2 0v1a1 1 0 0 0 1 1z"/><path d="m34 28a1 1 0 0 0 1-1v-1a1 1 0 0 0 -2 0v1a1 1 0 0 0 1 1z"/><path d="m58.93 39.94a13.821 13.821 0 0 0 -8.04-10.75.355.355 0 0 0 -.09-.04 13.638 13.638 0 0 0 -5.51-1.15h-7.29v-5.21a11 11 0 1 0 -15.44-13.26c-.01.02-.01.04-.02.06l-2.48 7.08a.99.99 0 0 0 .94 1.33h2v5a1 1 0 0 0 1 1h2v4h-7.29a13.673 13.673 0 0 0 -5.51 1.15.355.355 0 0 0 -.09.04 13.821 13.821 0 0 0 -8.04 10.74l-3.06 20.93a.994.994 0 0 0 .23.79 1.011 1.011 0 0 0 .76.35h9a1 1 0 0 0 .99-.88l1.01-8.56 1.01 8.56a1 1 0 0 0 .99.88h32a1 1 0 0 0 .99-.88l1.01-8.56 1.01 8.56a1 1 0 0 0 .99.88h9a1.011 1.011 0 0 0 .76-.35.994.994 0 0 0 .23-.79zm-6.04 20.06-1.9-16.12a1 1 0 0 0 -1.98 0l-1.9 16.12h-30.22l-1.9-16.12a1 1 0 0 0 -1.98 0l-1.9 16.12h-6.95l2.89-19.8a11.812 11.812 0 0 1 6.8-9.15.355.355 0 0 0 .09-.04 11.6 11.6 0 0 1 4.77-1.01h8.29a1 1 0 0 0 1-1v-5h1v3a1 1 0 0 0 2 0v-3a2.006 2.006 0 0 0 -2-2h-4v-4h5a3.009 3.009 0 0 1 3 3v2a1 1 0 0 0 2 0v-2a5 5 0 0 0 -5-5h-7.59l2.04-5.81c.01-.03.02-.05.03-.08a9 9 0 1 1 12.12 11.13 1.011 1.011 0 0 0 -.6.92v6.84a1 1 0 0 0 1 1h8.29a11.6 11.6 0 0 1 4.77 1.01.412.412 0 0 0 .08.03 11.834 11.834 0 0 1 6.81 9.17l2.89 19.79z"/><path d="m18 19h-5a1 1 0 0 0 0 2h5a1 1 0 0 0 0-2z"/><path d="m3 21h1a1 1 0 0 0 0-2h-1a1 1 0 0 0 0 2z"/><path d="m8 19a1 1 0 0 0 0 2h1a1 1 0 0 0 0-2z"/><path d="m11.938 27.5a.992.992 0 0 0 .5-.134l6.063-3.5a1 1 0 1 0 -1-1.732l-6.063 3.5a1 1 0 0 0 .5 1.866z"/><path d="m3.644 30.134-.867.5a1 1 0 1 0 1 1.732l.867-.5a1 1 0 1 0 -1-1.732z"/><path d="m7.608 30a.992.992 0 0 0 .5-.134l.867-.5a1 1 0 1 0 -1-1.732l-.867.5a1 1 0 0 0 .5 1.866z"/><path d="m11.437 14.366 6.063 3.5a1 1 0 1 0 1-1.732l-6.063-3.5a1 1 0 0 0 -1 1.732z"/><path d="m2.777 9.366.867.5a1 1 0 1 0 1-1.732l-.867-.5a1 1 0 1 0 -1 1.732z"/><path d="m7.107 11.866.867.5a1 1 0 1 0 1-1.732l-.867-.5a1 1 0 1 0 -1 1.732z"/><path d="m41 42v1a1 1 0 0 0 2 0v-1a1 1 0 0 0 -2 0z"/><path d="m39.707 50.293a1 1 0 0 0 -1.414 1.414l1 1a1 1 0 0 0 1.414-1.414z"/><circle cx="41" cy="47" r="2"/><circle cx="25" cy="50" r="2"/><path d="m22 46h-1a1 1 0 0 0 0 2h1a1 1 0 0 0 0-2z"/><path d="m22 44a1 1 0 0 0 1-1v-1a1 1 0 0 0 -2 0v1a1 1 0 0 0 1 1z"/><path d="m25 40h1a1 1 0 0 0 0-2h-1a1 1 0 0 0 0 2z"/><path d="m40 39a1 1 0 0 0 -1-1h-1a1 1 0 0 0 0 2h1a1 1 0 0 0 1-1z"/><circle cx="30" cy="20" r="1"/><circle cx="27" cy="20" r="1"/></g></g></svg>