<svg height="512" viewBox="0 0 64 64" width="512" xmlns="http://www.w3.org/2000/svg"><g id="virus-covid19-corona-lung-coronavirus"><path d="m34 3v28l8 4v4l-9.959-5-10.041 5v-4l8-4v-28z" fill="#9bc9ff"/><path d="m22 20h-.79a16 16 0 0 0 -15.89 14.11l-2.33 19.61a6 6 0 0 0 7.18 6.58l6.28-1.31a12 12 0 0 0 9.55-11.75v-23.24a4 4 0 0 0 -4-4zm-12 30a2 2 0 1 1 2-2 2 2 0 0 1 -2 2zm7-21a2 2 0 1 1 2-2 2 2 0 0 1 -2 2z" fill="#9bc9ff"/><path d="m61.01 53.72-2.33-19.61a15.954 15.954 0 0 0 -4.953-9.772 10.955 10.955 0 0 1 -12.827-4.165 3.988 3.988 0 0 0 -2.9 3.827v23.24a12 12 0 0 0 9.55 11.75l6.28 1.31a6 6 0 0 0 7.18-6.58zm-12.01-22.72a2 2 0 1 1 2 2 2 2 0 0 1 -2-2zm5 19a2 2 0 1 1 2-2 2 2 0 0 1 -2 2z" fill="#9bc9ff"/><circle cx="50" cy="7" fill="none" r="1"/><path d="m55.657 9.757a1 1 0 1 0 -1.414 0 1 1 0 0 0 1.414 0z" fill="none"/><path d="m53 14a3 3 0 1 0 -.879 2.121 2.991 2.991 0 0 0 .879-2.121z" fill="none"/><path d="m45.757 8.343a1 1 0 1 0 0 1.414 1 1 0 0 0 0-1.414z" fill="none"/><path d="m44.343 18.243a1 1 0 1 0 1.414 0 1 1 0 0 0 -1.414 0z" fill="none"/><circle cx="43" cy="14" fill="none" r="1"/><circle cx="57" cy="14" fill="none" r="1"/><path d="m54.243 19.657a1 1 0 1 0 0-1.414 1 1 0 0 0 0 1.414z" fill="none"/><path d="m51 21a1 1 0 0 0 -2 0 .978.978 0 0 0 .059.292q.674.288 1.313.633a1 1 0 0 0 .628-.925z" fill="none"/><g fill="#9bc9ff"><path d="m50 22a1 1 0 0 0 .372-.075q-.641-.345-1.313-.633a.988.988 0 0 0 .941.708z"/><path d="m47.879 16.121a3 3 0 0 0 4.242 0 3 3 0 1 0 -4.242 0z"/><circle cx="50" cy="7" r="1"/><path d="m45.757 8.343a1 1 0 1 0 0 1.414 1 1 0 0 0 0-1.414z"/><circle cx="43" cy="14" r="1"/><path d="m44.343 18.243a1 1 0 1 0 1.414 0 1 1 0 0 0 -1.414 0z"/><circle cx="50" cy="21" r="1"/><path d="m54.243 19.657a1 1 0 1 0 0-1.414 1 1 0 0 0 0 1.414z"/><circle cx="57" cy="14" r="1"/><path d="m55.657 9.757a1 1 0 1 0 -1.414 0 1 1 0 0 0 1.414 0z"/></g><path d="m44.722 15h1.42a3.915 3.915 0 0 0 .425 1.019l-1.005 1.006a2 2 0 1 0 1.412 1.415l1.007-1.007a3.915 3.915 0 0 0 1.019.425v1.42a2 2 0 1 0 2 0v-1.42a3.915 3.915 0 0 0 1.019-.425l1.006 1.007a2 2 0 0 0 .509 1.923 2 2 0 1 0 .9-3.339l-1.006-1.006a3.915 3.915 0 0 0 .43-1.018h1.42a2 2 0 1 0 0-2h-1.42a3.915 3.915 0 0 0 -.425-1.019l1.006-1.006a2.015 2.015 0 0 0 .51.074 2.006 2.006 0 1 0 -1.923-1.489l-1.007 1.007a3.915 3.915 0 0 0 -1.019-.425v-1.42a2 2 0 1 0 -2 0v1.42a3.915 3.915 0 0 0 -1.019.425l-1.006-1.007a2 2 0 0 0 -.509-1.923 2 2 0 1 0 -1.415 3.413 2.022 2.022 0 0 0 .511-.074l1.006 1.006a3.915 3.915 0 0 0 -.426 1.018h-1.42a2 2 0 1 0 0 2zm5.278-3a2 2 0 1 1 -2 2 2 2 0 0 1 2-2z" fill="#1e81ce"/><path d="m62 53.6-2.33-19.61a17.027 17.027 0 0 0 -4.207-9.322 11.993 11.993 0 1 0 -16.013-4.95 5.01 5.01 0 0 0 -2.45 4.282v7.382l-2-1v-27.382a1 1 0 0 0 -2 0v28a1 1 0 0 0 .553.895l7.447 3.723v1.761l-8.511-4.273a1 1 0 0 0 -.893 0l-8.596 4.279v-1.767l7.447-3.718a1 1 0 0 0 .553-.9v-28a1 1 0 0 0 -2 0v27.382l-2 1v-7.382a5.006 5.006 0 0 0 -5-5h-.79a17.013 17.013 0 0 0 -16.883 14.992l-2.327 19.608a7 7 0 0 0 6.922 7.828 7.225 7.225 0 0 0 1.455-.15l6.28-1.31a13.057 13.057 0 0 0 10.343-12.728v-9.613l5.039-2.509 4.961 2.491v9.631a13.057 13.057 0 0 0 10.346 12.729l6.282 1.31a7.2 7.2 0 0 0 1.453.15 7 7 0 0 0 6.919-7.829zm-37-6.36a11.048 11.048 0 0 1 -8.754 10.771l-6.278 1.309a5 5 0 0 1 -5.985-5.482l2.33-19.609a15.012 15.012 0 0 1 14.897-13.229h.79a3 3 0 0 1 3 3v8.382l-2.658 1.329-3.132-4.7a3.2 3.2 0 1 0 -1.774.944l2.696 4.045h-4.832l-2.748-1.832a1 1 0 0 0 -1.11 1.664l1.758 1.168-1.752 1.168a1 1 0 0 0 1.11 1.664l2.742-1.832h5.7v2.5l-3.333 2.5h-2.505l-2.846-.949a1 1 0 0 0 -.632 1.9l3 1a1 1 0 0 0 .316.049h2v4h-4.184a3 3 0 1 0 0 2h4.184v1.586l-2.707 2.707a1 1 0 1 0 1.414 1.414l3-3a1 1 0 0 0 .293-.707v-8.5l2-1.5v4a1 1 0 0 0 2 0v-5.381l2-1zm-8-19.24a1 1 0 1 1 1-1 1 1 0 0 1 -1 1zm-6 20a1 1 0 1 1 -1-1 1 1 0 0 1 1 1zm39-44a10 10 0 1 1 -10 10 10.011 10.011 0 0 1 10-10zm8.443 54.1a4.959 4.959 0 0 1 -4.409 1.217l-6.28-1.31a11.048 11.048 0 0 1 -8.754-10.767v-8.627l2 1v5.387a1 1 0 0 0 2 0v-4l2 1.5v8.5a1 1 0 0 0 .293.707l3 3a1 1 0 0 0 1.414-1.414l-2.707-2.707v-1.586h4.184a3 3 0 1 0 0-2h-4.184v-4h2a1 1 0 0 0 .316-.051l3-1a1 1 0 0 0 -.632-1.9l-2.846.951h-2.505l-3.333-2.5v-2.5h5.7l2.748 1.832a1 1 0 1 0 1.11-1.664l-2.266-1.51.348-.7a2.9 2.9 0 0 0 .36.042 3.015 3.015 0 1 0 -2.156-.923l-.462.923h-4.615l2.09-3.485a1 1 0 0 0 -1.714-1.03l-2.524 4.206-2.619-1.309v-8.382a3 3 0 0 1 1.559-2.618 11.952 11.952 0 0 0 12.911 4.1 15.018 15.018 0 0 1 4.217 8.744l2.33 19.612a4.929 4.929 0 0 1 -1.574 4.262zm-5.443-10.1a1 1 0 1 1 1 1 1 1 0 0 1 -1-1zm-3-17a1 1 0 1 1 1 1 1 1 0 0 1 -1-1z" fill="#1e81ce"/><path d="m42 47a1 1 0 0 0 -1 1v1a1 1 0 0 0 2 0v-1a1 1 0 0 0 -1-1z" fill="#1e81ce"/><path d="m55 38a1 1 0 0 0 -1 1v1a1 1 0 0 0 2 0v-1a1 1 0 0 0 -1-1z" fill="#1e81ce"/><path d="m54 54h-1a1 1 0 0 0 0 2h1a1 1 0 0 0 0-2z" fill="#1e81ce"/><path d="m22 47a1 1 0 0 0 -1 1v1a1 1 0 0 0 2 0v-1a1 1 0 0 0 -1-1z" fill="#1e81ce"/><path d="m9 41a1 1 0 0 0 1-1v-1a1 1 0 0 0 -2 0v1a1 1 0 0 0 1 1z" fill="#1e81ce"/><path d="m11 54h-1a1 1 0 0 0 0 2h1a1 1 0 0 0 0-2z" fill="#1e81ce"/></g></svg>