<svg height="512" viewBox="0 0 64 64" width="512" xmlns="http://www.w3.org/2000/svg"><g id="virus-covid19-corona-mask-protect"><g fill="#9bc9ff"><path d="m47 45h-2c0 4.97-5.82 9-13 9s-13-4.03-13-9h-2a12 12 0 0 0 -12 12v4h54v-4a12 12 0 0 0 -12-12z"/><path d="m26.991 14.812 2.009-2.812 1.994 2.8a10 10 0 0 0 8.146 4.2h6.86v-2a14 14 0 0 0 -28 0v2h.854a10 10 0 0 0 8.137-4.188z"/><path d="m32 26-9 2v9.71a13.927 13.927 0 0 0 18 0v-9.71z"/><path d="m48 10h-3.88a13.854 13.854 0 0 1 1.88 7v5h2a2 2 0 0 1 2 2v3a2 2 0 0 1 -2 2h-1.961a15.978 15.978 0 0 0 5.961 11.8l4 3.2v-26a8 8 0 0 0 -8-8z"/><path d="m46 27a14.033 14.033 0 0 1 -.144 2h.183c-.01-.231-.039-.458-.039-.69z"/></g><path d="m27 22h-1a1 1 0 0 0 0 2h1a1 1 0 0 0 0-2z" fill="#1e81ce"/><path d="m38 22h-1a1 1 0 0 0 0 2h1a1 1 0 0 0 0-2z" fill="#1e81ce"/><path d="m47 44h-7a1 1 0 0 1 -1-1v-2.74a15.115 15.115 0 0 0 6.7-7.19 16.823 16.823 0 0 0 5.68 8.51l4 3.2a.961.961 0 0 0 .62.22.935.935 0 0 0 .43-.1 1 1 0 0 0 .57-.9v-26a9.014 9.014 0 0 0 -9-9h-3.33a14.988 14.988 0 0 0 -27.67 8v4h-1a3.009 3.009 0 0 0 -3 3v3a3.009 3.009 0 0 0 3 3h1.31a15.126 15.126 0 0 0 7.69 10.26v2.74a1 1 0 0 1 -1 1h-7a13.012 13.012 0 0 0 -13 13v4a1 1 0 0 0 1 1h54a1 1 0 0 0 1-1v-4a13.012 13.012 0 0 0 -13-13zm1-33a7.008 7.008 0 0 1 7 7v23.92l-2.38-1.9a14.9 14.9 0 0 1 -5.53-10.02h.91a3.009 3.009 0 0 0 3-3v-3a3.009 3.009 0 0 0 -3-3h-1v-4a14.857 14.857 0 0 0 -1.26-6zm-1.04 17c.03-.33.04-.66.04-1v-4h1a1 1 0 0 1 1 1v3a1 1 0 0 1 -1 1zm-30.96 0a1 1 0 0 1 -1-1v-3a1 1 0 0 1 1-1h1v4c0 .34.01.67.04 1zm29-1a13.023 13.023 0 0 1 -3 8.28v-6.92l3-3.6zm-26-10a13 13 0 0 1 26 0v1h-5.86a8.992 8.992 0 0 1 -7.33-3.78l-2-2.8a.991.991 0 0 0 -1.62 0l-2.01 2.81a9.024 9.024 0 0 1 -7.18 3.76zm3 18.28a12.983 12.983 0 0 1 -3-8.28v-2.24l3 3.6zm-3-13.64v-1.64a11.01 11.01 0 0 0 8.8-4.61l1.2-1.67 1.18 1.66a11.028 11.028 0 0 0 8.96 4.62h5.86v1.64l-4.38 5.25-8.4-1.87a1.087 1.087 0 0 0 -.44 0l-8.4 1.87zm5 15.6v-8.44l8-1.78 8 1.78v8.44a13.378 13.378 0 0 1 -2.43 1.51 13.082 13.082 0 0 1 -11.14 0 13.378 13.378 0 0 1 -2.43-1.51zm0 8.76a3.009 3.009 0 0 0 3-3v-1.86a14.965 14.965 0 0 0 10 0v1.86a3.009 3.009 0 0 0 3 3h3.9c-.75 3.94-5.79 7-11.9 7s-11.15-3.06-11.9-7zm34 14h-11v-3a1 1 0 0 0 -2 0v3h-26v-3a1 1 0 0 0 -2 0v3h-11v-3a11.007 11.007 0 0 1 11-11h1.07c.71 5.05 6.68 9 13.93 9s13.22-3.95 13.93-9h1.07a11.007 11.007 0 0 1 11 11z" fill="#1e81ce"/></g></svg>