<svg height="512" viewBox="0 0 64 64" width="512" xmlns="http://www.w3.org/2000/svg"><g id="virus-covid19-corona-mask-tempurature"><path d="m45 43h-2c0 4.97-5.82 9-13 9s-13-4.03-13-9h-2a12 12 0 0 0 -12 12v6h54v-6a12 12 0 0 0 -12-12z" fill="#9bc9ff"/><path d="m32.361 14.648 2.639-2.648 2.657 2.657a8 8 0 0 0 5.657 2.343h1.686v-6a8 8 0 0 0 -8-8h-14a8 8 0 0 0 -8 8v6h11.7a8 8 0 0 0 5.661-2.352z" fill="#9bc9ff"/><path d="m30 24-9 2v9.71a13.927 13.927 0 0 0 18 0v-9.71z" fill="#9bc9ff"/><circle cx="55" cy="34" fill="none" r="1"/><path d="m58 30v-10.99l-6-.01v11a5 5 0 1 0 6 0zm-3 5a1 1 0 1 1 1-1 1 1 0 0 1 -1 1z" fill="#9bc9ff"/><circle cx="55" cy="34" fill="#9bc9ff" r="1"/><g fill="#1e81ce"><path d="m25 20h-1a1 1 0 0 0 0 2h1a1 1 0 0 0 0-2z"/><path d="m36 20h-1a1 1 0 0 0 0 2h1a1 1 0 0 0 0-2z"/><path d="m45 42h-7a1 1 0 0 1 -1-1v-2.74a15.126 15.126 0 0 0 7.69-10.26h1.31a3.009 3.009 0 0 0 3-3v-3a3.009 3.009 0 0 0 -3-3h-1v-1a1 1 0 0 0 1-1v-6a9.014 9.014 0 0 0 -9-9h-14a9.014 9.014 0 0 0 -9 9v6a1 1 0 0 0 1 1v1h-1a3.009 3.009 0 0 0 -3 3v3a3.009 3.009 0 0 0 3 3h1.31a15.126 15.126 0 0 0 7.69 10.26v2.74a1 1 0 0 1 -1 1h-7a13.012 13.012 0 0 0 -13 13v6a1 1 0 0 0 1 1h54a1 1 0 0 0 1-1v-6a13.012 13.012 0 0 0 -13-13zm0-17v-4h1a1 1 0 0 1 1 1v3a1 1 0 0 1 -1 1h-1.04c.03-.33.04-.66.04-1zm-31 1a1 1 0 0 1 -1-1v-3a1 1 0 0 1 1-1h1v4c0 .34.01.67.04 1zm29-1a13 13 0 0 1 -3 8.28v-6.92l3-3.6zm-27-14a7.008 7.008 0 0 1 7-7h14a7.008 7.008 0 0 1 7 7v5h-.69a6.977 6.977 0 0 1 -4.95-2.05l-2.65-2.66a1.014 1.014 0 0 0 -1.42 0l-2.64 2.65a7.034 7.034 0 0 1 -4.96 2.06h-10.69zm4 22.28a12.983 12.983 0 0 1 -3-8.28v-2.24l3 3.6zm-3-13.64v-1.64h9.69a9.04 9.04 0 0 0 6.38-2.65l1.93-1.93 1.95 1.94a8.882 8.882 0 0 0 6.05 2.63v1.65l-4.38 5.25-8.4-1.87a1.087 1.087 0 0 0 -.44 0l-8.4 1.87zm5 15.6v-8.44l8-1.78 8 1.78v8.44a13.378 13.378 0 0 1 -2.43 1.51 13.082 13.082 0 0 1 -11.14 0 13.378 13.378 0 0 1 -2.43-1.51zm0 8.76a3.009 3.009 0 0 0 3-3v-1.86a14.965 14.965 0 0 0 10 0v1.86a3.009 3.009 0 0 0 3 3h3.9c-.75 3.94-5.79 7-11.9 7s-11.15-3.06-11.9-7zm34 16h-11v-5a1 1 0 0 0 -2 0v5h-26v-5a1 1 0 0 0 -2 0v5h-11v-5a11.007 11.007 0 0 1 11-11h1.07c.71 5.05 6.68 9 13.93 9s13.22-3.95 13.93-9h1.07a11.007 11.007 0 0 1 11 11z"/><path d="m59 29.53v-17.53a4 4 0 0 0 -8 0v17.53a6 6 0 1 0 8 0zm-6-17.53a2.006 2.006 0 0 1 2-2 2.015 2.015 0 0 1 2 2v.01l-2-.01v2l2 .01v1l-2-.01v2l2 .01v1l-4-.01zm2 26a4 4 0 0 1 -2.4-7.2 1.014 1.014 0 0 0 .4-.8v-10l4 .01v1l-2-.01v2l2 .01v1l-2-.01v2l2 .01v1l-2-.01v2l2 .01v.99a1.014 1.014 0 0 0 .4.8 4 4 0 0 1 -2.4 7.2z"/><circle cx="55" cy="34" r="2"/><path d="m55 6a1 1 0 0 0 1-1v-2a1 1 0 0 0 -2 0v2a1 1 0 0 0 1 1z"/><path d="m49.343 7.757a1 1 0 0 0 1.414-1.414l-1.414-1.414a1 1 0 0 0 -1.414 1.414z"/><path d="m62.071 4.929a1 1 0 0 0 -1.414 0l-1.414 1.414a1 1 0 1 0 1.414 1.414l1.414-1.414a1 1 0 0 0 0-1.414z"/></g></g></svg>