<svg height="512" viewBox="0 0 64 64" width="512" xmlns="http://www.w3.org/2000/svg"><g id="virus-covid19-corona-people-spreading"><g fill="#9bc9ff"><path d="m43 10h-12a2.006 2.006 0 0 0 -2 2v7h4v11h8v-11h4v-7a2.006 2.006 0 0 0 -2-2z"/><path d="m59 10h-12a2.006 2.006 0 0 0 -2 2v7h4v11h8v-11h4v-7a2.006 2.006 0 0 0 -2-2z"/><path d="m43 41h-12a2.006 2.006 0 0 0 -2 2v7h4v11h8v-11h4v-7a2.006 2.006 0 0 0 -2-2z"/><path d="m59 41h-12a2.006 2.006 0 0 0 -2 2v7h4v11h8v-11h4v-7a2.006 2.006 0 0 0 -2-2z"/><path d="m11.879 18.121a3 3 0 0 0 4.242 0 3 3 0 1 0 -4.242 0z"/><circle cx="14" cy="9" r="1"/><path d="m9.757 10.343a1 1 0 1 0 0 1.414 1 1 0 0 0 0-1.414z"/><circle cx="7" cy="16" r="1"/><path d="m8.343 20.243a1 1 0 1 0 1.414 0 1 1 0 0 0 -1.414 0z"/><circle cx="14" cy="23" r="1"/><path d="m18.243 21.657a1 1 0 1 0 0-1.414 1 1 0 0 0 0 1.414z"/><circle cx="21" cy="16" r="1"/><path d="m19.657 11.757a1 1 0 1 0 -1.414 0 1 1 0 0 0 1.414 0z"/><path d="m30 34-5-5v3h-6v4h6v3z"/></g><path d="m8.722 17h1.42a3.915 3.915 0 0 0 .425 1.019l-1.006 1.006a2 2 0 1 0 1.414 1.414l1.006-1.006a3.915 3.915 0 0 0 1.019.425v1.42a2 2 0 1 0 2 0v-1.42a3.915 3.915 0 0 0 1.019-.425l1.006 1.006a2 2 0 1 0 1.414-1.414l-1.006-1.006a3.915 3.915 0 0 0 .425-1.019h1.42a2 2 0 1 0 0-2h-1.42a3.915 3.915 0 0 0 -.425-1.019l1.006-1.006a2.016 2.016 0 0 0 .511.074 2 2 0 1 0 -1.925-1.488l-1.006 1.006a3.915 3.915 0 0 0 -1.019-.425v-1.42a2 2 0 1 0 -2 0v1.42a3.915 3.915 0 0 0 -1.019.425l-1.006-1.006a1.993 1.993 0 1 0 -1.925 1.488 2.016 2.016 0 0 0 .511-.074l1.006 1.006a3.915 3.915 0 0 0 -.425 1.019h-1.42a2 2 0 1 0 0 2zm5.278-3a2 2 0 1 1 -2 2 2 2 0 0 1 2-2z" fill="#1e81ce"/><path d="m17 38h-3.38a4 4 0 1 0 -5.24 0h-3.38a3.009 3.009 0 0 0 -3 3v7a1 1 0 0 0 1 1h3v10a1 1 0 0 0 1 1h8a1 1 0 0 0 1-1v-10h3a1 1 0 0 0 1-1v-7a3.009 3.009 0 0 0 -3-3zm-6-5a2 2 0 1 1 -2 2 2.006 2.006 0 0 1 2-2zm7 14h-2v-4a1 1 0 0 0 -2 0v15h-2v-8a1 1 0 0 0 -2 0v8h-2v-15a1 1 0 0 0 -2 0v4h-2v-6a1 1 0 0 1 1-1h12a1 1 0 0 1 1 1z" fill="#1e81ce"/><path d="m59 40h-3.38a4 4 0 1 0 -5.24 0h-3.38a2.974 2.974 0 0 0 -2 .78 2.974 2.974 0 0 0 -2-.78h-3.38a4 4 0 1 0 -5.24 0h-3.38a3.009 3.009 0 0 0 -3 3v7a1 1 0 0 0 1 1h3v10a1 1 0 0 0 1 1h8a1 1 0 0 0 1-1v-10h6v10a1 1 0 0 0 1 1h8a1 1 0 0 0 1-1v-10h3a1 1 0 0 0 1-1v-7a3.009 3.009 0 0 0 -3-3zm-22-5a2 2 0 1 1 -2 2 2.006 2.006 0 0 1 2-2zm7 14h-2v-4a1 1 0 0 0 -2 0v15h-2v-8a1 1 0 0 0 -2 0v8h-2v-15a1 1 0 0 0 -2 0v4h-2v-6a1 1 0 0 1 1-1h12a1 1 0 0 1 1 1zm9-14a2 2 0 1 1 -2 2 2.006 2.006 0 0 1 2-2zm7 14h-2v-4a1 1 0 0 0 -2 0v15h-2v-8a1 1 0 0 0 -2 0v8h-2v-15a1 1 0 0 0 -2 0v4h-2v-6a1 1 0 0 1 1-1h12a1 1 0 0 1 1 1z" fill="#1e81ce"/><path d="m59 9h-3.38a4 4 0 1 0 -5.24 0h-3.38a2.974 2.974 0 0 0 -2 .78 2.974 2.974 0 0 0 -2-.78h-3.38a4 4 0 1 0 -5.24 0h-3.38a3.009 3.009 0 0 0 -3 3v7a1 1 0 0 0 1 1h3v10a1 1 0 0 0 1 1h8a1 1 0 0 0 1-1v-10h6v10a1 1 0 0 0 1 1h8a1 1 0 0 0 1-1v-10h3a1 1 0 0 0 1-1v-7a3.009 3.009 0 0 0 -3-3zm-22-5a2 2 0 1 1 -2 2 2.006 2.006 0 0 1 2-2zm7 14h-2v-4a1 1 0 0 0 -2 0v15h-2v-8a1 1 0 0 0 -2 0v8h-2v-15a1 1 0 0 0 -2 0v4h-2v-6a1 1 0 0 1 1-1h12a1 1 0 0 1 1 1zm9-14a2 2 0 1 1 -2 2 2.006 2.006 0 0 1 2-2zm7 14h-2v-4a1 1 0 0 0 -2 0v15h-2v-8a1 1 0 0 0 -2 0v8h-2v-15a1 1 0 0 0 -2 0v4h-2v-6a1 1 0 0 1 1-1h12a1 1 0 0 1 1 1z" fill="#1e81ce"/><path d="m14 28a12 12 0 1 0 -12-12 12.013 12.013 0 0 0 12 12zm0-22a10 10 0 1 1 -10 10 10.011 10.011 0 0 1 10-10z" fill="#1e81ce"/><path d="m30.707 33.293-5-5a1 1 0 0 0 -1.707.707v2h-5a1 1 0 0 0 -1 1v4a1 1 0 0 0 1 1h5v2a1 1 0 0 0 1.707.707l5-5a1 1 0 0 0 0-1.414zm-4.707 3.293v-.586a1 1 0 0 0 -1-1h-5v-2h5a1 1 0 0 0 1-1v-.586l2.586 2.586z" fill="#1e81ce"/></g></svg>