<svg height="512" viewBox="0 0 64 64" width="512" xmlns="http://www.w3.org/2000/svg"><g id="virus-covid19-corona-rip-dead"><circle cx="57" cy="14" fill="#9bc9ff" r="1"/><circle cx="57" cy="14" fill="none" r="1"/><g fill="#9bc9ff"><path d="m39 14a10.961 10.961 0 0 1 3.24-7.794 17.99 17.99 0 0 0 -28.24 14.794v38h36v-34a11 11 0 0 1 -11-11z"/><path d="m47.879 11.879-.979-.979c.274.4.523.823.764 1.248a2.933 2.933 0 0 1 .215-.269z"/><path d="m49.95 20.01c.018 0 .032-.01.05-.01v-3a2.974 2.974 0 0 1 -.474-.048 18 18 0 0 1 .424 3.058z"/><path d="m46.9 10.9c-.315-.463-.648-.911-1-1.342a.932.932 0 0 1 -.135.2z"/><path d="m49.526 16.952a2.995 2.995 0 1 0 -1.647-5.073 2.933 2.933 0 0 0 -.219.265 17.859 17.859 0 0 1 1.866 4.808z"/><path d="m47 14a2.978 2.978 0 0 0 2.526 2.952 17.859 17.859 0 0 0 -1.866-4.808 2.969 2.969 0 0 0 -.66 1.856z"/><circle cx="50" cy="7" r="1"/><path d="m45.892 9.554a.979.979 0 0 0 -1.281-1.389 18.1 18.1 0 0 1 1.281 1.389z"/><path d="m44.343 9.757a1 1 0 0 0 1.414 0 .932.932 0 0 0 .135-.2 18.1 18.1 0 0 0 -1.281-1.389.969.969 0 0 0 -.268 1.592z"/><circle cx="43" cy="14" r="1"/><path d="m44.343 18.243a1 1 0 1 0 1.414 0 1 1 0 0 0 -1.414 0z"/><path d="m50 21v1a1 1 0 0 0 0-2c-.018 0-.032.009-.05.01.018.33.05.656.05.99z"/><path d="m49.95 20.01a1 1 0 0 0 .05 1.99v-1c0-.334-.032-.66-.05-.99z"/><path d="m54.243 19.657a1 1 0 1 0 0-1.414 1 1 0 0 0 0 1.414z"/><path d="m55.657 9.757a1 1 0 1 0 -1.414 0 1 1 0 0 0 1.414 0z"/><path d="m14.412 56.278-.412.17-11 4.552h58l-11-4.552-.412-.17a46 46 0 0 0 -35.176 0z"/></g><path d="m46.142 13h-1.42a2 2 0 1 0 0 2h1.42a3.915 3.915 0 0 0 .425 1.019l-1.006 1.006a2 2 0 1 0 1.414 1.414l1.006-1.006a3.915 3.915 0 0 0 1.019.425v1.42a2 2 0 1 0 2 0v-1.42a3.915 3.915 0 0 0 1.019-.425l1.006 1.006a2 2 0 1 0 1.414-1.414l-1.006-1.006a3.915 3.915 0 0 0 .425-1.019h1.42a2 2 0 1 0 0-2h-1.42a3.915 3.915 0 0 0 -.425-1.019l1.006-1.006a2.016 2.016 0 0 0 .511.074 2 2 0 1 0 -1.925-1.488l-1.006 1.006a3.915 3.915 0 0 0 -1.019-.425v-1.42a2 2 0 1 0 -2 0v1.42a3.915 3.915 0 0 0 -1.019.425l-1.006-1.006a1.993 1.993 0 1 0 -1.925 1.488 2.016 2.016 0 0 0 .511-.074l1.006 1.006a3.915 3.915 0 0 0 -.425 1.019zm3.858-1a2 2 0 1 1 -2 2 2 2 0 0 1 2-2z" fill="#1e81ce"/><path d="m61.38 60.08-3.38-1.4v-3.82a4 4 0 0 0 3-3.86v-3a1 1 0 0 0 -2 0v3a1.988 1.988 0 0 1 -1 1.72v-4.72a1 1 0 0 0 -2 0v4.72a1.988 1.988 0 0 1 -1-1.72v-3a1 1 0 0 0 -2 0v3a4 4 0 0 0 3 3.86v2.99l-5-2.07v-29.83a12 12 0 1 0 -8.86-21 18.978 18.978 0 0 0 -29.14 16.05v34.78l-5 2.07v-2.99a4 4 0 0 0 3-3.86v-3a1 1 0 0 0 -2 0v3a1.988 1.988 0 0 1 -1 1.72v-4.72a1 1 0 0 0 -2 0v4.72a1.988 1.988 0 0 1 -1-1.72v-3a1 1 0 0 0 -2 0v3a4 4 0 0 0 3 3.86v3.82l-3.38 1.4a1 1 0 0 0 .38 1.92h58a1 1 0 0 0 .38-1.92zm-11.38-56.08a10 10 0 1 1 -10 10 10.016 10.016 0 0 1 10-10zm-35 17a17.024 17.024 0 0 1 17-17 16.8 16.8 0 0 1 8.71 2.41 11.989 11.989 0 0 0 8.29 19.54v29.03a46.621 46.621 0 0 0 -34 0zm-6.97 39 6.76-2.8a44.74 44.74 0 0 1 34.42 0l6.76 2.8z" fill="#1e81ce"/><path d="m24.81 31.92a4 4 0 0 0 -.81-7.92h-3a1 1 0 0 0 -1 1v12a1 1 0 0 0 2 0v-5h.46l3.71 5.55a1 1 0 0 0 .83.45.939.939 0 0 0 .55-.17.99.99 0 0 0 .28-1.38zm-2.81-1.92v-4h2a2 2 0 0 1 0 4z" fill="#1e81ce"/><path d="m32 38a1 1 0 0 0 1-1v-12a1 1 0 0 0 -2 0v12a1 1 0 0 0 1 1z" fill="#1e81ce"/><path d="m37 38a1 1 0 0 0 1-1v-5h2a4 4 0 0 0 0-8h-3a1 1 0 0 0 -1 1v12a1 1 0 0 0 1 1zm1-12h2a2 2 0 0 1 0 4h-2z" fill="#1e81ce"/><path d="m21 44h22a1 1 0 0 0 0-2h-22a1 1 0 0 0 0 2z" fill="#1e81ce"/><path d="m40 46h-16a1 1 0 0 0 0 2h16a1 1 0 0 0 0-2z" fill="#1e81ce"/></g></svg>