<svg height="512" viewBox="0 0 64 64" width="512" xmlns="http://www.w3.org/2000/svg"><g id="virus-covid19-corona-roll-hygiene"><path d="m21 29a28.992 28.992 0 0 1 -10-1.686c-4.823-1.794-8-4.847-8-8.314v32c0 5.523 8.059 10 18 10s18-4.477 18-10v-32c0 5.523-8.059 10-18 10z" fill="#9bc9ff"/><path d="m11 27.314a28.992 28.992 0 0 0 10 1.686c9.941 0 18-4.477 18-10s-8.059-10-18-10-18 4.477-18 10c0 3.467 3.177 6.52 8 8.314zm10-11.314c3.866 0 7 1.343 7 3s-3.134 3-7 3-7-1.343-7-3 3.134-3 7-3z" fill="#9bc9ff"/><path d="m39.413 19.3-.413-.3v32l.413.3a18 18 0 0 0 21.174 0l.413-.3v-32l-.413.3a18 18 0 0 1 -21.174 0z" fill="#9bc9ff"/><g fill="#1e81ce"><path d="m21 23c3.976 0 8-1.374 8-4s-4.024-4-8-4-8 1.374-8 4 4.024 4 8 4zm0-6c3.722 0 6 1.3 6 2s-2.278 2-6 2-6-1.3-6-2 2.278-2 6-2z"/><path d="m61.454 18.109a1 1 0 0 0 -1.042.082l-.413.3a16.954 16.954 0 0 1 -20 0l-.047-.034c-.475-5.905-8.615-10.457-18.952-10.457-10.654 0-19 4.832-19 11v32c0 6.168 8.346 11 19 11 9.633 0 17.356-3.955 18.753-9.271a18.908 18.908 0 0 0 21.422-.62l.413-.3a1 1 0 0 0 .412-.809v-32a1 1 0 0 0 -.546-.891zm-40.454-8.109c9.215 0 17 4.122 17 9s-7.785 9-17 9-17-4.122-17-9 7.785-9 17-9zm0 50a28.28 28.28 0 0 1 -9-1.422v-1.268a1 1 0 0 0 -2 0v.48c-3.643-1.665-6-4.111-6-6.79v-27.033a15.486 15.486 0 0 0 6 4.047v1.3a1 1 0 1 0 2 0v-.584a31.03 31.03 0 0 0 9 1.27c7.545 0 13.914-2.429 17-6.033v27.033c0 4.878-7.785 9-17 9zm39-9.509a16.954 16.954 0 0 1 -20 0v-29.591a18.935 18.935 0 0 0 20 0z"/><path d="m11 44.31a1 1 0 0 0 -1 1v2a1 1 0 0 0 2 0v-2a1 1 0 0 0 -1-1z"/><path d="m11 50.31a1 1 0 0 0 -1 1v2a1 1 0 0 0 2 0v-2a1 1 0 0 0 -1-1z"/><path d="m11 32.31a1 1 0 0 0 -1 1v2a1 1 0 0 0 2 0v-2a1 1 0 0 0 -1-1z"/><path d="m11 38.31a1 1 0 0 0 -1 1v2a1 1 0 0 0 2 0v-2a1 1 0 0 0 -1-1z"/></g></g></svg>