<svg height="512" viewBox="0 0 64 64" width="512" xmlns="http://www.w3.org/2000/svg"><g id="virus-covid19-corona-spray-handwash"><path d="m9 47v-14-2h-6v18h6z" fill="#9bc9ff"/><path d="m53 29h-5-3v8h12v16h-12v8h16v-32h-3z" fill="#9bc9ff"/><path d="m53 25h-3-2v4h5z" fill="#9bc9ff"/><path d="m53 29h5v-4h-2-3z" fill="#9bc9ff"/><path d="m56 25v-10h-6v2 3 5h3z" fill="#9bc9ff"/><path d="m47 17h3v3h-3z" fill="#9bc9ff"/><g fill="#1e81ce"><path d="m41.99 39.74a3.037 3.037 0 0 0 -2.21-2.61 2.97 2.97 0 0 0 .21-1.39 3.073 3.073 0 0 0 -3.1-2.74h-7.43a3.989 3.989 0 0 0 .54-2v-1a1 1 0 0 0 -1-1h-10.34a4.994 4.994 0 0 0 -3.54 1.46l-.66.66a2.956 2.956 0 0 1 -2.12.88h-2.34v-1a1 1 0 0 0 -1-1h-6a1 1 0 0 0 -1 1v18a1 1 0 0 0 1 1h6a1 1 0 0 0 1-1v-1h2.34a2.956 2.956 0 0 1 2.12.88l.66.66a4.994 4.994 0 0 0 3.54 1.46h14.34a3 3 0 0 0 3-3 3 3 0 0 0 -.17-1h1.17a3 3 0 0 0 3-3 2.873 2.873 0 0 0 -.21-1.1 2.942 2.942 0 0 0 1.32-.77 2.977 2.977 0 0 0 .88-2.39zm-33.99 8.26h-4v-16h4zm31.69-7.29a.928.928 0 0 1 -.69.29h-12a1 1 0 0 0 0 2h10a1 1 0 0 1 1 1 .949.949 0 0 1 -.31.71.928.928 0 0 1 -.69.29h-10a1 1 0 0 0 0 2h6a1 1 0 0 1 1 1 .949.949 0 0 1 -.31.71.928.928 0 0 1 -.69.29h-14.34a2.956 2.956 0 0 1 -2.12-.88l-.66-.66a4.994 4.994 0 0 0 -3.54-1.46h-2.34v-12h2.34a4.994 4.994 0 0 0 3.54-1.46l.66-.66a2.956 2.956 0 0 1 2.12-.88h9.34a2.006 2.006 0 0 1 -2 2h-3a1 1 0 0 0 -1 1 3.009 3.009 0 0 1 -3 3h-1a1 1 0 0 0 0 2h1a5.009 5.009 0 0 0 4.9-4h12.99a1.092 1.092 0 0 1 1.11.91.985.985 0 0 1 -.31.8.928.928 0 0 1 -.69.29h-10a1 1 0 0 0 0 2h11.89a1.092 1.092 0 0 1 1.11.91.985.985 0 0 1 -.31.8z"/><path d="m61 28h-2v-3a1 1 0 0 0 -1-1h-1v-9a1 1 0 0 0 -1-1h-6a1 1 0 0 0 -1 1v1h-2a1 1 0 0 0 -1 1v3a1 1 0 0 0 1 1h2v3h-1a1 1 0 0 0 -1 1v3h-2a1 1 0 0 0 -1 1v32a1 1 0 0 0 1 1h16a1 1 0 0 0 1-1v-32a1 1 0 0 0 -1-1zm-4-2v2h-3v-2zm-6-10h4v8h-4zm-3 3v-1h1v1zm1 7h3v2h-3zm-3 24h3a1 1 0 0 0 0-2h-3v-2h7a1 1 0 0 0 0-2h-7v-2h7a1 1 0 0 0 0-2h-7v-2h10v14h-10zm14 10h-14v-6h11a1 1 0 0 0 1-1v-16a1 1 0 0 0 -1-1h-11v-6h14z"/><path d="m43 18h-1a1 1 0 0 0 0 2h1a1 1 0 0 0 0-2z"/><path d="m37 20h1a1 1 0 0 0 0-2h-1a1 1 0 0 0 0 2z"/><path d="m32 20h1a1 1 0 0 0 0-2h-1a1 1 0 0 0 0 2z"/><path d="m27 20h1a1 1 0 0 0 0-2h-1a1 1 0 0 0 0 2z"/><path d="m42.036 22.134-.866.5a1 1 0 1 0 1 1.732l.866-.5a1 1 0 0 0 -1-1.732z"/><path d="m37.706 24.634-.866.5a1 1 0 1 0 1 1.732l.866-.5a1 1 0 0 0 -1-1.732z"/><path d="m33.376 27.134-.866.5a1 1 0 1 0 1 1.732l.866-.5a1 1 0 0 0 -1-1.732z"/><path d="m41.17 15.366.866.5a1 1 0 0 0 1-1.732l-.866-.5a1 1 0 1 0 -1 1.732z"/><path d="m36.84 12.866.866.5a1 1 0 1 0 1-1.732l-.866-.5a1 1 0 1 0 -1 1.732z"/><path d="m32.51 10.366.866.5a1 1 0 1 0 1-1.732l-.866-.5a1 1 0 0 0 -1 1.732z"/></g></g></svg>