<svg height="512" viewBox="0 0 64 64" width="512" xmlns="http://www.w3.org/2000/svg"><g id="virus-covid19-door-spray-hygiene"><path d="m41 38a6 6 0 1 1 5.651-8h12.349v-23a4 4 0 0 0 -4-4h-20a4 4 0 0 0 -4 4v50a4 4 0 0 0 4 4h20a4 4 0 0 0 4-4v-23h-12.349a6 6 0 0 1 -5.651 4zm-6-28h20v8h-20zm8 38.23v4.77a2 2 0 0 1 -4 0v-4.77a2.94 2.94 0 0 1 -1-2.23 3 3 0 0 1 6 0 2.94 2.94 0 0 1 -1 2.23z" fill="#9bc9ff"/><path d="m8 28v2.379a10 10 0 0 1 -2.318 6.4l-.364.438a9.99 9.99 0 0 0 -2.291 5.783h15.946a9.99 9.99 0 0 0 -2.291-5.781l-.364-.438a10 10 0 0 1 -2.318-6.402v-2.379z" fill="#9bc9ff"/><path d="m3 55h16v6h-16z" fill="#9bc9ff"/><path d="m9 24h4v4h-4z" fill="#9bc9ff"/><path d="m3.438 23.344-.438.656h12.974 3.026v-6h-5.578a12 12 0 0 0 -9.984 5.344z" fill="#9bc9ff"/><path d="m3 43v.62c0-.207.014-.414.027-.62z" fill="#9bc9ff"/><path d="m19 43h-.027c.013.206.027.413.027.62z" fill="#9bc9ff"/><g fill="#1e81ce"><path d="m41 42a4 4 0 0 0 -3 6.645v4.355a3 3 0 0 0 6 0v-4.355a4 4 0 0 0 -3-6.645zm1.343 5.476a1 1 0 0 0 -.343.754v4.77a1 1 0 0 1 -2 0v-4.77a1 1 0 0 0 -.343-.754 1.949 1.949 0 0 1 -.657-1.476 2 2 0 0 1 4 0 1.949 1.949 0 0 1 -.657 1.476z"/><path d="m60 29.18v-22.18a5 5 0 0 0 -5-5h-20a5 5 0 0 0 -5 5v50a5 5 0 0 0 5 5h20a5 5 0 0 0 5-5v-22.18a2.98 2.98 0 0 0 2-2.82 3.01 3.01 0 0 0 -2-2.82zm-2 27.82a3.009 3.009 0 0 1 -3 3h-20a3.009 3.009 0 0 1 -3-3v-50a3.009 3.009 0 0 1 3-3h20a3.009 3.009 0 0 1 3 3v22h-10.68a7 7 0 1 0 0 6h10.68zm-12-25a5 5 0 1 1 -5-5 5 5 0 0 1 5 5zm13.69.71a.928.928 0 0 1 -.69.29h-11.08a6.29 6.29 0 0 0 0-2h11.08a1 1 0 0 1 1 1 .949.949 0 0 1 -.31.71z"/><path d="m22 20h2v2h-2z"/><path d="m26 18h2v2h-2z"/><path d="m26 14h2v2h-2z"/><path d="m26 26h2v2h-2z"/><path d="m22 16h2v2h-2z"/><path d="m22 24h2v2h-2z"/><path d="m26 22h2v2h-2z"/><path d="m40 13h2v2h-2z"/><path d="m48 13h2v2h-2z"/><path d="m44 13h2v2h-2z"/><path d="m20 24v-6a1 1 0 0 0 -1-1h-5.58a12.951 12.951 0 0 0 -10.81 5.79l-.44.66a.963.963 0 0 0 -.05 1.02.984.984 0 0 0 .88.53h5v2a1 1 0 0 0 -1 1v2.38a8.984 8.984 0 0 1 -2.09 5.76l-.36.44a11.029 11.029 0 0 0 -2.55 7.04v17.38a1 1 0 0 0 1 1h16a1 1 0 0 0 1-1v-17.38a11.029 11.029 0 0 0 -2.55-7.04l-.36-.44a8.984 8.984 0 0 1 -2.09-5.76v-2.38a1 1 0 0 0 -1-1v-2h.99a4.991 4.991 0 0 0 2.22 4.01l1.24.82a.939.939 0 0 0 .55.17 1 1 0 0 0 .55-1.83l-1.23-.83a2.987 2.987 0 0 1 -1.32-2.34h2a1 1 0 0 0 1-1zm-2 36h-14v-4h14zm0-6h-14v-10h14zm-2.45-16.58.36.44a8.946 8.946 0 0 1 1.94 4.14h-13.7a8.946 8.946 0 0 1 1.94-4.14l.36-.44a11.029 11.029 0 0 0 2.55-7.04v-1.38h4v1.38a11.029 11.029 0 0 0 2.55 7.04zm-5.55-10.42v-2h2v2zm8-4h-13.06a10.961 10.961 0 0 1 8.48-4h4.58z"/><path d="m35 19h20a1 1 0 0 0 1-1v-8a1 1 0 0 0 -1-1h-20a1 1 0 0 0 -1 1v8a1 1 0 0 0 1 1zm1-8h18v6h-18z"/></g></g></svg>