<svg height="512" viewBox="0 0 64 64" width="512" xmlns="http://www.w3.org/2000/svg"><g id="virus-covid19-temperature-coronavirus-warning"><path d="m39.64 38.5a27.992 27.992 0 0 0 6.76-10.942l.062-.187a28 28 0 0 1 6.768-10.944l1.812-1.812-5.657-5.657-1.812 1.812a28 28 0 0 1 -10.944 6.764l-.187.062a27.992 27.992 0 0 0 -10.942 6.764l-20.784 20.782 14.142 14.142zm-8.761-11.036 5.657 5.657-11.314 11.314-5.657-5.657zm-19.092 19.092 4.95-4.949 5.656 5.656-4.949 4.95z" fill="#9bc9ff"/><path d="m4.716 53.627 5.657 5.657a6 6 0 0 0 8.485 0l-14.142-14.142a6 6 0 0 0 0 8.485z" fill="#9bc9ff"/><g fill="#1e81ce"><path d="m31.586 26.757a1.029 1.029 0 0 0 -1.414 0l-11.314 11.314a1 1 0 0 0 0 1.414l5.657 5.657a1 1 0 0 0 1.414 0l11.313-11.314a1 1 0 0 0 0-1.414zm-6.364 16.264-4.243-4.243 9.9-9.9 4.242 4.243z"/><path d="m3 22h20a1 1 0 0 0 .876-1.483l-9.926-18a1 1 0 0 0 -.873-.517 1 1 0 0 0 -.873.512l-10.074 18a1 1 0 0 0 .87 1.488zm10.067-16.941 8.24 14.941h-16.601z"/><path d="m13 9a1 1 0 0 0 -1 1v4a1 1 0 0 0 2 0v-4a1 1 0 0 0 -1-1z"/><path d="m13 16a1 1 0 0 0 -1 1v1a1 1 0 0 0 2 0v-1a1 1 0 0 0 -1-1z"/><path d="m17.443 40.9a1.029 1.029 0 0 0 -1.414 0l-4.949 4.95a1 1 0 0 0 0 1.414l5.656 5.657a1 1 0 0 0 1.414 0l4.95-4.95a1 1 0 0 0 0-1.414zm0 9.9-4.243-4.244 3.535-3.535 4.243 4.243z"/><path d="m59.99 4.01a4.985 4.985 0 0 0 -7.07 0l-6.05 6.05a27.157 27.157 0 0 1 -10.56 6.53l-.18.06a29.173 29.173 0 0 0 -11.34 7l-20.78 20.79a7 7 0 0 0 0 9.89l5.66 5.66a6.989 6.989 0 0 0 9.89 0l20.79-20.78a29.173 29.173 0 0 0 7-11.34l.06-.18a27.157 27.157 0 0 1 6.53-10.56l6.05-6.05a4.985 4.985 0 0 0 0-7.07zm-45.37 56.03a4.976 4.976 0 0 1 -3.54-1.46l-5.66-5.66a5 5 0 0 1 -.63-6.29l12.58 12.58a4.941 4.941 0 0 1 -2.75.83zm37.9-44.32a29.173 29.173 0 0 0 -7 11.34l-.06.18a27.157 27.157 0 0 1 -6.53 10.56l-20.07 20.07-12.73-12.73 20.08-20.07a27.048 27.048 0 0 1 10.55-6.53l.19-.06a29.209 29.209 0 0 0 11.33-7l1.1-1.11 2.13 2.12 2.12 2.13zm6.06-6.05-3.54 3.53-2.12-2.12-2.12-2.12 3.53-3.54a3.088 3.088 0 0 1 4.25 0 3.006 3.006 0 0 1 0 4.25z"/></g></g></svg>