<svg height="512" viewBox="0 0 64 64" width="512" xmlns="http://www.w3.org/2000/svg"><g id="virus-covid19-travel-coronavirus-airplane"><g fill="#9bc9ff"><path d="m59.65 42h-6.65a2.006 2.006 0 0 1 -2-2v-3h-38l-1.24-4.97a4.009 4.009 0 0 0 -3.88-3.03h-4.88v8a12 12 0 0 0 12 12h12l3-4h12l-3 4h20a2.015 2.015 0 0 0 2-2 9.94 9.94 0 0 0 -1.35-5z"/><path d="m9.172 14.828a4 4 0 1 0 -1.172-2.828 3.984 3.984 0 0 0 1.172 2.828z"/><circle cx="12" cy="4" r="1"/><path d="m7.05 5.636a1 1 0 1 0 0 1.414 1 1 0 0 0 0-1.414z"/><circle cx="4" cy="12" r="1"/><path d="m5.636 16.95a1 1 0 1 0 1.414 0 1 1 0 0 0 -1.414 0z"/><circle cx="12" cy="20" r="1"/><path d="m16.95 18.364a1 1 0 1 0 0-1.414 1 1 0 0 0 0 1.414z"/><circle cx="20" cy="12" r="1"/><path d="m18.364 7.05a1 1 0 1 0 -1.414 0 1 1 0 0 0 1.414 0z"/><path d="m51.9 12.1a7 7 0 0 0 -9.884-.014l-.016.014a7 7 0 0 0 0 9.9l.037.034a7.007 7.007 0 0 0 9.863-.034c.029-.029.054-.061.082-.09a7 7 0 0 0 -.082-9.81zm-7.071 7.072a1 1 0 1 1 0-1.415 1 1 0 0 1 -.001 1.415zm2.829-4.243a1 1 0 1 1 0-1.414 1 1 0 0 1 -.001 1.414zm2.828 4.243a1 1 0 1 1 0-1.415 1 1 0 0 1 -.001 1.415z"/><path d="m47.657 14.929a1 1 0 1 0 -1.414 0 1 1 0 0 0 1.414 0z"/><path d="m44.828 19.172a1 1 0 1 0 -1.414 0 1 1 0 0 0 1.414 0z"/><path d="m50.485 19.172a1 1 0 1 0 -1.414 0 1 1 0 0 0 1.414 0z"/></g><path d="m4 14a1.993 1.993 0 0 0 1.722-1h1.378a4.969 4.969 0 0 0 .732 1.753l-.979.979a2 2 0 1 0 1.414 1.414l.979-.979a4.969 4.969 0 0 0 1.754.733v1.379a2 2 0 1 0 2 0v-1.379a4.969 4.969 0 0 0 1.753-.732l.979.979a2 2 0 1 0 1.414-1.414l-.979-.979a4.969 4.969 0 0 0 .733-1.754h1.379a2 2 0 1 0 0-2h-1.379a4.969 4.969 0 0 0 -.732-1.753l.979-.979a2 2 0 1 0 -1.414-1.414l-.979.979a4.969 4.969 0 0 0 -1.754-.733v-1.378a2 2 0 1 0 -2 0v1.378a4.969 4.969 0 0 0 -1.753.732l-.979-.979a2 2 0 1 0 -1.414 1.415l.979.979a4.969 4.969 0 0 0 -.733 1.753h-1.378a2 2 0 1 0 -1.722 3zm8-5a3 3 0 1 1 -3 3 3 3 0 0 1 3-3z" fill="#1e81ce"/><path d="m51 36h-11.5l-6.3-8.4a9.048 9.048 0 0 0 -7.2-3.6h-8a1 1 0 0 0 -.8 1.6l7.8 10.4h-11.219l-1.052-4.215a5 5 0 0 0 -4.849-3.785h-4.88a1 1 0 0 0 -1 1v8a13.015 13.015 0 0 0 13 13h10l-7.8 10.4a1 1 0 0 0 .8 1.6h8a9.044 9.044 0 0 0 7.2-3.6l6.3-8.4h19.5a3.017 3.017 0 0 0 3-3 11.013 11.013 0 0 0 -11-11zm6.689 5h-4.689a1 1 0 0 1 -1-1v-1.941a8.978 8.978 0 0 1 5.689 2.941zm-37.689-15h6a7.041 7.041 0 0 1 5.6 2.8l5.4 7.2h-9.5zm11.6 31.2a7.035 7.035 0 0 1 -5.6 2.8h-6l10.5-14h9.5zm28.094-9.488a.957.957 0 0 1 -.694.288h-18l1.8-2.4a1 1 0 0 0 -.8-1.6h-12a1 1 0 0 0 -.8.4l-2.7 3.6h-11.5a11.013 11.013 0 0 1 -11-11v-7h3.88a3 3 0 0 1 2.91 2.272l1.24 4.97a1 1 0 0 0 .97.758h37v2a3 3 0 0 0 3 3h6.05a8.921 8.921 0 0 1 .95 4 .978.978 0 0 1 -.306.712z" fill="#1e81ce"/><path d="m17 40h-1a1 1 0 0 0 0 2h1a1 1 0 0 0 0-2z" fill="#1e81ce"/><path d="m22 40h-1a1 1 0 0 0 0 2h1a1 1 0 0 0 0-2z" fill="#1e81ce"/><path d="m27 40h-1a1 1 0 0 0 0 2h1a1 1 0 0 0 0-2z" fill="#1e81ce"/><path d="m32 40h-1a1 1 0 0 0 0 2h1a1 1 0 0 0 0-2z" fill="#1e81ce"/><path d="m37 40h-1a1 1 0 0 0 0 2h1a1 1 0 0 0 0-2z" fill="#1e81ce"/><path d="m42 40h-1a1 1 0 0 0 0 2h1a1 1 0 0 0 0-2z" fill="#1e81ce"/><path d="m47 40h-1a1 1 0 0 0 0 2h1a1 1 0 0 0 0-2z" fill="#1e81ce"/><path d="m35.05 20.05a3 3 0 0 0 2.832-2.05h1.134a7.964 7.964 0 0 0 1.619 3.951l-.812.812a3.006 3.006 0 1 0 1.436 1.392l.79-.79a7.912 7.912 0 0 0 3.951 1.624v1.16a3.006 3.006 0 1 0 2-.031v-1.144a7.91 7.91 0 0 0 3.908-1.651l.855.854a3.006 3.006 0 1 0 1.392-1.436l-.848-.848a7.955 7.955 0 0 0 1.576-3.893h1.266a3.006 3.006 0 1 0 -.031-2h-1.249a7.947 7.947 0 0 0 -1.6-3.85l.913-.913a3.006 3.006 0 1 0 -1.436-1.392l-.89.89a7.908 7.908 0 0 0 -3.856-1.608v-1.276a3.008 3.008 0 1 0 -2 .03v1.231a7.9 7.9 0 0 0 -3.893 1.58l-.87-.869a3.006 3.006 0 1 0 -1.392 1.436l.833.833a7.936 7.936 0 0 0 -1.647 3.908h-1.18a3 3 0 1 0 -2.8 4.05zm4.243 6.142a1 1 0 1 1 0-1.414 1 1 0 0 1 0 1.414zm7.757 3.758a1 1 0 1 1 1-1 1 1 0 0 1 -1 1zm9.142-5.243a1 1 0 1 1 -1.414 0 1 1 0 0 1 1.414 0zm2.758-8.757a1 1 0 1 1 -1 1 1 1 0 0 1 1-1zm-4.243-8.142a1 1 0 1 1 0 1.414 1 1 0 0 1 0-1.414zm-3.515 13.485a6 6 0 1 1 0-8.485 5.957 5.957 0 0 1 0 8.485zm-4.242-17.243a1 1 0 1 1 -1 1 1 1 0 0 1 1-1zm-9.142 5.243a1 1 0 1 1 1.414 0 1 1 0 0 1 -1.414 0zm-2.758 6.757a1 1 0 1 1 -1 1 1 1 0 0 1 1-1z" fill="#1e81ce"/><circle cx="47" cy="14" fill="#1e81ce" r="2"/><circle cx="44" cy="18" fill="#1e81ce" r="2"/><circle cx="50" cy="18" fill="#1e81ce" r="2"/></g></svg>