<svg height="512" viewBox="0 0 64 64" width="512" xmlns="http://www.w3.org/2000/svg"><g id="workhome-virus-covid19-corona-home"><circle cx="57" cy="15" fill="none" r="1"/><path d="m53.95 21.364a1 1 0 1 0 0-1.414 1 1 0 0 0 0 1.414z" fill="none"/><circle cx="49" cy="23" fill="#9bc9ff" r="1"/><path d="m44.05 8.636a1 1 0 1 0 0 1.414 1 1 0 0 0 0-1.414z" fill="none"/><circle cx="49" cy="7" fill="none" r="1"/><g fill="#9bc9ff"><path d="m45.005 15.046c-.005-.016-.005-.03-.005-.046h-.044z"/><path d="m49 19c.072 0 .14-.018.211-.021l-4.206-3.933a3.993 3.993 0 0 0 3.995 3.954z"/><circle cx="41" cy="15" r="1"/><path d="m49 19a4 4 0 0 0 2.828-6.828l-5.656 5.656a3.984 3.984 0 0 0 2.828 1.172z"/><path d="m46.172 12.172a4 4 0 0 0 0 5.656l5.656-5.656a4 4 0 0 0 -5.656 0z"/><circle cx="49" cy="7" r="1"/><path d="m44.05 8.636a1 1 0 1 0 0 1.414 1 1 0 0 0 0-1.414z"/><circle cx="41" cy="15" r="1"/><circle cx="49" cy="23" r="1"/><path d="m53.95 21.364a1 1 0 1 0 0-1.414 1 1 0 0 0 0 1.414z"/><circle cx="57" cy="15" r="1"/><path d="m55.642 24.991a11.991 11.991 0 0 1 -17.053-15.943l-6.469-6.048-29.12 27h7v31h44v-31h7zm-23.642-3.991a4 4 0 1 1 -4 4 4 4 0 0 1 4-4zm10 24h-5v12h-10v-12h-5v-10a4 4 0 0 1 4-4h12a4 4 0 0 1 4 4z"/></g><path d="m37 25a5 5 0 1 0 -5 5 5.006 5.006 0 0 0 5-5zm-5 3a3 3 0 1 1 3-3 3 3 0 0 1 -3 3z" fill="#1e81ce"/><path d="m38 30h-12a5.006 5.006 0 0 0 -5 5v10a1 1 0 0 0 1 1h4v11a1 1 0 0 0 1 1h10a1 1 0 0 0 1-1v-11h4a1 1 0 0 0 1-1v-10a5.006 5.006 0 0 0 -5-5zm3 14h-3v-9a1 1 0 0 0 -2 0v21h-3v-8a1 1 0 0 0 -2 0v8h-3v-21a1 1 0 0 0 -2 0v9h-3v-9a3 3 0 0 1 3-3h12a3 3 0 0 1 3 3z" fill="#1e81ce"/><path d="m57.2 25.074a12.99 12.99 0 1 0 -18.788-17.59l-5.568-5.214a1 1 0 0 0 -1.364 0l-29.16 27a1 1 0 0 0 .68 1.73h6v30a1 1 0 0 0 1 1h44a1 1 0 0 0 1-1v-30h6a1 1 0 0 0 .684-1.73zm-8.2.926a10.953 10.953 0 0 1 -7.034-2.552l4.281-4.281a4.961 4.961 0 0 0 1.753.733v1.379a2 2 0 1 0 2 0v-1.379a4.969 4.969 0 0 0 1.753-.732l.979.979a2 2 0 1 0 1.415-1.414l-.98-.979a4.961 4.961 0 0 0 .733-1.754h1.379a2 2 0 1 0 0-2h-1.379a4.961 4.961 0 0 0 -.732-1.753l4.281-4.281a10.992 10.992 0 0 1 -8.449 18.034zm-3-11a3 3 0 0 1 3-3 2.951 2.951 0 0 1 1.285.3l-3.985 3.985a2.951 2.951 0 0 1 -.3-1.285zm6 0a3 3 0 0 1 -3 3 2.951 2.951 0 0 1 -1.285-.3l3.985-3.985a2.951 2.951 0 0 1 .3 1.285zm-3-11a10.953 10.953 0 0 1 7.034 2.552l-4.281 4.281a4.961 4.961 0 0 0 -1.753-.733v-1.378a2 2 0 1 0 -2 0v1.378a4.969 4.969 0 0 0 -1.753.732l-.979-.979a2 2 0 1 0 -1.415 1.414l.98.979a4.961 4.961 0 0 0 -.733 1.754h-1.378a2 2 0 1 0 0 2h1.378a4.961 4.961 0 0 0 .732 1.753l-4.281 4.281a10.992 10.992 0 0 1 8.449-18.034zm5 25a1 1 0 0 0 -1 1v30h-42v-30a1 1 0 0 0 -1-1h-4.448l26.6-24.634 5.207 4.875a12.975 12.975 0 0 0 18.155 16.992l2.955 2.767z" fill="#1e81ce"/></g></svg>